<?xml version="1.0" standalone="no"?>
<!DOCTYPE svg PUBLIC "-//W3C//DTD SVG 1.1//EN" "http://www.w3.org/Graphics/SVG/1.1/DTD/svg11.dtd" >
<svg>
<metadata>
Created by FontForge 20090622 at Wed Nov 11 20:59:25 2015
 By deploy user
Copyright (C) 2002, 2007 Hoefler &#38; Co. http://www.typography.com
</metadata>
<defs>
<font id="ChronicleDeck-Bold" horiz-adv-x="698" >
  <font-face 
    font-family="Chronicle Deck Bold"
    font-weight="400"
    font-stretch="normal"
    units-per-em="1000"
    panose-1="0 0 0 0 0 0 0 0 0 0"
    ascent="800"
    descent="-200"
    x-height="462"
    cap-height="678"
    bbox="-102 -330 1226 1141"
    underline-thickness="50"
    underline-position="-50"
    unicode-range="U+0020-U+FB04"
  />
<missing-glyph horiz-adv-x="500" 
d="M0 -200v1000h500v-1000h-500zM71 750l179 -390l179 390h-358zM50 -76l172 376l-172 376v-752zM450 676l-172 -376l172 -376v752zM250 240l-179 -390h358z" />
    <glyph glyph-name="f_f" unicode="ff" horiz-adv-x="678" 
d="M326 710q100 0 141 -49q52 52 152 52q72 0 110 -25t38 -65q0 -32 -18 -51t-50 -19q-31 0 -50.5 18t-19.5 54q0 27 15 51q-14 8 -31 8q-24 0 -39 -16q-28 -26 -28 -127v-84h125v-44h-125v-352q0 -20 18.5 -27t76.5 -9v-25h-288v25q33 1 46.5 9t13.5 27v352h-179v-352
q0 -19 13 -26.5t47 -9.5v-25h-262v25q42 1 55.5 8.5t13.5 27.5v350h-86v29l86 19v26q0 112 57 169q55 56 168 56zM413 490q0 28 3 53q-30 2 -48 21t-18 51q0 26 18 52q-16 14 -44 14q-37 0 -58 -21q-32 -32 -32 -122v-81h179v33z" />
    <glyph glyph-name="fi" unicode="fi" horiz-adv-x="632" 
d="M32 0v25q42 1 55.5 8.5t13.5 27.5v350h-86v29l86 19v21q0 117 54 172q63 61 183 61q92 0 139.5 -30t47.5 -76q0 -32 -19 -51.5t-52 -19.5t-54 18.5t-21 50.5q0 35 26 55q-20 24 -64 24q-49 0 -73 -25q-34 -33 -34 -127v-75h134l176 7v-403q0 -20 13.5 -27.5t55.5 -8.5
v-25h-261v25q31 1 45 9t14 27v352h-177v-352q0 -19 13 -26.5t47 -9.5v-25h-262z" />
    <glyph glyph-name="fl" unicode="fl" horiz-adv-x="632" 
d="M414 413h-180v-352q0 -19 13 -26.5t47 -9.5v-25h-262v25q42 1 55.5 8.5t13.5 27.5v350h-86v29l86 19v25q0 116 54 170q58 59 174 59q65 0 108 -18l110 15v-649q0 -20 13.5 -27.5t55.5 -8.5v-25h-262v25q32 1 46 9t14 27v352zM414 545q-25 4 -41 21.5t-16 46.5q0 34 22 54
q-19 17 -48 17q-42 0 -65 -23q-32 -32 -32 -125v-79h180v88z" />
    <glyph glyph-name="f_f_i" unicode="ffi" horiz-adv-x="944" 
d="M326 710q108 0 145 -54q62 57 180 57q91 0 138.5 -30t47.5 -76q0 -32 -19 -51.5t-52 -19.5q-32 0 -53.5 18.5t-21.5 50.5q0 36 27 55q-22 24 -64 24q-50 0 -74 -25q-34 -34 -34 -127v-75h134l176 8v-404q0 -20 13.5 -27.5t56.5 -8.5v-25h-262v25q31 1 45 9t14 27v352
h-177v-352q0 -19 13 -26.5t47 -9.5v-25h-253v25q34 1 47 9t13 27v352h-179v-352q0 -19 13 -26.5t47 -9.5v-25h-262v25q42 1 55.5 8.5t13.5 27.5v350h-86v29l86 19v26q0 112 57 169q55 56 168 56zM413 457v23q0 38 4 63q-31 1 -49 20t-18 52q0 26 18 52q-14 14 -44 14
q-37 0 -58 -21q-32 -32 -32 -122v-81h179z" />
    <glyph glyph-name="f_f_l" unicode="ffl" horiz-adv-x="944" 
d="M353 0v25q35 1 47.5 8.5t12.5 27.5v352h-179v-352q0 -19 13 -26.5t47 -9.5v-25h-262v25q42 1 55.5 8.5t13.5 27.5v350h-86v29l86 19v26q0 112 57 169q55 56 168 56q106 0 144 -53q61 56 172 56q64 0 107 -18l110 15v-649q0 -20 13.5 -27.5t55.5 -8.5v-25h-261v25
q31 1 45 9t14 27v352h-180v-352q0 -19 13 -26.5t47 -9.5v-25h-253zM726 457v88q-25 4 -40.5 21.5t-15.5 46.5q0 35 21 54q-19 17 -48 17q-42 0 -65 -23q-32 -34 -32 -123v-81h180zM413 486q0 30 3 57q-29 2 -47.5 20.5t-18.5 51.5q0 26 18 52q-14 14 -44 14q-37 0 -58 -21
q-32 -32 -32 -122v-81h179v29z" />
    <glyph glyph-name="f_b" unicode="fb" horiz-adv-x="912" 
d="M414 545q-25 4 -41 21.5t-16 46.5q0 34 22 54q-19 17 -48 17q-42 0 -65 -23q-32 -32 -32 -125v-79h180v88zM638 23q99 0 99 215q0 83 -29 130.5t-79 47.5q-37 0 -82 -34v-290q31 -69 91 -69zM329 0h-297v25q42 1 55.5 8.5t13.5 27.5v350h-86v29l86 19v25q0 116 54 170
q58 59 174 59q65 0 108 -18l110 15v-300q68 61 149 61q87 0 135 -63t48 -162q0 -111 -61 -182.5t-166 -71.5q-90 0 -155 44l-62 -55h-23l2 95v337h-180v-352q0 -20 18.5 -27t76.5 -9v-25z" />
    <glyph glyph-name="f_h" unicode="fh" horiz-adv-x="921" 
d="M414 545q-25 4 -41 21.5t-16 46.5q0 34 22 54q-19 17 -48 17q-42 0 -65 -23q-32 -32 -32 -125v-79h180v88zM608 0h-254v25q32 1 46 9t14 27v352h-180v-352q0 -19 13 -26.5t47 -9.5v-25h-262v25q42 1 55.5 8.5t13.5 27.5v350h-86v29l86 19v25q0 116 54 170q58 59 174 59
q65 0 108 -18l110 15v-334q81 91 173 91q124 0 124 -145v-261q0 -20 13.5 -27.5t55.5 -8.5v-25h-256v25q30 1 42 9t12 27v243q0 91 -73 91q-47 0 -91 -47v-287q0 -20 12.5 -27.5t48.5 -8.5v-25z" />
    <glyph glyph-name="f_j" unicode="fj" horiz-adv-x="623" 
d="M329 0h-297v25q42 1 55.5 8.5t13.5 27.5v350h-86v29l86 19v21q0 117 54 172q63 61 183 61q92 0 139.5 -30t47.5 -76q0 -32 -19 -51.5t-52 -19.5t-54 18.5t-21 50.5q0 36 27 55q-22 24 -65 24q-49 0 -73 -25q-34 -33 -34 -127v-75h133l177 8v-449q0 -68 -12.5 -105.5
t-42.5 -67.5q-21 -21 -59 -33.5t-80 -12.5q-66 0 -103 25t-37 61q0 31 19 50t49 19t49 -19.5t19 -49.5q0 -31 -21 -49q14 -7 27 -7q59 0 59 104v482h-177v-352q0 -20 18.5 -27t76.5 -9v-25z" />
    <glyph glyph-name="f_k" unicode="fk" horiz-adv-x="895" 
d="M605 0h-251v25q32 1 46 9t14 27v352h-180v-352q0 -19 13 -26.5t47 -9.5v-25h-262v25q42 1 55.5 8.5t13.5 27.5v350h-86v29l86 19v25q0 116 54 170q58 59 174 59q65 0 108 -18l110 15v-486l131 134q58 61 -36 80v24h230v-24q-43 -7 -73 -25t-72 -59l-51 -48l148 -224
q23 -34 37.5 -44t46.5 -13v-25h-254v24q33 2 39.5 13.5t-10.5 37.5l-93 147l-43 -42v-120q0 -19 12.5 -27t45.5 -9v-24zM414 545q-25 4 -41 21.5t-16 46.5q0 34 22 54q-19 17 -48 17q-42 0 -65 -23q-32 -32 -32 -125v-79h180v88z" />
    <glyph glyph-name="f_f_b" unicode="ffb" horiz-adv-x="1225" 
d="M641 0h-288v25q35 1 47.5 8.5t12.5 27.5v352h-179v-352q0 -19 13 -26.5t47 -9.5v-25h-262v25q42 1 55.5 8.5t13.5 27.5v350h-86v29l86 19v26q0 112 57 169q55 56 168 56q106 0 144 -53q61 56 172 56q64 0 107 -18l110 15v-300q68 61 149 61q87 0 135.5 -63.5t48.5 -161.5
q0 -111 -61.5 -182.5t-165.5 -71.5q-91 0 -156 44l-62 -55h-23l2 95v337h-180v-352q0 -20 18.5 -27t76.5 -9v-25zM950 23q100 0 100 215q0 82 -29 130t-79 48q-38 0 -83 -34v-290q31 -69 91 -69zM726 457v88q-25 4 -40.5 21.5t-15.5 46.5q0 35 21 54q-19 17 -48 17
q-42 0 -65 -23q-32 -34 -32 -123v-81h180zM413 486q0 30 3 57q-29 2 -47.5 20.5t-18.5 51.5q0 26 18 52q-14 14 -44 14q-37 0 -58 -21q-32 -32 -32 -122v-81h179v29z" />
    <glyph glyph-name="f_f_h" unicode="ffh" horiz-adv-x="1233" 
d="M353 0v25q35 1 47.5 8.5t12.5 27.5v352h-179v-352q0 -19 13 -26.5t47 -9.5v-25h-262v25q42 1 55.5 8.5t13.5 27.5v350h-86v29l86 19v26q0 112 57 169q55 56 168 56q106 0 144 -53q61 56 172 56q64 0 107 -18l110 15v-334q82 92 173 92q124 0 124 -146v-261
q0 -20 13.5 -27.5t56.5 -8.5v-25h-257v25q30 1 42 9t12 27v243q0 91 -72 91q-48 0 -92 -47v-287q0 -20 13 -27.5t49 -8.5v-25h-254v25q31 1 45 9t14 27v352h-180v-352q0 -19 13 -26.5t47 -9.5v-25h-253zM726 457v88q-25 4 -40.5 21.5t-15.5 46.5q0 35 21 54q-19 17 -48 17
q-42 0 -65 -23q-32 -34 -32 -123v-81h180zM413 486q0 30 3 57q-29 2 -47.5 20.5t-18.5 51.5q0 26 18 52q-14 14 -44 14q-37 0 -58 -21q-32 -32 -32 -122v-81h179v29z" />
    <glyph glyph-name="f_f_j" unicode="ffj" horiz-adv-x="935" 
d="M641 0h-288v25q34 1 47 9t13 27v352h-179v-352q0 -19 13 -26.5t47 -9.5v-25h-262v25q42 1 55.5 8.5t13.5 27.5v350h-86v29l86 19v26q0 112 57 169q55 56 168 56q108 0 145 -54q62 57 180 57q91 0 138.5 -30t47.5 -76q0 -32 -19 -51.5t-52 -19.5q-32 0 -53.5 18.5
t-21.5 50.5q0 36 27 55q-22 24 -64 24q-50 0 -74 -25q-34 -34 -34 -127v-75h133l177 8v-449q0 -68 -12 -105.5t-42 -67.5q-46 -46 -140 -46q-66 0 -103 25t-37 61q0 31 19 50t49 19t49 -19.5t19 -49.5q0 -31 -21 -49q14 -7 27 -7q59 0 59 104v482h-177v-352q0 -20 18.5 -27
t76.5 -9v-25zM413 480q0 38 4 63q-31 1 -49 20t-18 52q0 26 18 52q-14 14 -44 14q-37 0 -58 -21q-32 -32 -32 -122v-81h179v23z" />
    <glyph glyph-name="f_f_k" unicode="ffk" horiz-adv-x="1207" 
d="M353 0v25q35 1 47.5 8.5t12.5 27.5v352h-179v-352q0 -19 13 -26.5t47 -9.5v-25h-262v25q42 1 55.5 8.5t13.5 27.5v350h-86v29l86 19v26q0 112 57 169q55 56 168 56q106 0 144 -53q61 56 172 56q64 0 107 -18l110 15v-486l131 134q58 61 -35 80v25h230v-25q-44 -7 -74 -25
t-72 -59l-51 -48l148 -224q23 -34 37.5 -44t46.5 -13v-25h-254v24q33 2 39.5 13.5t-9.5 37.5l-94 147l-43 -42v-120q0 -19 12.5 -27t45.5 -9v-24h-250v25q31 1 45 9t14 27v352h-180v-352q0 -19 13 -26.5t47 -9.5v-25h-253zM726 457v88q-25 4 -40.5 21.5t-15.5 46.5
q0 35 21 54q-19 17 -48 17q-42 0 -65 -23q-32 -34 -32 -123v-81h180zM413 486q0 30 3 57q-29 2 -47.5 20.5t-18.5 51.5q0 26 18 52q-14 14 -44 14q-37 0 -58 -21q-32 -32 -32 -122v-81h179v29z" />
    <glyph glyph-name=".notdef" horiz-adv-x="500" 
d="M0 -200v1000h500v-1000h-500zM71 750l179 -390l179 390h-358zM50 -76l172 376l-172 376v-752zM450 676l-172 -376l172 -376v752zM250 240l-179 -390h358z" />
    <glyph glyph-name=".null" horiz-adv-x="0" 
 />
    <glyph glyph-name="nonmarkingreturn" horiz-adv-x="333" 
 />
    <glyph glyph-name="space" unicode=" " horiz-adv-x="197" 
 />
    <glyph glyph-name="exclam" unicode="!" horiz-adv-x="292" 
d="M132 206q-9 80 -37 222t-28 181q0 45 21 70.5t59 25.5q37 0 57.5 -25.5t20.5 -70.5q0 -39 -28 -182.5t-37 -220.5h-28zM146 -16q-34 0 -58 23t-24 56t24 56t59 23q34 0 57.5 -23t23.5 -56t-24 -56t-58 -23z" />
    <glyph glyph-name="quotedbl" unicode="&#x22;" horiz-adv-x="451" 
d="M284 399l-29 12l21 119q20 102 26 117q16 40 55 40q26 0 44.5 -18t18.5 -43q0 -15 -5 -26q-7 -19 -62 -102zM91 399l-29 12l21 119q18 94 26 117q16 40 54 40q26 0 45 -18t19 -43q0 -11 -5 -26q-7 -19 -62 -102z" />
    <glyph glyph-name="numbersign" unicode="#" horiz-adv-x="689" 
d="M322 690l-41 -212h189l41 212h44l-41 -212h143v-39h-150l-44 -226h151v-39h-158l-41 -215h-45l41 215h-189l-41 -215h-44l41 215h-141v39h149l43 226h-148v39h156l41 212h44zM273 439l-43 -226h189l43 226h-189z" />
    <glyph glyph-name="dollar" unicode="$" horiz-adv-x="562" 
d="M263 -66v81q-97 4 -159.5 41.5t-62.5 95.5q0 30 19 52t54 22q31 0 49.5 -19t18.5 -47q0 -46 -46 -67q13 -17 49 -30.5t80 -16.5v219l-16 6q-43 14 -70.5 26.5t-58.5 33t-46.5 50.5t-15.5 69q0 76 60 125.5t152 54.5v71h44v-71q87 -5 141.5 -41t54.5 -85q0 -30 -16.5 -50
t-46.5 -20q-33 0 -50.5 18.5t-17.5 46.5q0 41 36 59q-35 35 -103 42v-208l20 -6q42 -14 71.5 -27.5t58.5 -34.5t44 -51t15 -69q0 -74 -52.5 -128.5t-161.5 -60.5v-81h-44zM415 142q0 39 -25 62.5t-85 46.5v-206q54 3 82 29.5t28 67.5zM172 506q0 -35 24 -57t76 -42v193
q-46 -4 -73 -28.5t-27 -65.5z" />
    <glyph glyph-name="percent" unicode="%" horiz-adv-x="825" 
d="M603 21q57 0 99.5 74t42.5 145q0 82 -58 82q-59 0 -101 -75.5t-42 -151.5q0 -74 59 -74zM585 -14q-66 0 -102.5 39.5t-36.5 104.5q0 88 65.5 162t152.5 74q54 0 86 -33.5t32 -93.5q0 -33 -13 -75t-36 -82.5t-62.5 -68t-85.5 -27.5zM340 531q0 18 -2 26q-51 16 -92 48
q-46 -22 -76.5 -89t-30.5 -129q0 -75 59 -75q57 0 99.5 74t42.5 145zM260 658q70 0 99 -54q40 -21 98 -21q96 0 174 89h48l-482 -698h-62l454 620l-5 4q-69 -55 -160 -55q-21 0 -48 5q0 -3 0.5 -9t0.5 -9q0 -33 -13 -74.5t-36 -82.5t-62.5 -68.5t-85.5 -27.5
q-66 0 -102.5 39.5t-36.5 104.5q0 88 66 162.5t153 74.5z" />
    <glyph glyph-name="ampersand" unicode="&#x26;" horiz-adv-x="763" 
d="M336 386q35 30 49.5 61.5t14.5 76.5q0 46 -20 71.5t-57 25.5q-32 0 -53 -24.5t-21 -64.5q0 -35 19.5 -67t67.5 -79zM236 312q-65 -52 -65 -130q0 -59 35.5 -93.5t91.5 -34.5q63 0 113 57q-67 108 -175 201zM493 219q66 147 155 147q40 0 63.5 -23t23.5 -57q0 -29 -20 -50
t-49 -21q-28 0 -48 20t-20 47q0 6 3 14l-4 4q-46 -28 -86 -106q43 -75 76 -104.5t66 -29.5q30 0 69 30l16 -21q-87 -86 -160 -86q-54 0 -87 23t-66 81q-76 -104 -193 -104q-92 0 -143 46.5t-51 116.5q0 130 176 186q-42 45 -60.5 78t-18.5 73q0 73 54.5 120.5t142.5 47.5
q81 0 127 -39.5t46 -94.5q0 -95 -145 -152q89 -75 133 -146z" />
    <glyph glyph-name="quotesingle" unicode="'" horiz-adv-x="257" 
d="M91 399l-29 12l21 119q18 94 26 117q16 40 54 40q26 0 45 -18t19 -43q0 -11 -5 -26q-7 -19 -62 -102z" />
    <glyph glyph-name="parenleft" unicode="(" horiz-adv-x="379" 
d="M390 -162q-63 23 -120.5 63t-105.5 96t-76.5 132.5t-28.5 161.5q0 164 97.5 283.5t233.5 168.5l13 -23q-102 -66 -152.5 -165t-50.5 -264q0 -166 50.5 -265t152.5 -165z" />
    <glyph glyph-name="parenright" unicode=")" horiz-adv-x="379" 
d="M-12 -162l-12 23q102 66 152.5 165t50.5 265q0 165 -50.5 264t-152.5 165l12 23q64 -23 121.5 -63t105.5 -96t76.5 -132t28.5 -161t-28.5 -161.5t-76.5 -132.5t-105.5 -96t-121.5 -63z" />
    <glyph glyph-name="asterisk" unicode="*" horiz-adv-x="430" 
d="M274 355q-18 -5 -33 3.5t-22 29.5q-9 24 -1 123l-14 4q-57 -86 -73 -98q-18 -13 -35.5 -11t-28.5 17q-10 15 -6.5 33t20.5 30q20 15 116 39v14q-98 25 -116 38t-21.5 31.5t7.5 31.5q12 15 29 17t35 -11q19 -14 73 -98l14 4q-7 100 1 123q7 21 22 29.5t33 3.5
q18 -6 25.5 -22.5t0.5 -37.5q-9 -27 -73 -100l9 -11q88 37 117 37q22 0 35 -12t13 -30q0 -19 -13 -31t-35 -12q-25 0 -117 37l-8 -11q64 -76 72 -101q7 -21 -0.5 -37t-25.5 -22z" />
    <glyph glyph-name="plus" unicode="+" horiz-adv-x="548" 
d="M53 295v45h197v197h50v-197h195v-45h-195v-200h-50v200h-197z" />
    <glyph glyph-name="comma" unicode="," horiz-adv-x="259" 
d="M44 -157l-13 24q53 26 82 61t32 66l-5 4q-10 -6 -24 -6q-28 0 -48.5 20.5t-20.5 52.5t22 55t55 23q39 0 64.5 -28t25.5 -74q0 -66 -43.5 -117.5t-126.5 -80.5z" />
    <glyph glyph-name="hyphen" unicode="-" horiz-adv-x="366" 
d="M52 228v61h262v-61h-262z" />
    <glyph glyph-name="period" unicode="." horiz-adv-x="259" 
d="M129 -16q-34 0 -58 23t-24 56t24.5 56t58.5 23t58 -23t24 -56t-24.5 -56t-58.5 -23z" />
    <glyph glyph-name="slash" unicode="/" horiz-adv-x="444" 
d="M0 -209l203 467l199 467h51l-203 -467l-200 -467h-50z" />
    <glyph glyph-name="zero" unicode="0" horiz-adv-x="626" 
d="M313 -15q-127 0 -201.5 93.5t-74.5 240.5q0 146 76.5 242.5t200.5 96.5q127 0 201 -94t74 -241q0 -146 -76 -242t-200 -96zM318 17q65 0 89 71t24 233q0 158 -28 231.5t-94 73.5q-65 0 -89.5 -71.5t-24.5 -233.5q0 -158 28 -231t95 -73z" />
    <glyph glyph-name="one" unicode="1" horiz-adv-x="440" 
d="M40 0v27q67 1 92 12t25 38v450q0 43 -23 59.5t-97 17.5v26l264 20v-573q0 -27 24.5 -38t91.5 -12v-27h-377z" />
    <glyph glyph-name="two" unicode="2" horiz-adv-x="575" 
d="M48 0v91l142 110q111 86 149.5 142t38.5 138q0 73 -30.5 108.5t-84.5 35.5q-35 0 -66 -14t-45 -38q67 -24 67 -84q0 -35 -22 -60t-60 -25t-61.5 25.5t-23.5 64.5q0 74 67 119t166 45q116 0 177 -49.5t61 -129.5q0 -67 -51 -127.5t-177 -138.5l-147 -93v-7h240
q51 0 71.5 19t43.5 82l25 -1l-4 -213h-476z" />
    <glyph glyph-name="three" unicode="3" horiz-adv-x="568" 
d="M264 -15q-102 0 -165 39t-63 103q0 37 23 62t60 25q35 0 56.5 -23t21.5 -55q0 -52 -51 -78q15 -17 46.5 -29t68.5 -12q126 0 126 153q0 70 -38.5 105t-126.5 35h-27v36h23q86 0 120 36t34 113q0 132 -116 132q-28 0 -55 -12t-42 -30q22 -10 37.5 -29.5t15.5 -47.5
q0 -32 -20 -55t-57 -23q-34 0 -56.5 23t-22.5 58q0 64 64.5 105.5t158.5 41.5q113 0 175.5 -43t62.5 -116q0 -129 -204 -166v-4q107 -7 163.5 -48t56.5 -111q0 -82 -70 -133.5t-199 -51.5z" />
    <glyph glyph-name="four" unicode="4" horiz-adv-x="595" 
d="M576 191h-127v-116q0 -25 19.5 -35.5t63.5 -12.5v-27h-314v27q49 2 70 12.5t21 35.5v116h-288v53l319 400h109v-374h127v-79zM301 531l-204 -261h212v261h-8z" />
    <glyph glyph-name="five" unicode="5" horiz-adv-x="555" 
d="M267 -15q-100 0 -164 38t-64 101q0 36 23.5 61t61.5 25q35 0 54.5 -22.5t19.5 -54.5q0 -27 -15 -48t-37 -31q35 -37 103 -37t97 45.5t29 132.5q0 156 -134 156q-71 0 -138 -46l-24 17l12 321h406l-15 -119h-351l-7 -176q68 43 157 43q121 0 179.5 -53t58.5 -139
q0 -88 -66.5 -151t-185.5 -63z" />
    <glyph glyph-name="six" unicode="6" horiz-adv-x="583" 
d="M300 -15q-121 0 -190.5 75t-69.5 197q0 161 106 267q59 59 143 92.5t216 45.5v-26q-138 -31 -217.5 -99t-101.5 -196l5 -2q24 42 67 65t94 23q91 0 144 -54.5t53 -142.5q0 -106 -64.5 -175.5t-184.5 -69.5zM303 17q101 0 101 195q0 87 -24 128.5t-75 41.5t-85 -46.5
t-34 -136.5q0 -88 31.5 -135t85.5 -47z" />
    <glyph glyph-name="seven" unicode="7" horiz-adv-x="539" 
d="M106 -10v21l339 513h-257q-49 0 -68 -19.5t-40 -86.5h-26l7 225h465v-34l-169 -342l-126 -277h-125z" />
    <glyph glyph-name="eight" unicode="8" horiz-adv-x="574" 
d="M39 149q0 103 137 155q-119 62 -119 164q0 82 65.5 136t165.5 54q102 0 164.5 -43t62.5 -111q0 -90 -132 -143q73 -31 113.5 -74t40.5 -106q0 -84 -71.5 -140t-172.5 -56q-123 0 -188.5 44.5t-65.5 119.5zM247 275l-33 12q-57 -51 -57 -130q0 -58 36.5 -99.5t97.5 -41.5
q54 0 85.5 29.5t31.5 85.5q0 49 -38.5 81.5t-122.5 62.5zM181 521q0 -51 42 -84t121 -61q4 -2 5 -2q50 46 50 127q0 54 -30.5 89.5t-87.5 35.5q-45 0 -72.5 -27t-27.5 -78z" />
    <glyph glyph-name="nine" unicode="9" horiz-adv-x="583" 
d="M83 -19v26q137 29 217 98.5t102 196.5l-5 2q-21 -41 -61 -64.5t-91 -23.5q-93 0 -149 57.5t-56 146.5q0 105 67.5 171.5t188.5 66.5q124 0 188 -74.5t64 -203.5q0 -156 -106 -260q-59 -60 -143 -93.5t-216 -45.5zM289 260q48 0 80.5 49.5t32.5 135.5t-28.5 134t-79.5 48
q-109 0 -109 -196q0 -171 104 -171z" />
    <glyph glyph-name="colon" unicode=":" horiz-adv-x="274" 
d="M137 263q-34 0 -58 23t-24 56t24.5 56.5t58.5 23.5t57.5 -23t23.5 -56t-24 -56.5t-58 -23.5zM137 -16q-34 0 -58 23t-24 56t24 56t59 23q34 0 57.5 -23t23.5 -56t-24 -56t-58 -23z" />
    <glyph glyph-name="semicolon" unicode=";" horiz-adv-x="274" 
d="M138 263q-34 0 -58 23t-24 56t24.5 56.5t58.5 23.5t58 -23t24 -56t-24.5 -56.5t-58.5 -23.5zM50 -157l-13 24q53 26 82 61t33 66l-5 4q-12 -6 -25 -6q-28 0 -48.5 20.5t-20.5 52.5t22 55t55 23q40 0 65 -28t25 -74q0 -66 -43.5 -117.5t-126.5 -80.5z" />
    <glyph glyph-name="less" unicode="&#x3c;" horiz-adv-x="541" 
d="M79 297v41l384 204v-52l-329 -173l329 -171v-53z" />
    <glyph glyph-name="equal" unicode="=" horiz-adv-x="549" 
d="M58 196v46h433v-46h-433zM58 392v46h433v-46h-433z" />
    <glyph glyph-name="greater" unicode="&#x3e;" horiz-adv-x="541" 
d="M462 297l-383 -204v52l328 173l-328 172v52l383 -203v-42z" />
    <glyph glyph-name="question" unicode="?" horiz-adv-x="507" 
d="M204 210l-2 134q79 23 109 66.5t30 115.5q0 73 -31 109.5t-86 36.5q-36 0 -65 -14t-41 -36q28 -9 44.5 -31.5t16.5 -50.5q0 -32 -21.5 -57t-58.5 -25q-38 0 -62 26t-24 64q0 66 64.5 111t162.5 45q120 0 182 -51t62 -130q0 -154 -239 -204v-109h-41zM224 -16
q-34 0 -58 23t-24 56t24.5 56t58.5 23t58 -23t24 -56t-24.5 -56t-58.5 -23z" />
    <glyph glyph-name="at" unicode="@" horiz-adv-x="911" 
d="M472 -146q-181 0 -297.5 112.5t-116.5 294.5q0 184 121.5 303.5t311.5 119.5q153 0 258 -94.5t105 -240.5q0 -133 -73.5 -211.5t-166.5 -78.5q-62 0 -92 19t-36 58l-6 2q-58 -70 -125 -70q-54 0 -86.5 39t-32.5 104q0 101 69.5 184.5t161.5 83.5q62 0 89 -57h7l14 47
l113 8l-51 -141l-39 -139q-32 -98 38 -98q63 0 120 70.5t57 177.5q0 130 -93.5 217t-235.5 87q-172 0 -281 -111t-109 -274q0 -164 104.5 -271t276.5 -107q133 0 250 84l18 -26q-125 -92 -273 -92zM411 127q34 0 71 46l63 210q-16 55 -57 55q-56 0 -96.5 -78.5t-40.5 -150.5
q0 -82 60 -82z" />
    <glyph glyph-name="A" unicode="A" 
d="M454 101l-52 151h-219l-34 -90q-27 -72 -14 -98.5t78 -36.5v-27h-235v27q48 12 74.5 42.5t54.5 102.5l201 519h88l213 -586q15 -39 34.5 -54t72.5 -24v-27h-354v27q68 4 87 20t5 54zM195 284h196l-91 264h-7z" />
    <glyph glyph-name="B" unicode="B" horiz-adv-x="692" 
d="M32 0v27q58 2 77.5 13t19.5 38v522q0 27 -19.5 38t-77.5 13v27h328q147 0 208 -46.5t61 -116.5q0 -57 -47.5 -99t-145.5 -55v-4q107 -4 162 -49.5t55 -114.5q0 -86 -65.5 -139.5t-218.5 -53.5h-337zM279 371h66q73 0 102.5 34.5t29.5 104.5q0 68 -29 102t-105 34h-64
v-275zM279 31h78q86 0 114.5 40t28.5 123q0 146 -154 146h-67v-309z" />
    <glyph glyph-name="C" unicode="C" horiz-adv-x="706" 
d="M378 -17q-158 0 -248.5 95t-90.5 252q0 160 104 262t257 102q97 0 176 -44l37 47h28v-253h-33q-41 107 -93 162.5t-122 55.5q-83 0 -136 -81.5t-53 -230.5q0 -151 63.5 -232t154.5 -81q142 0 216 154l30 -14q-85 -194 -290 -194z" />
    <glyph glyph-name="D" unicode="D" horiz-adv-x="761" 
d="M32 0v27q58 2 77.5 13t19.5 38v522q0 27 -19.5 38t-77.5 13v27h319q181 0 275.5 -88.5t94.5 -237.5q0 -72 -20 -133.5t-61 -111.5t-111 -78.5t-163 -28.5h-334zM279 31h61q123 0 171 67.5t48 242.5q0 171 -54 238t-170 67h-56v-615z" />
    <glyph glyph-name="E" unicode="E" 
d="M32 0v27q58 2 77.5 13t19.5 38v522q0 27 -19.5 38t-77.5 13v27h583l5 -230l-31 -1q-45 113 -85.5 156t-124.5 43h-100v-282h35q58 0 87.5 24t51.5 95h26v-271h-26q-22 71 -51.5 95.5t-87.5 24.5h-35v-300h94q53 0 89.5 11.5t64.5 41.5t46.5 65t42.5 97l31 -2l-7 -245
h-608z" />
    <glyph glyph-name="F" unicode="F" horiz-adv-x="657" 
d="M32 0v27q58 2 77.5 13t19.5 38v522q0 26 -19.5 37t-77.5 13v28h582l4 -232l-31 -2q-44 112 -89 157t-132 45h-87v-291h37q57 0 85.5 23t49.5 92h27v-267h-27q-21 72 -49.5 96t-85.5 24h-37v-245q0 -29 18.5 -39.5t83.5 -12.5v-26h-349z" />
    <glyph glyph-name="G" unicode="G" horiz-adv-x="739" 
d="M390 -17q-155 0 -252.5 94.5t-97.5 259.5q0 159 103 258t258 99q101 0 175 -38l38 42h29v-234h-31q-42 97 -94.5 147.5t-123.5 50.5q-82 0 -135.5 -81t-53.5 -242t55.5 -242t141.5 -81q71 0 109 31v195q0 26 -23 38.5t-83 14.5v27h321v-27q-42 -2 -56.5 -12.5
t-14.5 -39.5v-192q-119 -68 -265 -68z" />
    <glyph glyph-name="H" unicode="H" horiz-adv-x="823" 
d="M32 0v27q58 2 77.5 13t19.5 37v523q0 27 -19.5 38t-77.5 13v27h337v-27q-51 -2 -70.5 -13t-19.5 -38v-232h264v232q0 27 -19.5 38t-70.5 13v27h338v-27q-59 -2 -78 -13t-19 -38v-523q0 -27 19 -37.5t78 -12.5v-27h-338v27q51 2 70.5 12.5t19.5 37.5v258h-264v-258
q0 -27 19.5 -37.5t70.5 -12.5v-27h-337z" />
    <glyph glyph-name="I" unicode="I" horiz-adv-x="428" 
d="M40 0v27q60 2 79.5 13t19.5 38v522q0 27 -20 38t-79 13v27h348v-27q-59 -2 -79 -13t-20 -38v-522q0 -27 19.5 -38t79.5 -13v-27h-348z" />
    <glyph glyph-name="J" unicode="J" horiz-adv-x="585" 
d="M236 -17q-99 0 -155 40.5t-56 105.5q0 42 26.5 70t64.5 28q37 0 61.5 -24.5t24.5 -59.5q0 -68 -71 -88q33 -31 83 -31q55 0 79.5 40t24.5 123v413q0 27 -20 38t-79 13v27h344v-27q-57 -2 -76 -13t-19 -38v-381q0 -236 -232 -236z" />
    <glyph glyph-name="K" unicode="K" horiz-adv-x="757" 
d="M276 316l211 222q96 101 -24 114v26h274v-27q-62 -11 -106 -39.5t-119 -104.5l-82 -82l208 -298q38 -56 61 -75t67 -25v-27h-323v26q50 4 58.5 21t-18.5 57l-152 221l-55 -56v-192q0 -28 16.5 -38t64.5 -12v-27h-329v27q58 2 77.5 13t19.5 37v523q0 27 -19.5 38t-77.5 13
v27h338v-27q-51 -2 -70.5 -13t-19.5 -38v-284z" />
    <glyph glyph-name="L" unicode="L" horiz-adv-x="646" 
d="M28 0v27q58 2 77.5 13t19.5 38v522q0 27 -19.5 38t-77.5 13v27h344v-27q-59 -2 -77.5 -13t-18.5 -38v-568h56q71 0 116 24t73.5 68.5t63.5 131.5l32 -2l-8 -254h-581z" />
    <glyph glyph-name="M" unicode="M" horiz-adv-x="978" 
d="M33 0v27q67 9 89.5 41.5t22.5 108.5v381q0 89 -112 93v27h286l183 -485h7l171 485h266v-27q-58 -2 -77.5 -13t-19.5 -38v-522q0 -27 19.5 -38t77.5 -13v-27h-334v27q50 2 69 13t19 38v518h-6l-216 -596h-52l-235 596h-7v-419q0 -77 22.5 -109t92.5 -41v-27h-266z" />
    <glyph glyph-name="N" unicode="N" horiz-adv-x="789" 
d="M607 -10l-420 542h-3v-355q0 -76 24.5 -109t96.5 -41v-27h-272v27q67 9 89.5 41.5t22.5 108.5v372q0 97 -112 102v27h229l368 -479h3v302q0 74 -27.5 108t-99.5 42v27h273v-27q-66 -9 -86.5 -41t-20.5 -109v-511h-65z" />
    <glyph glyph-name="O" unicode="O" horiz-adv-x="756" 
d="M378 -17q-151 0 -244.5 96t-93.5 258q0 160 95.5 258.5t242.5 98.5q151 0 244.5 -96t93.5 -257t-95 -259.5t-243 -98.5zM382 16q87 0 128 75.5t41 247.5q0 169 -44 246t-133 77q-87 0 -128 -76t-41 -247q0 -170 44 -246.5t133 -76.5z" />
    <glyph glyph-name="P" unicode="P" horiz-adv-x="663" 
d="M32 0v27q58 2 77.5 13t19.5 38v522q0 27 -19.5 38t-77.5 13v27h311q291 0 291 -193q0 -86 -71 -142t-223 -56h-61v-209q0 -29 18.5 -39.5t84.5 -12.5v-26h-350zM279 319h53q84 0 115 38.5t31 126.5q0 79 -32 120.5t-110 41.5h-57v-327z" />
    <glyph glyph-name="Q" unicode="Q" horiz-adv-x="756" 
d="M382 18q88 0 128.5 75t40.5 247q0 169 -44 245.5t-133 76.5q-87 0 -128 -75.5t-41 -246.5q0 -170 44 -246t133 -76zM429 -11q31 -13 61.5 -41.5t50 -54.5t44 -46t47.5 -20q28 0 28 26q0 11 -25.5 35t-25.5 48q0 28 19 48t48 20q30 0 50 -23t20 -56q0 -63 -52 -103
t-133 -40q-39 0 -72 15t-56 36t-43.5 42.5t-42.5 36.5t-44 15q-63 0 -139 -78l-19 20q75 95 165 122q-123 21 -196.5 113t-73.5 234q0 160 95.5 258t242.5 98q151 0 244.5 -96t93.5 -256q0 -146 -80 -241t-207 -112z" />
    <glyph glyph-name="R" unicode="R" horiz-adv-x="717" 
d="M279 356h60q85 0 114 32.5t29 115.5q0 72 -34 107t-118 35h-51v-290zM279 326v-248q0 -27 20.5 -38t71.5 -13v-27h-339v27q58 2 77.5 13t19.5 38v522q0 27 -19.5 38t-77.5 13v27h336q143 0 206.5 -46t63.5 -119q0 -66 -46.5 -109t-153.5 -60v-3q99 -3 139 -40t48 -107
l9 -78q7 -54 25 -70t75 -18v-27q-50 -6 -93 -6q-50 0 -81.5 6.5t-48.5 23t-24 37t-10 55.5l-7 82q-6 75 -34.5 101t-108.5 26h-48z" />
    <glyph glyph-name="S" unicode="S" horiz-adv-x="573" 
d="M50 -19v243h31q96 -206 225 -206q61 0 94 33.5t33 80.5q0 53 -37.5 83.5t-128.5 60.5q-48 16 -78.5 29t-64 36t-50 57t-16.5 79q0 97 65 156t170 59q80 0 144 -34l36 39h27v-215h-31q-84 178 -190 178q-47 0 -79 -29t-32 -78q0 -52 38 -80.5t130 -57.5q34 -11 57 -20
t51.5 -26t46 -36t29.5 -49t12 -67q0 -97 -60.5 -164.5t-180.5 -67.5q-97 0 -167 39l-47 -43h-27z" />
    <glyph glyph-name="T" unicode="T" horiz-adv-x="710" 
d="M171 0v27q64 2 87 13t23 38v568h-23q-55 0 -96 -47t-89 -151l-31 1l6 229h616l5 -229l-30 -1q-46 103 -87.5 150.5t-97.5 47.5h-23v-568q0 -27 22.5 -38t86.5 -13v-27h-369z" />
    <glyph glyph-name="U" unicode="U" horiz-adv-x="784" 
d="M403 -17q-282 0 -282 235v382q0 27 -19.5 38t-77.5 13v27h337v-27q-50 -2 -69.5 -13t-19.5 -38v-385q0 -181 179 -181q75 0 118 43q52 52 52 156v268q0 74 -27.5 108t-99.5 42v27h275v-27q-66 -9 -87 -41.5t-21 -108.5v-280q0 -111 -64.5 -174.5t-193.5 -63.5z" />
    <glyph glyph-name="V" unicode="V" horiz-adv-x="711" 
d="M319 -11l-221 579q-16 42 -36.5 58t-72.5 25v27h352v-27q-66 -4 -83.5 -19.5t-4.5 -51.5l160 -437h6l140 379q25 65 11 91.5t-82 37.5v27h242v-27q-50 -10 -74.5 -38t-53.5 -105l-200 -519h-83z" />
    <glyph glyph-name="W" unicode="W" horiz-adv-x="1037" 
d="M511 481l-28 83q-16 48 -33.5 65.5t-61.5 21.5v27h323v-27q-57 -3 -73.5 -19.5t-4.5 -52.5l130 -421h7l111 361q21 67 6 94t-78 38v27h248v-27q-55 -11 -81.5 -40t-51.5 -106l-166 -516h-84l-143 430l-155 -430h-85l-188 577q-14 44 -33.5 60t-69.5 25v27h320v-27
q-51 -3 -63 -19t-2 -53l128 -422h7z" />
    <glyph glyph-name="X" unicode="X" horiz-adv-x="711" 
d="M392 407l95 130q76 103 -37 114v27h251v-27q-52 -8 -89.5 -37.5t-94.5 -103.5l-101 -132l184 -277q25 -38 48 -53t77 -21v-27h-342v27q58 3 69.5 20t-13.5 52l-117 188l-106 -146q-40 -54 -31 -81t68 -33v-27h-256v27q56 8 92.5 35.5t96.5 105.5l113 148l-171 258
q-25 38 -50 54t-76 23v27h340v-27q-56 -2 -67.5 -21t12.5 -53z" />
    <glyph glyph-name="Y" unicode="Y" horiz-adv-x="688" 
d="M399 334l114 198q34 58 25.5 83.5t-70.5 35.5v27h234v-27q-47 -8 -76.5 -34t-69.5 -93l-134 -224v-222q0 -27 19.5 -38t79.5 -13v-27h-348v27q60 2 79.5 13t19.5 38v202l-171 299q-21 35 -42 50t-65 22v27h345v-27q-66 -4 -80.5 -22t8.5 -53z" />
    <glyph glyph-name="Z" unicode="Z" horiz-adv-x="655" 
d="M34 0l-1 27l416 617h-161q-59 0 -101 -45t-95 -152l-35 2l13 229h551l1 -27l-416 -617h179q61 0 101.5 46.5t98.5 163.5l35 -2l-12 -242h-574z" />
    <glyph glyph-name="bracketleft" unicode="[" horiz-adv-x="357" 
d="M83 -161v904h296v-31h-173v-842h173v-31h-296z" />
    <glyph glyph-name="backslash" unicode="\" horiz-adv-x="444" 
d="M393 -209l-199 467l-203 467h50l199 -467l203 -467h-50z" />
    <glyph glyph-name="bracketright" unicode="]" horiz-adv-x="357" 
d="M-23 -161v31h174v842h-174v31h297v-904h-297z" />
    <glyph glyph-name="asciicircum" unicode="^" horiz-adv-x="373" 
d="M22 495l145 246h41l143 -246h-46l-120 132l-117 -132h-46z" />
    <glyph glyph-name="underscore" unicode="_" horiz-adv-x="447" 
d="M-2 0v43h451v-43h-451z" />
    <glyph glyph-name="grave" unicode="`" horiz-adv-x="248" 
d="M162 527l-76 80q-38 41 -50 58.5t-12 36.5q0 21 17 37t39 16q29 0 43 -20.5t35 -82.5l44 -125h-40z" />
    <glyph glyph-name="a" unicode="a" horiz-adv-x="516" 
d="M171 -7q-67 0 -101.5 35t-34.5 83q0 31 16.5 59.5t46.5 45.5q43 23 129 36.5t90 14.5v67q0 55 -18.5 79t-58.5 24q-37 0 -60 -18q20 -25 20 -53q0 -31 -19 -50t-53 -19q-32 0 -51 19t-19 49q0 46 54.5 74t154.5 28q93 0 137.5 -39.5t44.5 -122.5v-209q0 -37 14 -46.5
t57 2.5l8 -20q-59 -38 -109 -38q-45 0 -65.5 16.5t-29.5 55.5h-4q-68 -73 -149 -73zM244 55q43 0 73 43v140q-82 -13 -111.5 -35t-29.5 -71q0 -35 18 -56t50 -21z" />
    <glyph glyph-name="b" unicode="b" horiz-adv-x="567" 
d="M66 -19l3 95v547q0 25 -15 36.5t-59 12.5v25l206 10v-297q67 60 149 60q88 0 136 -63t48 -161q0 -111 -61.5 -182.5t-165.5 -71.5q-91 0 -156 44l-61 -55h-24zM292 23q100 0 100 215q0 83 -29 130.5t-79 47.5q-38 0 -83 -34v-290q33 -69 91 -69z" />
    <glyph glyph-name="c" unicode="c" horiz-adv-x="486" 
d="M266 -9q-109 0 -172 62.5t-63 170.5q0 113 69 180.5t177 67.5q91 0 137 -35.5t46 -79.5q0 -34 -18.5 -54.5t-50.5 -20.5q-36 0 -55.5 19t-19.5 48q0 19 10 35.5t23 24.5q-19 33 -68 33q-50 0 -79.5 -53.5t-29.5 -150.5q0 -86 36 -140t107 -54q78 0 135 75l19 -15
q-74 -113 -203 -113z" />
    <glyph glyph-name="d" unicode="d" horiz-adv-x="570" 
d="M231 -8q-93 0 -146.5 64t-53.5 166q0 105 62.5 176.5t169.5 71.5q54 0 98 -19v172q0 25 -15 36.5t-59 12.5v25l207 10v-639q0 -22 15 -33.5t55 -11.5v-22l-201 -6v59q-54 -62 -132 -62zM286 51q42 0 75 31v307q-30 49 -86 49q-48 0 -75.5 -54t-27.5 -150
q0 -80 30.5 -131.5t83.5 -51.5z" />
    <glyph glyph-name="e" unicode="e" horiz-adv-x="502" 
d="M267 -9q-110 0 -173 62t-63 172q0 112 66 179.5t170 67.5q103 0 156.5 -65t48.5 -167h-301v-11v-1q0 -87 37 -136.5t108 -49.5q76 0 136 82l20 -15q-74 -118 -205 -118zM260 441q-80 0 -88 -172l164 1q8 77 -11.5 124t-64.5 47z" />
    <glyph glyph-name="f" unicode="f" horiz-adv-x="366" 
d="M32 0v25q42 1 55.5 8.5t13.5 27.5v350h-86v29l86 19v31q0 116 54 171q51 52 152 52q72 0 109.5 -25t37.5 -65q0 -32 -17.5 -51t-49.5 -19q-31 0 -50.5 18.5t-19.5 54.5q0 26 15 50q-14 8 -31 8q-24 0 -40 -16q-27 -27 -27 -127v-84h125v-44h-125v-352q0 -20 18.5 -27
t76.5 -9v-25h-297z" />
    <glyph glyph-name="g" unicode="g" horiz-adv-x="488" 
d="M253 -174q65 0 104.5 25t39.5 67q0 30 -29 44t-105 14h-105q-56 -22 -56 -66q0 -39 38.5 -61.5t112.5 -22.5zM248 187q38 0 53 29.5t15 96.5q0 126 -77 126q-38 0 -52.5 -29t-14.5 -97q0 -66 18.5 -96t57.5 -30zM244 467q51 0 93 -15q42 90 109 90q29 0 45.5 -15.5
t16.5 -39.5q0 -21 -13.5 -35.5t-35.5 -14.5q-19 0 -33.5 14.5t-14.5 39.5q-31 -11 -50 -49q84 -42 84 -127q0 -71 -57 -114t-144 -43q-27 0 -59 5q-57 -19 -57 -45q0 -33 100 -33h73q94 0 139 -30t45 -93q0 -68 -71 -116.5t-187 -48.5q-93 0 -152 28.5t-59 72.5q0 71 115 88
v3q-84 27 -84 91q0 28 25 52.5t73 41.5q-102 38 -102 137q0 71 57 113.5t144 42.5z" />
    <glyph glyph-name="h" unicode="h" horiz-adv-x="592" 
d="M16 0v25q42 1 55.5 8.5t13.5 27.5v562q0 25 -15 36.5t-59 12.5v25l207 10v-331q81 91 173 91q124 0 124 -145v-261q0 -20 13.5 -27.5t56.5 -8.5v-25h-257v25q30 1 42 9t12 27v243q0 91 -73 91q-47 0 -91 -47v-287q0 -19 12 -27t42 -9v-25h-256z" />
    <glyph glyph-name="i" unicode="i" horiz-adv-x="317" 
d="M161 543q-36 0 -57.5 21t-21.5 57q0 37 22 59t57 22q36 0 57.5 -21t21.5 -57q0 -37 -21.5 -59t-57.5 -22zM25 0v25q42 1 57 8.5t15 27.5v320q0 24 -15.5 36t-56.5 13v25l205 9v-403q0 -20 13.5 -27.5t55.5 -8.5v-25h-274z" />
    <glyph glyph-name="j" unicode="j" horiz-adv-x="310" 
d="M163 543q-36 0 -57.5 21t-21.5 57q0 37 21.5 59t57.5 22t57.5 -21t21.5 -57q0 -37 -22 -59t-57 -22zM38 -203q-66 0 -103 25t-37 61q0 31 19 50t49 19t49 -19.5t19 -49.5q0 -31 -21 -49q14 -7 27 -7q59 0 59 104v449q0 26 -16.5 37.5t-63.5 12.5v25l213 9v-448
q0 -68 -12 -105.5t-42 -67.5q-46 -46 -140 -46z" />
    <glyph glyph-name="k" unicode="k" horiz-adv-x="566" 
d="M218 180v-120q0 -35 49 -36v-24h-251v25q42 1 55.5 8.5t13.5 27.5v562q0 25 -15 36.5t-59 12.5v25l207 10v-483l131 134q58 61 -35 80v24h230v-24q-44 -7 -74 -25t-72 -59l-51 -48l148 -224q23 -34 37.5 -44t46.5 -13v-25h-254v24q33 2 39.5 13.5t-9.5 37.5l-94 147z" />
    <glyph glyph-name="l" unicode="l" horiz-adv-x="307" 
d="M20 0v25q42 1 55.5 8.5t13.5 27.5v562q0 25 -15 36.5t-59 12.5v25l207 10v-646q0 -20 13.5 -27.5t55.5 -8.5v-25h-271z" />
    <glyph glyph-name="m" unicode="m" horiz-adv-x="881" 
d="M333 0v25q29 1 39.5 8.5t10.5 27.5v243q0 91 -73 91q-24 0 -41.5 -11t-41.5 -36v-287q0 -20 9.5 -27.5t38.5 -8.5v-25h-250v25q42 1 55.5 8.5t13.5 27.5v320q0 25 -14.5 36.5t-54.5 12.5v25l200 9v-88q81 91 167 91q100 0 119 -96q80 96 170 96q124 0 124 -145v-261
q0 -20 13 -27.5t55 -8.5v-25h-250v25q29 1 39 8.5t10 27.5v243q0 46 -16 68.5t-53 22.5q-42 0 -89 -52q2 -18 2 -20v-262q0 -20 10.5 -27.5t40.5 -8.5v-25h-234z" />
    <glyph glyph-name="n" unicode="n" horiz-adv-x="599" 
d="M25 0v25q42 1 55.5 8.5t13.5 27.5v320q0 25 -14.5 36.5t-54.5 12.5v25l200 9v-88q81 91 175 91q122 0 122 -145v-261q0 -20 13.5 -27.5t55.5 -8.5v-25h-257v25q30 1 42.5 9t12.5 27v243q0 47 -16.5 69t-53.5 22q-47 0 -92 -47v-287q0 -19 12 -27t42 -9v-25h-256z" />
    <glyph glyph-name="o" unicode="o" horiz-adv-x="544" 
d="M273 -9q-114 0 -178 64t-64 175q0 110 66 176t176 66q112 0 176.5 -64t64.5 -174t-66 -176.5t-175 -66.5zM277 22q51 0 72.5 51t21.5 159q0 209 -103 209q-52 0 -73.5 -50t-21.5 -159q0 -210 104 -210z" />
    <glyph glyph-name="p" unicode="p" horiz-adv-x="573" 
d="M10 -190v25q42 1 55 8.5t13 27.5v510q0 25 -14.5 36.5t-54.5 12.5v25l200 9v-61q77 67 148 67q87 0 136 -63.5t49 -168.5t-57 -175t-155 -70q-64 0 -119 25v-147q0 -20 19 -27.5t75 -8.5v-25h-295zM304 24q97 0 97 208q0 82 -26.5 131t-77.5 49q-41 0 -86 -36v-285
q28 -67 93 -67z" />
    <glyph glyph-name="q" unicode="q" horiz-adv-x="566" 
d="M273 -190v25q54 1 72.5 9t18.5 26v182q-67 -59 -144 -59q-90 0 -139.5 63.5t-49.5 160.5q0 109 62 181t167 72q89 0 154 -44l62 55h23l-2 -95v-516q0 -19 13.5 -26.5t54.5 -8.5v-25h-292zM284 48q34 0 80 33v289q-32 70 -89 70q-102 0 -102 -215q0 -81 29.5 -129
t81.5 -48z" />
    <glyph glyph-name="r" unicode="r" horiz-adv-x="455" 
d="M25 0v25q42 1 55.5 8.5t13.5 27.5v320q0 25 -14.5 36.5t-54.5 12.5v25l200 9v-89q59 93 137 93q43 0 66 -23.5t23 -59.5q0 -35 -20 -57t-51 -22q-33 0 -53.5 19t-20.5 48q0 15 5 30q-45 -3 -84 -58v-284q0 -20 18 -27.5t72 -8.5v-25h-292z" />
    <glyph glyph-name="s" unicode="s" horiz-adv-x="447" 
d="M42 -8v166h28q80 -134 170 -134q37 0 57 17.5t20 46.5q0 33 -27 52t-100 40q-81 23 -114 52.5t-33 83.5q0 70 50.5 112t133.5 42q64 0 113 -31l25 31h26v-148h-28q-40 61 -72.5 89t-71.5 28q-32 0 -52 -18.5t-20 -48.5q0 -29 26 -45t83 -30q84 -21 123 -54t39 -92
q0 -69 -51.5 -114t-135.5 -45q-28 0 -70 10.5t-62 23.5l-30 -34h-27z" />
    <glyph glyph-name="t" unicode="t" horiz-adv-x="386" 
d="M233 -8q-63 0 -100 33.5t-37 105.5v282h-88v29l90 19v125l131 40v-167h145v-44h-145v-287q0 -78 57 -78q44 0 77 63l22 -13q-48 -108 -152 -108z" />
    <glyph glyph-name="u" unicode="u" horiz-adv-x="589" 
d="M216 -8q-63 0 -98.5 38t-35.5 109v249q0 24 -14.5 35.5t-55.5 12.5v24l203 5v-306q0 -93 74 -93q45 0 86 44v278q0 24 -15 35t-55 12v25l203 5v-402q0 -21 13.5 -29t55.5 -9v-25h-200v82q-71 -90 -161 -90z" />
    <glyph glyph-name="v" unicode="v" horiz-adv-x="521" 
d="M222 -6l-152 380q-13 33 -29 45.5t-51 18.5v24h271v-24q-33 -4 -46.5 -10.5t-13.5 -21.5q0 -8 4 -20l103 -274h4l87 224q12 34 12 51q0 22 -15.5 34t-51.5 17v24h193v-24q-56 -6 -83 -71l-154 -373h-78z" />
    <glyph glyph-name="w" unicode="w" horiz-adv-x="779" 
d="M384 321l-18 53q-13 35 -27 47.5t-44 16.5v24h249v-24q-31 -3 -43.5 -9.5t-12.5 -21.5q0 -4 4 -22l85 -260h5l72 212q11 33 11 52q0 21 -15 32.5t-49 16.5v24h192v-24q-66 -9 -89 -77l-128 -367h-80l-94 273l-109 -273h-79l-144 380q-13 33 -28.5 46t-49.5 18v24h254v-24
q-50 -4 -50 -29q0 -6 6 -24l96 -263h5z" />
    <glyph glyph-name="x" unicode="x" horiz-adv-x="522" 
d="M293 283l52 67q33 43 28 61.5t-48 26.5v24h194v-24q-37 -7 -62 -24t-59 -58l-81 -97l120 -166q28 -37 45 -50t49 -18v-25h-260v25q40 4 46.5 16.5t-12.5 38.5l-71 108l-61 -77q-33 -45 -27.5 -62t52.5 -24v-25h-200v25q39 7 64.5 23t57.5 55l90 111l-116 157
q-29 38 -45.5 50.5t-48.5 16.5v24h256v-24q-35 -4 -41 -16.5t12 -38.5z" />
    <glyph glyph-name="y" unicode="y" horiz-adv-x="515" 
d="M251 -8l-179 382q-16 33 -32 45.5t-51 18.5v24h272v-24q-41 -4 -52 -16t-1 -36l107 -253l85 207q20 47 7.5 69t-63.5 29v24h194v-24q-56 -6 -86 -75l-175 -408q-37 -87 -76.5 -122.5t-86.5 -35.5q-44 0 -69.5 22t-25.5 58q0 27 18.5 48t49.5 21q29 0 47 -19.5t18 -47.5
q0 -25 -14 -39q29 4 53.5 34t55.5 106z" />
    <glyph glyph-name="z" unicode="z" horiz-adv-x="489" 
d="M32 0l-2 26l286 402h-84q-51 0 -82.5 -29.5t-71.5 -109.5l-28 2l10 171h403l2 -25l-286 -402h90q54 0 86 32t74 115l29 -2l-11 -180h-415z" />
    <glyph glyph-name="braceleft" unicode="{" horiz-adv-x="408" 
d="M434 -155q-140 1 -206 47t-66 140q0 25 9 74.5t9 65.5q0 53 -34 79t-121 32v34q88 7 121.5 31.5t33.5 75.5q0 17 -9 66t-9 74q0 88 66 131.5t206 47.5v-26q-83 -6 -108 -39t-25 -109q0 -12 2.5 -49.5t2.5 -59.5q0 -73 -42.5 -105.5t-151.5 -49.5v-10q107 -15 150.5 -49.5
t43.5 -108.5q0 -22 -2.5 -61.5t-2.5 -51.5q0 -79 25 -113.5t108 -40.5v-25z" />
    <glyph glyph-name="bar" unicode="|" horiz-adv-x="298" 
d="M126 -209v934h46v-934h-46z" />
    <glyph glyph-name="braceright" unicode="}" horiz-adv-x="408" 
d="M-25 -155v25q83 6 108 40.5t25 113.5q0 12 -3 51.5t-3 61.5q0 74 44 108.5t151 49.5v10q-110 17 -152.5 49.5t-42.5 105.5q0 22 3 59.5t3 49.5q0 76 -25 109t-108 39v26q140 -4 205.5 -47.5t65.5 -131.5q0 -25 -8.5 -74t-8.5 -66q0 -52 33 -76t121 -31v-34
q-87 -6 -120.5 -32t-33.5 -79q0 -16 8.5 -65t8.5 -75q0 -94 -65.5 -140t-205.5 -47z" />
    <glyph glyph-name="asciitilde" unicode="~" horiz-adv-x="404" 
d="M40 261q7 72 30 106t70 34q26 0 79 -24.5t70 -24.5q15 0 24.5 11.5t17.5 42.5h34q-7 -72 -30 -106t-70 -34q-27 0 -79 24.5t-69 24.5q-15 0 -25 -11.5t-18 -42.5h-34z" />
    <glyph glyph-name="uni00A0" unicode="&#xa0;" horiz-adv-x="197" 
 />
    <glyph glyph-name="exclamdown" unicode="&#xa1;" horiz-adv-x="292" 
d="M145 546q-34 0 -58 23t-24 56t24.5 56.5t58.5 23.5t58 -23t24 -56t-24.5 -56.5t-58.5 -23.5zM145 -16q-37 0 -58 25t-21 70q0 39 28 181t37 222h29q9 -79 36.5 -221.5t27.5 -181.5q0 -45 -20.5 -70t-58.5 -25z" />
    <glyph glyph-name="cent" unicode="&#xa2;" horiz-adv-x="549" 
d="M286 -88v81q-106 5 -167.5 67.5t-61.5 164.5t64 168t165 75v69h40v-68q86 -3 138 -42t52 -85q0 -31 -18 -52t-48 -21q-34 0 -52.5 18t-18.5 48q0 42 37 61q-11 17 -35.5 30.5t-55.5 14.5v-398q7 -1 22 -1q83 0 150 86l19 -15q-74 -111 -190 -120v-81h-40zM199 236
q0 -147 90 -184v384q-90 -26 -90 -200z" />
    <glyph glyph-name="sterling" unicode="&#xa3;" horiz-adv-x="618" 
d="M474 347v-35h-150q6 -21 6 -45q0 -85 -87 -134l44.5 -10t50.5 -10.5t48.5 -7t56.5 -3.5q51 0 76.5 22t34.5 79l31 -2q1 -104 -40 -160t-114 -56q-98 0 -216 110q-17 -51 -45.5 -81t-65.5 -30q-32 0 -50 18t-18 46q0 39 37.5 66t96.5 27q10 0 32 -2q9 21 9 47
q0 46 -42 126h-114l1 35h95q-27 58 -27 108q0 89 65.5 146t179.5 57q88 0 143 -39t55 -97q0 -34 -20 -58t-53 -24q-37 0 -59 20t-22 57q0 48 46 72q-34 38 -90 38q-46 0 -75.5 -31.5t-29.5 -91.5q0 -27 7 -52t22.5 -59.5t19.5 -45.5h161z" />
    <glyph glyph-name="yen" unicode="&#xa5;" horiz-adv-x="679" 
d="M71 297v33h161l-121 218q-17 33 -38 47t-64 22v26h326v-27q-60 -3 -72.5 -20.5t8.5 -50.5l115 -221l92 168q35 64 26 88.5t-69 36.5v26h222v-26q-43 -7 -70 -32t-61 -87l-94 -168h166v-33h-184l-7 -13v-69h191v-34h-191v-101q0 -27 18.5 -39t79.5 -14v-27h-342v27
q61 2 80 14t19 39v101h-191v34h191v61l-12 21h-179z" />
    <glyph glyph-name="brokenbar" unicode="&#xa6;" horiz-adv-x="298" 
d="M172 327h-46v398h46v-398zM126 189h46v-398h-46v398z" />
    <glyph glyph-name="section" unicode="&#xa7;" horiz-adv-x="574" 
d="M66 232q0 95 118 138v3q-99 44 -99 124q0 73 59.5 117t154.5 44q85 0 140 -30t55 -79q0 -28 -18 -47.5t-45 -19.5q-29 0 -48.5 19.5t-19.5 45.5q0 34 26 50q-31 29 -94 29q-49 0 -78 -22t-29 -56q0 -36 31.5 -55.5t120.5 -47.5q92 -28 132 -60.5t40 -92.5
q0 -92 -109 -136v-4q51 -23 74.5 -51.5t23.5 -74.5q0 -76 -57 -121.5t-161 -45.5q-103 0 -162.5 32.5t-59.5 88.5q0 29 18.5 50.5t49.5 21.5q32 0 50.5 -19.5t18.5 -47.5q0 -38 -33 -59q35 -35 125 -35q54 0 83 23.5t29 58.5q0 37 -33 59.5t-125 50.5t-135 59.5t-43 89.5z
M361 169q58 24 58 72q0 33 -28.5 52.5t-99.5 43.5q-3 1 -33 10t-34 11q-66 -23 -66 -74q0 -35 36 -55t125 -47q32 -9 42 -13z" />
    <glyph glyph-name="dieresis" unicode="&#xa8;" horiz-adv-x="396" 
d="M299 533q-32 0 -52 20.5t-20 51.5t20 52.5t52 21.5t52.5 -21t20.5 -52t-20.5 -52t-52.5 -21zM96 533q-32 0 -52 20.5t-20 51.5t20 52.5t52 21.5t52.5 -21t20.5 -52t-20.5 -52t-52.5 -21z" />
    <glyph glyph-name="copyright" unicode="&#xa9;" horiz-adv-x="811" 
d="M405 -33q-159 0 -266 106.5t-107 265.5q0 158 107 265t266 107t266.5 -107t107.5 -265t-107 -265t-267 -107zM405 -4q145 0 242 99t97 244t-97 243.5t-242 98.5t-242 -98.5t-97 -243.5t97 -244t242 -99zM409 145q-88 0 -139.5 51.5t-51.5 140.5q0 90 58 146t143 56
q55 0 96 -27l21 28h19v-144h-26q-47 118 -114 118q-46 0 -73 -40.5t-27 -122.5q0 -81 33 -125t84 -44q76 0 115 85l23 -11q-48 -111 -161 -111z" />
    <glyph glyph-name="ordfeminine" unicode="&#xaa;" horiz-adv-x="430" 
d="M139 316q-51 0 -78 25.5t-27 62.5q0 55 49 82q32 18 97.5 28t67.5 11v51q0 39 -13 54.5t-43 15.5q-29 0 -48 -12q15 -16 15 -37q0 -24 -14.5 -38t-40.5 -14q-23 0 -37.5 14.5t-14.5 36.5q0 34 41.5 55.5t116.5 21.5q140 0 140 -121v-154q0 -28 11.5 -35.5t42.5 1.5l6 -19
q-46 -28 -83 -28q-35 0 -50.5 12.5t-20.5 41.5h-7q-51 -55 -110 -55zM194 366q31 0 54 31v103q-61 -10 -82.5 -26t-21.5 -53q0 -55 50 -55z" />
    <glyph glyph-name="guillemotleft" unicode="&#xab;" horiz-adv-x="516" 
d="M449 28l-179 158q-26 22 -26 39q0 16 26 38l179 158l22 -16l-115 -180l115 -182zM239 28l-178 158q-27 23 -27 39q0 15 27 38l178 158l23 -16l-116 -180l116 -182z" />
    <glyph glyph-name="registered" unicode="&#xae;" horiz-adv-x="454" 
d="M226 334q-81 0 -134.5 54.5t-53.5 134.5q0 81 53 134.5t135 53.5q83 0 136.5 -53.5t53.5 -134.5t-53.5 -135t-136.5 -54zM226 354q74 0 120 48t46 121t-46 120t-120 47q-73 0 -118.5 -47t-45.5 -120t45.5 -121t118.5 -48zM208 534h19q39 0 39 40q0 34 -41 34h-17v-74z
M208 518v-59q0 -15 24 -15v-15h-97v15q28 0 28 14v138q0 12 -28 13v16h99q80 0 80 -48q0 -39 -56 -48v-4q27 -3 38 -11.5t13 -25.5l3 -25q1 -19 26 -19v-16q-12 -2 -26 -2q-27 0 -37 8.5t-11 29.5l-1 22q-1 19 -9.5 25.5t-28.5 6.5h-17z" />
    <glyph glyph-name="macron" unicode="&#xaf;" horiz-adv-x="328" 
d="M18 554v59h293v-59h-293z" />
    <glyph glyph-name="degree" unicode="&#xb0;" horiz-adv-x="404" 
d="M203 384q-76 0 -121.5 43t-45.5 113q0 69 47 114t120 45q75 0 120 -43t45 -113q0 -69 -46.5 -114t-118.5 -45zM206 416q72 0 72 125q0 126 -78 126q-73 0 -73 -125q0 -126 79 -126z" />
    <glyph glyph-name="plusminus" unicode="&#xb1;" horiz-adv-x="514" 
d="M57 346v44h177v177h48v-177h175v-44h-175v-178h-48v178h-177zM57 43v42h400v-42h-400z" />
    <glyph glyph-name="acute" unicode="&#xb4;" horiz-adv-x="248" 
d="M43 527l44 125q20 61 34.5 82t42.5 21q23 0 39.5 -15.5t16.5 -37.5q0 -19 -11.5 -36.5t-49.5 -58.5l-76 -80h-40z" />
    <glyph glyph-name="paragraph" unicode="&#xb6;" horiz-adv-x="668" 
d="M351 -102v274q-135 5 -216.5 66.5t-81.5 169.5t78.5 172t227.5 64h274v-26q-68 -4 -87 -14.5t-19 -40.5v-665h-44v713h-87v-713h-45z" />
    <glyph glyph-name="periodcentered" unicode="&#xb7;" horiz-adv-x="259" 
d="M129 240q-35 0 -58.5 22.5t-23.5 55.5t24.5 56.5t58.5 23.5t58 -23t24 -56t-24.5 -56t-58.5 -23z" />
    <glyph glyph-name="cedilla" unicode="&#xb8;" horiz-adv-x="296" 
d="M120 -254q-59 0 -106 25l14 25q44 -18 79 -18q56 0 56 47q0 21 -19 34t-52 13q-16 0 -39 -5l-13 22l116 111h42l-75 -69l1 -3q59 -1 89.5 -26.5t30.5 -60.5q0 -42 -33.5 -68.5t-90.5 -26.5z" />
    <glyph glyph-name="ordmasculine" unicode="&#xba;" horiz-adv-x="440" 
d="M221 316q-87 0 -136 47.5t-49 129.5t50.5 131t134.5 49q85 0 134 -47.5t49 -129.5t-50 -131t-133 -49zM223 343q39 0 54.5 35.5t15.5 116.5q0 79 -17.5 114.5t-58.5 35.5q-39 0 -54.5 -35t-15.5 -115q0 -79 17.5 -115.5t58.5 -36.5z" />
    <glyph glyph-name="guillemotright" unicode="&#xbb;" horiz-adv-x="516" 
d="M277 28l-22 16l115 180l-115 181l22 16l179 -158q26 -22 26 -39q0 -16 -26 -38zM68 28l-23 16l116 180l-116 181l23 16l178 -158q27 -23 27 -39q0 -15 -27 -38z" />
    <glyph glyph-name="questiondown" unicode="&#xbf;" horiz-adv-x="528" 
d="M294 546q-34 0 -57.5 23t-23.5 56t24 56t58 23t58 -23t24 -56t-24 -56t-59 -23zM279 -16q-119 0 -181.5 51t-62.5 130q0 154 239 204v109h42l1 -134q-78 -24 -108 -67t-30 -115q0 -73 31 -109.5t86 -36.5q36 0 65 14t40 36q-27 9 -43.5 31.5t-16.5 50.5q0 33 21.5 57.5
t58.5 24.5q38 0 62 -26t24 -64q0 -66 -65 -111t-163 -45z" />
    <glyph glyph-name="Agrave" unicode="&#xc0;" 
d="M454 101l-52 151h-219l-34 -90q-27 -72 -14 -98.5t78 -36.5v-27h-235v27q48 12 74.5 42.5t54.5 102.5l201 519h88l213 -586q15 -39 34.5 -54t72.5 -24v-27h-354v27q68 4 87 20t5 54zM195 284h196l-91 264h-7zM362 751l-76 80q-38 41 -50 58.5t-12 36.5q0 21 17 37t39 16
q29 0 43 -20.5t35 -82.5l44 -125h-40z" />
    <glyph glyph-name="Aacute" unicode="&#xc1;" 
d="M454 101l-52 151h-219l-34 -90q-27 -72 -14 -98.5t78 -36.5v-27h-235v27q48 12 74.5 42.5t54.5 102.5l201 519h88l213 -586q15 -39 34.5 -54t72.5 -24v-27h-354v27q68 4 87 20t5 54zM195 284h196l-91 264h-7zM311 751l44 125q20 61 34.5 82t42.5 21q23 0 39.5 -15.5
t16.5 -37.5q0 -19 -11.5 -36.5t-49.5 -58.5l-76 -80h-40z" />
    <glyph glyph-name="Acircumflex" unicode="&#xc2;" 
d="M454 101l-52 151h-219l-34 -90q-27 -72 -14 -98.5t78 -36.5v-27h-235v27q48 12 74.5 42.5t54.5 102.5l201 519h88l213 -586q15 -39 34.5 -54t72.5 -24v-27h-354v27q68 4 87 20t5 54zM195 284h196l-91 264h-7zM194 748l132 197h46l123 -197h-35l-115 95l-115 -95h-36z" />
    <glyph glyph-name="Atilde" unicode="&#xc3;" 
d="M454 101l-52 151h-219l-34 -90q-27 -72 -14 -98.5t78 -36.5v-27h-235v27q48 12 74.5 42.5t54.5 102.5l201 519h88l213 -586q15 -39 34.5 -54t72.5 -24v-27h-354v27q68 4 87 20t5 54zM195 284h196l-91 264h-7zM189 751q8 73 30.5 106.5t69.5 33.5q27 0 79.5 -24t70.5 -24
q15 0 25.5 11.5t17.5 42.5h34q-7 -72 -30 -106t-70 -34q-26 0 -79 24t-71 24q-15 0 -25 -11.5t-18 -42.5h-34z" />
    <glyph glyph-name="Adieresis" unicode="&#xc4;" 
d="M454 101l-52 151h-219l-34 -90q-27 -72 -14 -98.5t78 -36.5v-27h-235v27q48 12 74.5 42.5t54.5 102.5l201 519h88l213 -586q15 -39 34.5 -54t72.5 -24v-27h-354v27q68 4 87 20t5 54zM195 284h196l-91 264h-7zM447 754q-32 0 -52 20.5t-20 51.5t20 52.5t52 21.5t52.5 -21
t20.5 -52t-20.5 -52t-52.5 -21zM244 754q-32 0 -52 20.5t-20 51.5t20 52.5t52 21.5t52.5 -21t20.5 -52t-20.5 -52t-52.5 -21z" />
    <glyph glyph-name="Aring" unicode="&#xc5;" 
d="M183 252l-34 -90q-27 -72 -14 -98.5t78 -37.5v-26h-235v26q48 12 74.5 43t54.5 103l194 499q-36 10 -56 38t-20 66q0 50 34 81t90 31q57 0 90.5 -30.5t33.5 -80.5q0 -37 -19 -64t-53 -38l208 -569q15 -39 34.5 -54t72.5 -24v-27h-354v27q68 4 87 20t5 54l-52 151h-219z
M391 284l-92 265h-5l-99 -265h196zM350 692q55 0 55 83t-57 83q-54 0 -54 -83t56 -83z" />
    <glyph glyph-name="AE" unicode="&#xc6;" horiz-adv-x="1045" 
d="M243 267l-70 -113q-36 -57 -36 -83q0 -35 63 -46v-25h-234v25q51 11 88 45t81 103l255 400q14 23 14 36q0 17 -23 27t-78 15v27h659l5 -230l-31 -1q-45 113 -85.5 156t-124.5 43h-100v-282h35q58 0 87.5 24t51.5 95h26v-271h-26q-22 71 -51.5 95.5t-87.5 24.5h-35v-300
h94q53 0 89.5 11.5t64.5 41.5t46.5 65t42.5 97l31 -2l-7 -245h-608v27q58 2 77.5 13t19.5 38v189h-233zM476 299v326h-10l-203 -326h213z" />
    <glyph glyph-name="Ccedilla" unicode="&#xc7;" horiz-adv-x="706" 
d="M354 -254q-59 0 -106 25l14 25q44 -18 79 -18q56 0 56 47q0 21 -19 34t-52 13q-16 0 -39 -5l-13 22l98 94q-156 2 -244.5 96.5t-88.5 250.5q0 160 104 262t257 102q97 0 176 -44l37 47h28v-253h-33q-41 107 -93 162.5t-122 55.5q-83 0 -136 -81.5t-53 -230.5
q0 -151 63.5 -232t154.5 -81q142 0 216 154l30 -14q-76 -175 -253 -192l-58 -54l1 -3q59 -1 89.5 -26.5t30.5 -60.5q0 -42 -33.5 -68.5t-90.5 -26.5z" />
    <glyph glyph-name="Egrave" unicode="&#xc8;" 
d="M32 0v27q58 2 77.5 13t19.5 38v522q0 27 -19.5 38t-77.5 13v27h583l5 -230l-31 -1q-45 113 -85.5 156t-124.5 43h-100v-282h35q58 0 87.5 24t51.5 95h26v-271h-26q-22 71 -51.5 95.5t-87.5 24.5h-35v-300h94q53 0 89.5 11.5t64.5 41.5t46.5 65t42.5 97l31 -2l-7 -245
h-608zM372 751l-76 80q-38 41 -50 58.5t-12 36.5q0 21 17 37t39 16q29 0 43 -20.5t35 -82.5l44 -125h-40z" />
    <glyph glyph-name="Eacute" unicode="&#xc9;" 
d="M317 751l44 125q20 61 34.5 82t42.5 21q23 0 39.5 -15.5t16.5 -37.5q0 -19 -11.5 -36.5t-49.5 -58.5l-76 -80h-40zM32 0v27q58 2 77.5 13t19.5 38v522q0 27 -19.5 38t-77.5 13v27h583l5 -230l-31 -1q-45 113 -85.5 156t-124.5 43h-100v-282h35q58 0 87.5 24t51.5 95h26
v-271h-26q-22 71 -51.5 95.5t-87.5 24.5h-35v-300h94q53 0 89.5 11.5t64.5 41.5t46.5 65t42.5 97l31 -2l-7 -245h-608z" />
    <glyph glyph-name="Ecircumflex" unicode="&#xca;" 
d="M192 751l132 197h46l123 -197h-35l-115 95l-115 -95h-36zM32 0v27q58 2 77.5 13t19.5 38v522q0 27 -19.5 38t-77.5 13v27h583l5 -230l-31 -1q-45 113 -85.5 156t-124.5 43h-100v-282h35q58 0 87.5 24t51.5 95h26v-271h-26q-22 71 -51.5 95.5t-87.5 24.5h-35v-300h94
q53 0 89.5 11.5t64.5 41.5t46.5 65t42.5 97l31 -2l-7 -245h-608z" />
    <glyph glyph-name="Edieresis" unicode="&#xcb;" 
d="M459 754q-32 0 -52 20.5t-20 51.5t20 52.5t52 21.5t52.5 -21t20.5 -52t-20.5 -52t-52.5 -21zM256 754q-32 0 -52 20.5t-20 51.5t20 52.5t52 21.5t52.5 -21t20.5 -52t-20.5 -52t-52.5 -21zM32 0v27q58 2 77.5 13t19.5 38v522q0 27 -19.5 38t-77.5 13v27h583l5 -230l-31 -1
q-45 113 -85.5 156t-124.5 43h-100v-282h35q58 0 87.5 24t51.5 95h26v-271h-26q-22 71 -51.5 95.5t-87.5 24.5h-35v-300h94q53 0 89.5 11.5t64.5 41.5t46.5 65t42.5 97l31 -2l-7 -245h-608z" />
    <glyph glyph-name="Igrave" unicode="&#xcc;" horiz-adv-x="428" 
d="M40 0v27q60 2 79.5 13t19.5 38v522q0 27 -20 38t-79 13v27h348v-27q-59 -2 -79 -13t-20 -38v-522q0 -27 19.5 -38t79.5 -13v-27h-348zM232 751l-76 80q-38 41 -50 58.5t-12 36.5q0 21 17 37t39 16q29 0 43 -20.5t35 -82.5l44 -125h-40z" />
    <glyph glyph-name="Iacute" unicode="&#xcd;" horiz-adv-x="428" 
d="M40 0v27q60 2 79.5 13t19.5 38v522q0 27 -20 38t-79 13v27h348v-27q-59 -2 -79 -13t-20 -38v-522q0 -27 19.5 -38t79.5 -13v-27h-348zM175 751l44 125q20 61 34.5 82t42.5 21q23 0 39.5 -15.5t16.5 -37.5q0 -19 -11.5 -36.5t-49.5 -58.5l-76 -80h-40z" />
    <glyph glyph-name="Icircumflex" unicode="&#xce;" horiz-adv-x="428" 
d="M40 0v27q60 2 79.5 13t19.5 38v522q0 27 -20 38t-79 13v27h348v-27q-59 -2 -79 -13t-20 -38v-522q0 -27 19.5 -38t79.5 -13v-27h-348zM63 751l132 197h46l123 -197h-35l-115 95l-115 -95h-36z" />
    <glyph glyph-name="Idieresis" unicode="&#xcf;" horiz-adv-x="428" 
d="M40 0v27q60 2 79.5 13t19.5 38v522q0 27 -20 38t-79 13v27h348v-27q-59 -2 -79 -13t-20 -38v-522q0 -27 19.5 -38t79.5 -13v-27h-348zM315 754q-32 0 -52 20.5t-20 51.5t20 52.5t52 21.5t52.5 -21t20.5 -52t-20.5 -52t-52.5 -21zM112 754q-32 0 -52 20.5t-20 51.5
t20 52.5t52 21.5t52.5 -21t20.5 -52t-20.5 -52t-52.5 -21z" />
    <glyph glyph-name="Eth" unicode="&#xd0;" horiz-adv-x="761" 
d="M32 0v27q58 2 77.5 13t19.5 38v254h-92v41h92v227q0 27 -19.5 38t-77.5 13v27h319q181 0 275.5 -88.5t94.5 -237.5q0 -72 -20 -133.5t-61 -111.5t-111 -78.5t-163 -28.5h-334zM279 31h61q123 0 171 67.5t48 242.5q0 171 -54 238t-170 67h-56v-273h124v-41h-124v-301z" />
    <glyph glyph-name="Ntilde" unicode="&#xd1;" horiz-adv-x="789" 
d="M607 -10l-420 542h-3v-355q0 -76 24.5 -109t96.5 -41v-27h-272v27q67 9 89.5 41.5t22.5 108.5v372q0 97 -112 102v27h229l368 -479h3v302q0 74 -27.5 108t-99.5 42v27h273v-27q-66 -9 -86.5 -41t-20.5 -109v-511h-65zM260 751q8 73 30.5 106.5t69.5 33.5q26 0 79 -24
t71 -24q15 0 25.5 11.5t17.5 42.5h34q-7 -72 -30 -106t-70 -34q-27 0 -80 24t-70 24q-15 0 -25 -11.5t-18 -42.5h-34z" />
    <glyph glyph-name="Ograve" unicode="&#xd2;" horiz-adv-x="756" 
d="M378 -17q-151 0 -244.5 96t-93.5 258q0 160 95.5 258.5t242.5 98.5q151 0 244.5 -96t93.5 -257t-95 -259.5t-243 -98.5zM382 16q87 0 128 75.5t41 247.5q0 169 -44 246t-133 77q-87 0 -128 -76t-41 -247q0 -170 44 -246.5t133 -76.5zM389 751l-76 80q-38 41 -50 58.5
t-12 36.5q0 21 17 37t39 16q29 0 43 -20.5t35 -82.5l44 -125h-40z" />
    <glyph glyph-name="Oacute" unicode="&#xd3;" horiz-adv-x="756" 
d="M339 751l44 125q20 61 34.5 82t42.5 21q23 0 39.5 -15.5t16.5 -37.5q0 -19 -11.5 -36.5t-49.5 -58.5l-76 -80h-40zM378 -17q-151 0 -244.5 96t-93.5 258q0 160 95.5 258.5t242.5 98.5q151 0 244.5 -96t93.5 -257t-95 -259.5t-243 -98.5zM382 16q87 0 128 75.5t41 247.5
q0 169 -44 246t-133 77q-87 0 -128 -76t-41 -247q0 -170 44 -246.5t133 -76.5z" />
    <glyph glyph-name="Ocircumflex" unicode="&#xd4;" horiz-adv-x="756" 
d="M227 751l132 197h46l123 -197h-35l-115 95l-115 -95h-36zM378 -17q-151 0 -244.5 96t-93.5 258q0 160 95.5 258.5t242.5 98.5q151 0 244.5 -96t93.5 -257t-95 -259.5t-243 -98.5zM382 16q87 0 128 75.5t41 247.5q0 169 -44 246t-133 77q-87 0 -128 -76t-41 -247
q0 -170 44 -246.5t133 -76.5z" />
    <glyph glyph-name="Otilde" unicode="&#xd5;" horiz-adv-x="756" 
d="M378 -17q-151 0 -244.5 96t-93.5 258q0 160 95.5 258.5t242.5 98.5q151 0 244.5 -96t93.5 -257t-95 -259.5t-243 -98.5zM382 16q87 0 128 75.5t41 247.5q0 169 -44 246t-133 77q-87 0 -128 -76t-41 -247q0 -170 44 -246.5t133 -76.5zM225 751q8 73 30.5 106.5t69.5 33.5
q27 0 80 -24t70 -24q15 0 25.5 11.5t17.5 42.5h34q-7 -72 -30 -106t-70 -34q-26 0 -79 24t-71 24q-15 0 -25 -11.5t-18 -42.5h-34z" />
    <glyph glyph-name="Odieresis" unicode="&#xd6;" horiz-adv-x="756" 
d="M479 754q-32 0 -52 20.5t-20 51.5t20 52.5t52 21.5t52.5 -21t20.5 -52t-20.5 -52t-52.5 -21zM276 754q-32 0 -52 20.5t-20 51.5t20 52.5t52 21.5t52.5 -21t20.5 -52t-20.5 -52t-52.5 -21zM378 -17q-151 0 -244.5 96t-93.5 258q0 160 95.5 258.5t242.5 98.5
q151 0 244.5 -96t93.5 -257t-95 -259.5t-243 -98.5zM382 16q87 0 128 75.5t41 247.5q0 169 -44 246t-133 77q-87 0 -128 -76t-41 -247q0 -170 44 -246.5t133 -76.5z" />
    <glyph glyph-name="multiply" unicode="&#xd7;" horiz-adv-x="542" 
d="M438 515l33 -33l-167 -167l167 -166l-33 -33l-167 166l-166 -166l-34 33l167 166l-167 167l34 33l166 -167z" />
    <glyph glyph-name="Oslash" unicode="&#xd8;" horiz-adv-x="756" 
d="M378 -17q-124 0 -213 67l-70 -85h-51l92 112q-96 96 -96 260q0 160 95.5 258.5t242.5 98.5q124 0 212 -68l71 87h51l-93 -112q97 -97 97 -260q0 -161 -95 -259.5t-243 -98.5zM374 662q-87 0 -128 -76t-41 -247q0 -97 15 -165l304 372q-42 116 -150 116zM382 16
q87 0 128 75.5t41 247.5q0 98 -15 164l-304 -372q40 -115 150 -115z" />
    <glyph glyph-name="Ugrave" unicode="&#xd9;" horiz-adv-x="784" 
d="M403 -17q-282 0 -282 235v382q0 27 -19.5 38t-77.5 13v27h337v-27q-50 -2 -69.5 -13t-19.5 -38v-385q0 -181 179 -181q75 0 118 43q52 52 52 156v268q0 74 -27.5 108t-99.5 42v27h275v-27q-66 -9 -87 -41.5t-21 -108.5v-280q0 -111 -64.5 -174.5t-193.5 -63.5zM425 751
l-76 80q-38 41 -50 58.5t-12 36.5q0 21 17 37t39 16q29 0 43 -20.5t35 -82.5l44 -125h-40z" />
    <glyph glyph-name="Uacute" unicode="&#xda;" horiz-adv-x="784" 
d="M386 751l44 125q20 61 34.5 82t42.5 21q23 0 39.5 -15.5t16.5 -37.5q0 -19 -11.5 -36.5t-49.5 -58.5l-76 -80h-40zM403 -17q-282 0 -282 235v382q0 27 -19.5 38t-77.5 13v27h337v-27q-50 -2 -69.5 -13t-19.5 -38v-385q0 -181 179 -181q75 0 118 43q52 52 52 156v268
q0 74 -27.5 108t-99.5 42v27h275v-27q-66 -9 -87 -41.5t-21 -108.5v-280q0 -111 -64.5 -174.5t-193.5 -63.5z" />
    <glyph glyph-name="Ucircumflex" unicode="&#xdb;" horiz-adv-x="784" 
d="M283 751l132 197h46l123 -197h-35l-115 95l-115 -95h-36zM403 -17q-282 0 -282 235v382q0 27 -19.5 38t-77.5 13v27h337v-27q-50 -2 -69.5 -13t-19.5 -38v-385q0 -181 179 -181q75 0 118 43q52 52 52 156v268q0 74 -27.5 108t-99.5 42v27h275v-27q-66 -9 -87 -41.5
t-21 -108.5v-280q0 -111 -64.5 -174.5t-193.5 -63.5z" />
    <glyph glyph-name="Udieresis" unicode="&#xdc;" horiz-adv-x="784" 
d="M521 754q-32 0 -52 20.5t-20 51.5t20 52.5t52 21.5t52.5 -21t20.5 -52t-20.5 -52t-52.5 -21zM318 754q-32 0 -52 20.5t-20 51.5t20 52.5t52 21.5t52.5 -21t20.5 -52t-20.5 -52t-52.5 -21zM403 -17q-282 0 -282 235v382q0 27 -19.5 38t-77.5 13v27h337v-27
q-50 -2 -69.5 -13t-19.5 -38v-385q0 -181 179 -181q75 0 118 43q52 52 52 156v268q0 74 -27.5 108t-99.5 42v27h275v-27q-66 -9 -87 -41.5t-21 -108.5v-280q0 -111 -64.5 -174.5t-193.5 -63.5z" />
    <glyph glyph-name="Yacute" unicode="&#xdd;" horiz-adv-x="688" 
d="M399 334l114 198q34 58 25.5 83.5t-70.5 35.5v27h234v-27q-47 -8 -76.5 -34t-69.5 -93l-134 -224v-222q0 -27 19.5 -38t79.5 -13v-27h-348v27q60 2 79.5 13t19.5 38v202l-171 299q-21 35 -42 50t-65 22v27h345v-27q-66 -4 -80.5 -22t8.5 -53zM358 751l44 125
q20 61 34.5 82t42.5 21q23 0 39.5 -15.5t16.5 -37.5q0 -19 -11.5 -36.5t-49.5 -58.5l-76 -80h-40z" />
    <glyph glyph-name="Thorn" unicode="&#xde;" horiz-adv-x="664" 
d="M32 0v27q58 2 77.5 13t19.5 38v522q0 27 -19.5 38t-77.5 13v27h350v-26q-65 -2 -83.5 -12.5t-19.5 -39.5v-58h64q291 0 291 -192q0 -85 -71 -141t-223 -56h-61v-75q0 -29 18.5 -39.5t84.5 -12.5v-26h-350zM279 185h53q83 0 114.5 38t31.5 126q0 79 -32.5 120.5
t-110.5 41.5h-56v-326z" />
    <glyph glyph-name="germandbls" unicode="&#xdf;" horiz-adv-x="635" 
d="M443 -10q-62 0 -106.5 27t-44.5 75q0 25 16.5 43.5t43.5 18.5q26 0 41 -17t15 -41q0 -29 -30 -50q21 -24 65 -24q36 0 56.5 20t20.5 53q0 34 -24.5 59t-76.5 54q-59 32 -85.5 60.5t-26.5 71.5q0 47 56 95q34 29 46.5 56.5t12.5 76.5q0 54 -23.5 85t-68.5 31
q-47 0 -71.5 -34t-24.5 -118v-532h-202v25q42 1 55.5 8.5t13.5 27.5v350h-86v29l86 19v27q0 227 240 227q97 0 151.5 -36.5t54.5 -94.5q0 -38 -20.5 -64.5t-70.5 -55.5q-36 -19 -48.5 -34t-12.5 -36q0 -23 22.5 -42t73.5 -47q60 -34 93 -69.5t33 -89.5q0 -65 -47 -109.5
t-127 -44.5z" />
    <glyph glyph-name="agrave" unicode="&#xe0;" horiz-adv-x="516" 
d="M171 -7q-67 0 -101.5 35t-34.5 83q0 31 16.5 59.5t46.5 45.5q43 23 129 36.5t90 14.5v67q0 55 -18.5 79t-58.5 24q-37 0 -60 -18q20 -25 20 -53q0 -31 -19 -50t-53 -19q-32 0 -51 19t-19 49q0 46 54.5 74t154.5 28q93 0 137.5 -39.5t44.5 -122.5v-209q0 -37 14 -46.5
t57 2.5l8 -20q-59 -38 -109 -38q-45 0 -65.5 16.5t-29.5 55.5h-4q-68 -73 -149 -73zM244 55q43 0 73 43v140q-82 -13 -111.5 -35t-29.5 -71q0 -35 18 -56t50 -21zM255 527l-76 80q-38 41 -50 58.5t-12 36.5q0 21 17 37t39 16q29 0 43 -20.5t35 -82.5l44 -125h-40z" />
    <glyph glyph-name="aacute" unicode="&#xe1;" horiz-adv-x="516" 
d="M171 -7q-67 0 -101.5 35t-34.5 83q0 31 16.5 59.5t46.5 45.5q43 23 129 36.5t90 14.5v67q0 55 -18.5 79t-58.5 24q-37 0 -60 -18q20 -25 20 -53q0 -31 -19 -50t-53 -19q-32 0 -51 19t-19 49q0 46 54.5 74t154.5 28q93 0 137.5 -39.5t44.5 -122.5v-209q0 -37 14 -46.5
t57 2.5l8 -20q-59 -38 -109 -38q-45 0 -65.5 16.5t-29.5 55.5h-4q-68 -73 -149 -73zM244 55q43 0 73 43v140q-82 -13 -111.5 -35t-29.5 -71q0 -35 18 -56t50 -21zM222 527l44 125q20 61 34.5 82t42.5 21q23 0 39.5 -15.5t16.5 -37.5q0 -19 -11.5 -36.5t-49.5 -58.5l-76 -80
h-40z" />
    <glyph glyph-name="acircumflex" unicode="&#xe2;" horiz-adv-x="516" 
d="M171 -7q-67 0 -101.5 35t-34.5 83q0 31 16.5 59.5t46.5 45.5q43 23 129 36.5t90 14.5v67q0 55 -18.5 79t-58.5 24q-37 0 -60 -18q20 -25 20 -53q0 -31 -19 -50t-53 -19q-32 0 -51 19t-19 49q0 46 54.5 74t154.5 28q93 0 137.5 -39.5t44.5 -122.5v-209q0 -37 14 -46.5
t57 2.5l8 -20q-59 -38 -109 -38q-45 0 -65.5 16.5t-29.5 55.5h-4q-68 -73 -149 -73zM244 55q43 0 73 43v140q-82 -13 -111.5 -35t-29.5 -71q0 -35 18 -56t50 -21zM111 527l132 197h46l123 -197h-35l-115 95l-115 -95h-36z" />
    <glyph glyph-name="atilde" unicode="&#xe3;" horiz-adv-x="516" 
d="M171 -7q-67 0 -101.5 35t-34.5 83q0 31 16.5 59.5t46.5 45.5q43 23 129 36.5t90 14.5v67q0 55 -18.5 79t-58.5 24q-37 0 -60 -18q20 -25 20 -53q0 -31 -19 -50t-53 -19q-32 0 -51 19t-19 49q0 46 54.5 74t154.5 28q93 0 137.5 -39.5t44.5 -122.5v-209q0 -37 14 -46.5
t57 2.5l8 -20q-59 -38 -109 -38q-45 0 -65.5 16.5t-29.5 55.5h-4q-68 -73 -149 -73zM244 55q43 0 73 43v140q-82 -13 -111.5 -35t-29.5 -71q0 -35 18 -56t50 -21zM102 527q8 73 30.5 106.5t69.5 33.5q26 0 79.5 -24t70.5 -24q15 0 25.5 11.5t17.5 42.5h34q-7 -72 -30 -106
t-70 -34q-27 0 -80 24t-70 24q-15 0 -25 -11.5t-18 -42.5h-34z" />
    <glyph glyph-name="adieresis" unicode="&#xe4;" horiz-adv-x="516" 
d="M171 -7q-67 0 -101.5 35t-34.5 83q0 31 16.5 59.5t46.5 45.5q43 23 129 36.5t90 14.5v67q0 55 -18.5 79t-58.5 24q-37 0 -60 -18q20 -25 20 -53q0 -31 -19 -50t-53 -19q-32 0 -51 19t-19 49q0 46 54.5 74t154.5 28q93 0 137.5 -39.5t44.5 -122.5v-209q0 -37 14 -46.5
t57 2.5l8 -20q-59 -38 -109 -38q-45 0 -65.5 16.5t-29.5 55.5h-4q-68 -73 -149 -73zM244 55q43 0 73 43v140q-82 -13 -111.5 -35t-29.5 -71q0 -35 18 -56t50 -21zM363 533q-32 0 -52 20.5t-20 51.5t20 52.5t52 21.5t52.5 -21t20.5 -52t-20.5 -52t-52.5 -21zM160 533
q-32 0 -52 20.5t-20 51.5t20 52.5t52 21.5t52.5 -21t20.5 -52t-20.5 -52t-52.5 -21z" />
    <glyph glyph-name="aring" unicode="&#xe5;" horiz-adv-x="516" 
d="M171 -7q-67 0 -101.5 35t-34.5 83q0 31 16.5 59.5t46.5 45.5q43 23 129 36.5t90 14.5v67q0 55 -18.5 79t-58.5 24q-37 0 -60 -18q20 -25 20 -53q0 -31 -19 -50t-53 -19q-32 0 -51 19t-19 49q0 46 54.5 74t154.5 28q93 0 137.5 -39.5t44.5 -122.5v-209q0 -37 14 -46.5
t57 2.5l8 -20q-59 -38 -109 -38q-45 0 -65.5 16.5t-29.5 55.5h-4q-68 -73 -149 -73zM244 55q43 0 73 43v140q-82 -13 -111.5 -35t-29.5 -71q0 -35 18 -56t50 -21zM260 533q-57 0 -90.5 31t-33.5 82q0 50 34 81t90 31q57 0 91 -30.5t34 -81.5t-34 -82t-91 -31zM261 562
q55 0 55 84q0 83 -56 83q-55 0 -55 -83q0 -84 56 -84z" />
    <glyph glyph-name="ae" unicode="&#xe6;" horiz-adv-x="787" 
d="M554 472q101 0 154.5 -65t47.5 -167h-299v-11v-1q0 -87 36.5 -136.5t107.5 -49.5q76 0 136 82l19 -15q-74 -118 -204 -118q-136 0 -192 97h-8q-31 -42 -79.5 -68.5t-102.5 -26.5q-66 0 -100.5 35t-34.5 83q0 31 16.5 59.5t46.5 45.5q43 23 135 36.5t94 14.5v67
q0 103 -87 103q-37 0 -60 -18q20 -25 20 -53q0 -31 -19 -50t-53 -19q-32 0 -51 19t-19 49q0 46 54.5 74t150.5 28q101 0 143 -51q64 56 148 56zM545 441q-79 0 -87 -172l163 1q8 77 -11.5 124t-64.5 47zM244 55q23 0 47 13t36 32v138q-84 -12 -117.5 -35t-33.5 -71
q0 -35 18 -56t50 -21z" />
    <glyph glyph-name="ccedilla" unicode="&#xe7;" horiz-adv-x="486" 
d="M266 -9q-109 0 -172 62.5t-63 170.5q0 113 69 180.5t177 67.5q91 0 137 -35.5t46 -79.5q0 -34 -18.5 -54.5t-50.5 -20.5q-36 0 -55.5 19t-19.5 48q0 19 10 35.5t23 24.5q-19 33 -68 33q-50 0 -79.5 -53.5t-29.5 -150.5q0 -86 36 -140t107 -54q78 0 135 75l19 -15
q-60 -92 -153 -108l-70 -65l1 -3q59 -1 89.5 -26.5t30.5 -60.5q0 -42 -33.5 -68.5t-90.5 -26.5q-59 0 -106 25l14 25q44 -18 79 -18q56 0 56 47q0 21 -19 34t-52 13q-16 0 -39 -5l-13 22l106 102h-3z" />
    <glyph glyph-name="egrave" unicode="&#xe8;" horiz-adv-x="502" 
d="M267 -9q-110 0 -173 62t-63 172q0 112 66 179.5t170 67.5q103 0 156.5 -65t48.5 -167h-301v-11v-1q0 -87 37 -136.5t108 -49.5q76 0 136 82l20 -15q-74 -118 -205 -118zM260 441q-80 0 -88 -172l164 1q8 77 -11.5 124t-64.5 47zM262 527l-76 80q-38 41 -50 58.5t-12 36.5
q0 21 17 37t39 16q29 0 43 -20.5t35 -82.5l44 -125h-40z" />
    <glyph glyph-name="eacute" unicode="&#xe9;" horiz-adv-x="502" 
d="M267 -9q-110 0 -173 62t-63 172q0 112 66 179.5t170 67.5q103 0 156.5 -65t48.5 -167h-301v-11v-1q0 -87 37 -136.5t108 -49.5q76 0 136 82l20 -15q-74 -118 -205 -118zM260 441q-80 0 -88 -172l164 1q8 77 -11.5 124t-64.5 47zM223 527l44 125q20 61 34.5 82t42.5 21
q23 0 39.5 -15.5t16.5 -37.5q0 -19 -11.5 -36.5t-49.5 -58.5l-76 -80h-40z" />
    <glyph glyph-name="ecircumflex" unicode="&#xea;" horiz-adv-x="502" 
d="M267 -9q-110 0 -173 62t-63 172q0 112 66 179.5t170 67.5q103 0 156.5 -65t48.5 -167h-301v-11v-1q0 -87 37 -136.5t108 -49.5q76 0 136 82l20 -15q-74 -118 -205 -118zM260 441q-80 0 -88 -172l164 1q8 77 -11.5 124t-64.5 47zM112 527l132 197h46l123 -197h-35l-115 95
l-115 -95h-36z" />
    <glyph glyph-name="edieresis" unicode="&#xeb;" horiz-adv-x="502" 
d="M267 -9q-110 0 -173 62t-63 172q0 112 66 179.5t170 67.5q103 0 156.5 -65t48.5 -167h-301v-11v-1q0 -87 37 -136.5t108 -49.5q76 0 136 82l20 -15q-74 -118 -205 -118zM260 441q-80 0 -88 -172l164 1q8 77 -11.5 124t-64.5 47zM364 533q-32 0 -52 20.5t-20 51.5t20 52.5
t52 21.5t52.5 -21t20.5 -52t-20.5 -52t-52.5 -21zM161 533q-32 0 -52 20.5t-20 51.5t20 52.5t52 21.5t52.5 -21t20.5 -52t-20.5 -52t-52.5 -21z" />
    <glyph glyph-name="igrave" unicode="&#xec;" horiz-adv-x="317" 
d="M23 0v25q43 1 57.5 8.5t14.5 27.5v320q0 24 -15.5 36t-56.5 13v25l205 9v-403q0 -20 13 -27.5t55 -8.5v-25h-273zM151 527l-76 80q-38 41 -50 58.5t-12 36.5q0 21 17 37t39 16q29 0 43 -20.5t35 -82.5l44 -125h-40z" />
    <glyph glyph-name="iacute" unicode="&#xed;" horiz-adv-x="317" 
d="M102 527l44 125q20 61 34.5 82t42.5 21q23 0 39.5 -15.5t16.5 -37.5q0 -19 -11.5 -36.5t-49.5 -58.5l-76 -80h-40zM23 0v25q43 1 57.5 8.5t14.5 27.5v320q0 24 -15.5 36t-56.5 13v25l205 9v-403q0 -20 13 -27.5t55 -8.5v-25h-273z" />
    <glyph glyph-name="icircumflex" unicode="&#xee;" horiz-adv-x="317" 
d="M-3 527l132 197h46l123 -197h-35l-115 95l-115 -95h-36zM23 0v25q43 1 57.5 8.5t14.5 27.5v320q0 24 -15.5 36t-56.5 13v25l205 9v-403q0 -20 13 -27.5t55 -8.5v-25h-273z" />
    <glyph glyph-name="idieresis" unicode="&#xef;" horiz-adv-x="317" 
d="M250 533q-32 0 -52 20.5t-20 51.5t20 52.5t52 21.5t52.5 -21t20.5 -52t-20.5 -52t-52.5 -21zM47 533q-32 0 -52 20.5t-20 51.5t20 52.5t52 21.5t52.5 -21t20.5 -52t-20.5 -52t-52.5 -21zM23 0v25q43 1 57.5 8.5t14.5 27.5v320q0 24 -15.5 36t-56.5 13v25l205 9v-403
q0 -20 13 -27.5t55 -8.5v-25h-273z" />
    <glyph glyph-name="eth" unicode="&#xf0;" horiz-adv-x="546" 
d="M461 648l-89 -40q143 -110 143 -298q0 -154 -63 -236t-189 -82q-102 0 -166.5 64t-64.5 171q0 106 64.5 174.5t159.5 68.5q73 0 108 -54l5 3q-17 92 -73 155l-126 -56l-14 33l113 50q-50 45 -132 81l10 27q113 -27 191 -77l109 49zM279 23q93 0 93 227q0 190 -95 190
q-49 0 -77 -54.5t-28 -154.5q0 -96 26.5 -152t80.5 -56z" />
    <glyph glyph-name="ntilde" unicode="&#xf1;" horiz-adv-x="599" 
d="M25 0v25q42 1 55.5 8.5t13.5 27.5v320q0 25 -14.5 36.5t-54.5 12.5v25l200 9v-88q81 91 175 91q122 0 122 -145v-261q0 -20 13.5 -27.5t55.5 -8.5v-25h-257v25q30 1 42.5 9t12.5 27v243q0 47 -16.5 69t-53.5 22q-47 0 -92 -47v-287q0 -19 12 -27t42 -9v-25h-256zM137 527
q8 73 30.5 106.5t69.5 33.5q27 0 80 -24t70 -24q15 0 25.5 11.5t17.5 42.5h34q-7 -72 -30 -106t-70 -34q-26 0 -79.5 24t-70.5 24q-15 0 -25 -11.5t-18 -42.5h-34z" />
    <glyph glyph-name="ograve" unicode="&#xf2;" horiz-adv-x="544" 
d="M273 -9q-114 0 -178 64t-64 175q0 110 66 176t176 66q112 0 176.5 -64t64.5 -174t-66 -176.5t-175 -66.5zM277 22q51 0 72.5 51t21.5 159q0 209 -103 209q-52 0 -73.5 -50t-21.5 -159q0 -210 104 -210zM268 527l-76 80q-38 41 -50 58.5t-12 36.5q0 21 17 37t39 16
q29 0 43 -20.5t35 -82.5l44 -125h-40z" />
    <glyph glyph-name="oacute" unicode="&#xf3;" horiz-adv-x="544" 
d="M234 527l44 125q20 61 34.5 82t42.5 21q23 0 39.5 -15.5t16.5 -37.5q0 -19 -11.5 -36.5t-49.5 -58.5l-76 -80h-40zM273 -9q-114 0 -178 64t-64 175q0 110 66 176t176 66q112 0 176.5 -64t64.5 -174t-66 -176.5t-175 -66.5zM277 22q51 0 72.5 51t21.5 159q0 209 -103 209
q-52 0 -73.5 -50t-21.5 -159q0 -210 104 -210z" />
    <glyph glyph-name="ocircumflex" unicode="&#xf4;" horiz-adv-x="544" 
d="M123 527l132 197h46l123 -197h-35l-115 95l-115 -95h-36zM273 -9q-114 0 -178 64t-64 175q0 110 66 176t176 66q112 0 176.5 -64t64.5 -174t-66 -176.5t-175 -66.5zM277 22q51 0 72.5 51t21.5 159q0 209 -103 209q-52 0 -73.5 -50t-21.5 -159q0 -210 104 -210z" />
    <glyph glyph-name="otilde" unicode="&#xf5;" horiz-adv-x="544" 
d="M273 -9q-114 0 -178 64t-64 175q0 110 66 176t176 66q112 0 176.5 -64t64.5 -174t-66 -176.5t-175 -66.5zM277 22q51 0 72.5 51t21.5 159q0 209 -103 209q-52 0 -73.5 -50t-21.5 -159q0 -210 104 -210zM110 527q8 73 30.5 106.5t69.5 33.5q27 0 79.5 -24t70.5 -24
q15 0 25.5 11.5t17.5 42.5h34q-7 -72 -30 -106t-70 -34q-27 0 -80 24t-70 24q-15 0 -25 -11.5t-18 -42.5h-34z" />
    <glyph glyph-name="odieresis" unicode="&#xf6;" horiz-adv-x="544" 
d="M372 533q-32 0 -52 20.5t-20 51.5t20 52.5t52 21.5t52.5 -21t20.5 -52t-20.5 -52t-52.5 -21zM169 533q-32 0 -52 20.5t-20 51.5t20 52.5t52 21.5t52.5 -21t20.5 -52t-20.5 -52t-52.5 -21zM273 -9q-114 0 -178 64t-64 175q0 110 66 176t176 66q112 0 176.5 -64t64.5 -174
t-66 -176.5t-175 -66.5zM277 22q51 0 72.5 51t21.5 159q0 209 -103 209q-52 0 -73.5 -50t-21.5 -159q0 -210 104 -210z" />
    <glyph glyph-name="divide" unicode="&#xf7;" horiz-adv-x="581" 
d="M53 295v45h475v-45h-475zM290 407q-29 0 -49 19.5t-20 47.5t20.5 47.5t48.5 19.5q29 0 49 -19.5t20 -47.5t-20.5 -47.5t-48.5 -19.5zM290 94q-29 0 -49 19.5t-20 47.5t20.5 47.5t48.5 19.5q29 0 49 -19.5t20 -47.5t-20.5 -47.5t-48.5 -19.5z" />
    <glyph glyph-name="oslash" unicode="&#xf8;" horiz-adv-x="544" 
d="M82 -25h-46l63 76q-68 65 -68 179q0 110 66 176t176 66q85 0 144 -39l45 54h46l-63 -76q69 -64 69 -177q0 -110 -66 -176.5t-175 -66.5q-88 0 -147 38zM173 232q0 -46 5 -88l179 216q-24 81 -89 81q-52 0 -73.5 -50t-21.5 -159zM277 22q51 0 72.5 51t21.5 159q0 50 -6 87
l-178 -217q24 -80 90 -80z" />
    <glyph glyph-name="ugrave" unicode="&#xf9;" horiz-adv-x="589" 
d="M216 -8q-63 0 -98.5 38t-35.5 109v249q0 24 -14.5 35.5t-55.5 12.5v24l203 5v-306q0 -93 74 -93q45 0 86 44v278q0 24 -15 35t-55 12v25l203 5v-402q0 -21 13.5 -29t55.5 -9v-25h-200v82q-71 -90 -161 -90zM291 527l-76 80q-38 41 -50 58.5t-12 36.5q0 21 17 37t39 16
q29 0 43 -20.5t35 -82.5l44 -125h-40z" />
    <glyph glyph-name="uacute" unicode="&#xfa;" horiz-adv-x="589" 
d="M227 527l44 125q20 61 34.5 82t42.5 21q23 0 39.5 -15.5t16.5 -37.5q0 -19 -11.5 -36.5t-49.5 -58.5l-76 -80h-40zM216 -8q-63 0 -98.5 38t-35.5 109v249q0 24 -14.5 35.5t-55.5 12.5v24l203 5v-306q0 -93 74 -93q45 0 86 44v278q0 24 -15 35t-55 12v25l203 5v-402
q0 -21 13.5 -29t55.5 -9v-25h-200v82q-71 -90 -161 -90z" />
    <glyph glyph-name="ucircumflex" unicode="&#xfb;" horiz-adv-x="589" 
d="M130 527l132 197h46l123 -197h-35l-115 95l-115 -95h-36zM216 -8q-63 0 -98.5 38t-35.5 109v249q0 24 -14.5 35.5t-55.5 12.5v24l203 5v-306q0 -93 74 -93q45 0 86 44v278q0 24 -15 35t-55 12v25l203 5v-402q0 -21 13.5 -29t55.5 -9v-25h-200v82q-71 -90 -161 -90z" />
    <glyph glyph-name="udieresis" unicode="&#xfc;" horiz-adv-x="589" 
d="M380 533q-32 0 -52 20.5t-20 51.5t20 52.5t52 21.5t52.5 -21t20.5 -52t-20.5 -52t-52.5 -21zM177 533q-32 0 -52 20.5t-20 51.5t20 52.5t52 21.5t52.5 -21t20.5 -52t-20.5 -52t-52.5 -21zM216 -8q-63 0 -98.5 38t-35.5 109v249q0 24 -14.5 35.5t-55.5 12.5v24l203 5v-306
q0 -93 74 -93q45 0 86 44v278q0 24 -15 35t-55 12v25l203 5v-402q0 -21 13.5 -29t55.5 -9v-25h-200v82q-71 -90 -161 -90z" />
    <glyph glyph-name="yacute" unicode="&#xfd;" horiz-adv-x="515" 
d="M251 -8l-179 382q-16 33 -32 45.5t-51 18.5v24h272v-24q-41 -4 -52 -16t-1 -36l107 -253l85 207q20 47 7.5 69t-63.5 29v24h194v-24q-56 -6 -86 -75l-175 -408q-37 -87 -76.5 -122.5t-86.5 -35.5q-44 0 -69.5 22t-25.5 58q0 27 18.5 48t49.5 21q29 0 47 -19.5t18 -47.5
q0 -25 -14 -39q29 4 53.5 34t55.5 106zM278 527l44 125q20 61 34.5 82t42.5 21q23 0 39.5 -15.5t16.5 -37.5q0 -19 -11.5 -36.5t-49.5 -58.5l-76 -80h-40z" />
    <glyph glyph-name="thorn" unicode="&#xfe;" horiz-adv-x="564" 
d="M201 707v-303q74 66 146 66q88 0 136.5 -63t48.5 -169q0 -105 -57 -175t-155 -70q-64 0 -119 25v-147q0 -20 19 -27.5t75 -8.5v-25h-295v25q42 1 55.5 8.5t13.5 27.5v752q0 25 -15 36.5t-59 12.5v25zM295 24q96 0 96 208q0 82 -26.5 131t-77.5 49q-41 0 -86 -36v-285
q29 -67 94 -67z" />
    <glyph glyph-name="ydieresis" unicode="&#xff;" horiz-adv-x="515" 
d="M251 -8l-179 382q-16 33 -32 45.5t-51 18.5v24h272v-24q-41 -4 -52 -16t-1 -36l107 -253l85 207q20 47 7.5 69t-63.5 29v24h194v-24q-56 -6 -86 -75l-175 -408q-37 -87 -76.5 -122.5t-86.5 -35.5q-44 0 -69.5 22t-25.5 58q0 27 18.5 48t49.5 21q29 0 47 -19.5t18 -47.5
q0 -25 -14 -39q29 4 53.5 34t55.5 106zM382 533q-32 0 -52 20.5t-20 51.5t20 52.5t52 21.5t52.5 -21t20.5 -52t-20.5 -52t-52.5 -21zM179 533q-32 0 -52 20.5t-20 51.5t20 52.5t52 21.5t52.5 -21t20.5 -52t-20.5 -52t-52.5 -21z" />
    <glyph glyph-name="Amacron" unicode="&#x100;" 
d="M454 101l-52 151h-219l-34 -90q-27 -72 -14 -98.5t78 -36.5v-27h-235v27q48 12 74.5 42.5t54.5 102.5l201 519h88l213 -586q15 -39 34.5 -54t72.5 -24v-27h-354v27q68 4 87 20t5 54zM195 284h196l-91 264h-7zM204 775v59h293v-59h-293z" />
    <glyph glyph-name="amacron" unicode="&#x101;" horiz-adv-x="516" 
d="M171 -7q-67 0 -101.5 35t-34.5 83q0 31 16.5 59.5t46.5 45.5q43 23 129 36.5t90 14.5v67q0 55 -18.5 79t-58.5 24q-37 0 -60 -18q20 -25 20 -53q0 -31 -19 -50t-53 -19q-32 0 -51 19t-19 49q0 46 54.5 74t154.5 28q93 0 137.5 -39.5t44.5 -122.5v-209q0 -37 14 -46.5
t57 2.5l8 -20q-59 -38 -109 -38q-45 0 -65.5 16.5t-29.5 55.5h-4q-68 -73 -149 -73zM244 55q43 0 73 43v140q-82 -13 -111.5 -35t-29.5 -71q0 -35 18 -56t50 -21zM117 554v59h293v-59h-293z" />
    <glyph glyph-name="Abreve" unicode="&#x102;" 
d="M454 101l-52 151h-219l-34 -90q-27 -72 -14 -98.5t78 -36.5v-27h-235v27q48 12 74.5 42.5t54.5 102.5l201 519h88l213 -586q15 -39 34.5 -54t72.5 -24v-27h-354v27q68 4 87 20t5 54zM195 284h196l-91 264h-7zM350 754q-62 0 -100.5 44.5t-42.5 123.5h32q24 -87 110 -87
t109 87h33q-3 -79 -42 -123.5t-99 -44.5z" />
    <glyph glyph-name="abreve" unicode="&#x103;" horiz-adv-x="516" 
d="M171 -7q-67 0 -101.5 35t-34.5 83q0 31 16.5 59.5t46.5 45.5q43 23 129 36.5t90 14.5v67q0 55 -18.5 79t-58.5 24q-37 0 -60 -18q20 -25 20 -53q0 -31 -19 -50t-53 -19q-32 0 -51 19t-19 49q0 46 54.5 74t154.5 28q93 0 137.5 -39.5t44.5 -122.5v-209q0 -37 14 -46.5
t57 2.5l8 -20q-59 -38 -109 -38q-45 0 -65.5 16.5t-29.5 55.5h-4q-68 -73 -149 -73zM244 55q43 0 73 43v140q-82 -13 -111.5 -35t-29.5 -71q0 -35 18 -56t50 -21zM263 533q-62 0 -100.5 44.5t-42.5 123.5h32q24 -87 110 -87t109 87h33q-3 -79 -42 -123.5t-99 -44.5z" />
    <glyph glyph-name="Aogonek" unicode="&#x104;" 
d="M550 -244q-48 0 -77 23.5t-29 64.5q0 37 25.5 69t77.5 69l26 18h-211v27q68 4 87 20t5 54l-52 151h-219l-34 -90q-27 -72 -14 -98.5t78 -36.5v-27h-235v27q48 12 74.5 42.5t54.5 102.5l201 519h88l213 -586q15 -39 34.5 -54t72.5 -24v-27h-104l-21 -23q-56 -63 -56 -117
q0 -59 57 -59q33 0 70 19l11 -23q-55 -41 -123 -41zM195 284h196l-91 264h-7z" />
    <glyph glyph-name="aogonek" unicode="&#x105;" horiz-adv-x="516" 
d="M528 32q-1 -1 -17.5 -14l-31.5 -25.5t-19 -16.5q-69 -57 -69 -115q0 -29 15 -44.5t42 -15.5q35 0 70 19l12 -23q-57 -41 -124 -41q-47 0 -76 23.5t-29 63.5q0 73 122 143l20 13q-12 -3 -25 -3q-43 1 -64.5 17.5t-29.5 52.5h-4q-68 -73 -149 -73q-67 0 -101.5 35t-34.5 83
q0 31 16.5 59.5t46.5 45.5q43 23 129 36.5t90 14.5v67q0 55 -18.5 79t-58.5 24q-37 0 -60 -18q20 -25 20 -53q0 -31 -19 -50t-53 -19q-32 0 -51 19t-19 49q0 46 54.5 74t154.5 28q93 0 137.5 -39.5t44.5 -122.5v-209q0 -37 14 -46.5t57 2.5zM244 55q43 0 73 43v140
q-82 -13 -111.5 -35t-29.5 -71q0 -35 18 -56t50 -21z" />
    <glyph glyph-name="Cacute" unicode="&#x106;" horiz-adv-x="706" 
d="M331 751l44 125q20 61 34.5 82t42.5 21q23 0 39.5 -15.5t16.5 -37.5q0 -19 -11.5 -36.5t-49.5 -58.5l-76 -80h-40zM378 -17q-158 0 -248.5 95t-90.5 252q0 160 104 262t257 102q97 0 176 -44l37 47h28v-253h-33q-41 107 -93 162.5t-122 55.5q-83 0 -136 -81.5t-53 -230.5
q0 -151 63.5 -232t154.5 -81q142 0 216 154l30 -14q-85 -194 -290 -194z" />
    <glyph glyph-name="cacute" unicode="&#x107;" horiz-adv-x="486" 
d="M213 527l44 125q20 61 34.5 82t42.5 21q23 0 39.5 -15.5t16.5 -37.5q0 -19 -11.5 -36.5t-49.5 -58.5l-76 -80h-40zM266 -9q-109 0 -172 62.5t-63 170.5q0 113 69 180.5t177 67.5q91 0 137 -35.5t46 -79.5q0 -34 -18.5 -54.5t-50.5 -20.5q-36 0 -55.5 19t-19.5 48
q0 19 10 35.5t23 24.5q-19 33 -68 33q-50 0 -79.5 -53.5t-29.5 -150.5q0 -86 36 -140t107 -54q78 0 135 75l19 -15q-74 -113 -203 -113z" />
    <glyph glyph-name="Cdotaccent" unicode="&#x10a;" horiz-adv-x="706" 
d="M378 -17q-158 0 -248.5 95t-90.5 252q0 160 104 262t257 102q97 0 176 -44l37 47h28v-253h-33q-41 107 -93 162.5t-122 55.5q-83 0 -136 -81.5t-53 -230.5q0 -151 63.5 -232t154.5 -81q142 0 216 154l30 -14q-85 -194 -290 -194zM383 752q-36 0 -57.5 20.5t-21.5 56.5
q0 37 22 59.5t57 22.5q36 0 57.5 -21.5t21.5 -56.5q0 -37 -21.5 -59t-57.5 -22z" />
    <glyph glyph-name="cdotaccent" unicode="&#x10b;" horiz-adv-x="486" 
d="M266 -9q-109 0 -172 62.5t-63 170.5q0 113 69 180.5t177 67.5q91 0 137 -35.5t46 -79.5q0 -34 -18.5 -54.5t-50.5 -20.5q-36 0 -55.5 19t-19.5 48q0 19 10 35.5t23 24.5q-19 33 -68 33q-50 0 -79.5 -53.5t-29.5 -150.5q0 -86 36 -140t107 -54q78 0 135 75l19 -15
q-74 -113 -203 -113zM269 533q-36 0 -57.5 20.5t-21.5 56.5q0 37 22 59.5t57 22.5q36 0 57.5 -21.5t21.5 -56.5q0 -37 -21.5 -59t-57.5 -22z" />
    <glyph glyph-name="Ccaron" unicode="&#x10c;" horiz-adv-x="706" 
d="M358 746l-123 197h35l114 -96l116 96h35l-131 -197h-46zM378 -17q-158 0 -248.5 95t-90.5 252q0 160 104 262t257 102q97 0 176 -44l37 47h28v-253h-33q-41 107 -93 162.5t-122 55.5q-83 0 -136 -81.5t-53 -230.5q0 -151 63.5 -232t154.5 -81q142 0 216 154l30 -14
q-85 -194 -290 -194z" />
    <glyph glyph-name="ccaron" unicode="&#x10d;" horiz-adv-x="486" 
d="M244 527l-123 197h35l114 -96l116 96h35l-131 -197h-46zM266 -9q-109 0 -172 62.5t-63 170.5q0 113 69 180.5t177 67.5q91 0 137 -35.5t46 -79.5q0 -34 -18.5 -54.5t-50.5 -20.5q-36 0 -55.5 19t-19.5 48q0 19 10 35.5t23 24.5q-19 33 -68 33q-50 0 -79.5 -53.5
t-29.5 -150.5q0 -86 36 -140t107 -54q78 0 135 75l19 -15q-74 -113 -203 -113z" />
    <glyph glyph-name="Dcaron" unicode="&#x10e;" horiz-adv-x="761" 
d="M352 748l-123 197h35l114 -96l116 96h35l-131 -197h-46zM32 0v27q58 2 77.5 13t19.5 38v522q0 27 -19.5 38t-77.5 13v27h319q181 0 275.5 -88.5t94.5 -237.5q0 -72 -20 -133.5t-61 -111.5t-111 -78.5t-163 -28.5h-334zM279 31h61q123 0 171 67.5t48 242.5q0 171 -54 238
t-170 67h-56v-615z" />
    <glyph glyph-name="dcaron" unicode="&#x10f;" horiz-adv-x="571" 
d="M593 538l-11 124q-5 60 -5 66q0 33 16.5 48.5t38.5 15.5t37 -13.5t15 -37.5q0 -27 -17 -70l-45 -133h-29zM231 -8q-93 0 -146.5 64t-53.5 166q0 105 62.5 176.5t169.5 71.5q54 0 98 -19v172q0 25 -15 36.5t-59 12.5v25l207 10v-639q0 -22 15 -33.5t55 -11.5v-22l-201 -6
v59q-54 -62 -132 -62zM286 51q42 0 75 31v307q-30 49 -86 49q-48 0 -75.5 -54t-27.5 -150q0 -80 30.5 -131.5t83.5 -51.5z" />
    <glyph glyph-name="Dcroat" unicode="&#x110;" horiz-adv-x="761" 
d="M32 0v27q58 2 77.5 13t19.5 38v254h-92v41h92v227q0 27 -19.5 38t-77.5 13v27h319q181 0 275.5 -88.5t94.5 -237.5q0 -72 -20 -133.5t-61 -111.5t-111 -78.5t-163 -28.5h-334zM279 31h61q123 0 171 67.5t48 242.5q0 171 -54 238t-170 67h-56v-273h124v-41h-124v-301z" />
    <glyph glyph-name="dcroat" unicode="&#x111;" horiz-adv-x="570" 
d="M231 -8q-93 0 -146.5 64t-53.5 166q0 105 62.5 176.5t169.5 71.5q54 0 98 -19v105h-147v37h147v30q0 25 -15 36.5t-59 12.5v25l207 10v-114h66v-37h-66v-488q0 -22 15 -33.5t55 -11.5v-22l-201 -6v59q-54 -62 -132 -62zM286 51q42 0 75 31v307q-30 49 -86 49
q-48 0 -75.5 -54t-27.5 -150q0 -80 30.5 -131.5t83.5 -51.5z" />
    <glyph glyph-name="Emacron" unicode="&#x112;" 
d="M32 0v27q58 2 77.5 13t19.5 38v522q0 27 -19.5 38t-77.5 13v27h583l5 -230l-31 -1q-45 113 -85.5 156t-124.5 43h-100v-282h35q58 0 87.5 24t51.5 95h26v-271h-26q-22 71 -51.5 95.5t-87.5 24.5h-35v-300h94q53 0 89.5 11.5t64.5 41.5t46.5 65t42.5 97l31 -2l-7 -245
h-608zM209 775v59h293v-59h-293z" />
    <glyph glyph-name="emacron" unicode="&#x113;" horiz-adv-x="502" 
d="M267 -9q-110 0 -173 62t-63 172q0 112 66 179.5t170 67.5q103 0 156.5 -65t48.5 -167h-301v-11v-1q0 -87 37 -136.5t108 -49.5q76 0 136 82l20 -15q-74 -118 -205 -118zM260 441q-80 0 -88 -172l164 1q8 77 -11.5 124t-64.5 47zM119 554v59h293v-59h-293z" />
    <glyph glyph-name="Ebreve" unicode="&#x114;" 
d="M32 0v27q58 2 77.5 13t19.5 38v522q0 27 -19.5 38t-77.5 13v27h583l5 -230l-31 -1q-45 113 -85.5 156t-124.5 43h-100v-282h35q58 0 87.5 24t51.5 95h26v-271h-26q-22 71 -51.5 95.5t-87.5 24.5h-35v-300h94q53 0 89.5 11.5t64.5 41.5t46.5 65t42.5 97l31 -2l-7 -245
h-608zM354 754q-62 0 -100.5 44.5t-42.5 123.5h32q24 -87 110 -87t109 87h33q-3 -79 -42 -123.5t-99 -44.5z" />
    <glyph glyph-name="ebreve" unicode="&#x115;" horiz-adv-x="502" 
d="M267 -9q-110 0 -173 62t-63 172q0 112 66 179.5t170 67.5q103 0 156.5 -65t48.5 -167h-301v-11v-1q0 -87 37 -136.5t108 -49.5q76 0 136 82l20 -15q-74 -118 -205 -118zM260 441q-80 0 -88 -172l164 1q8 77 -11.5 124t-64.5 47zM264 533q-62 0 -100.5 44.5t-42.5 123.5
h32q24 -87 110 -87t109 87h33q-3 -79 -42 -123.5t-99 -44.5z" />
    <glyph glyph-name="Edotaccent" unicode="&#x116;" 
d="M32 0v27q58 2 77.5 13t19.5 38v522q0 27 -19.5 38t-77.5 13v27h583l5 -230l-31 -1q-45 113 -85.5 156t-124.5 43h-100v-282h35q58 0 87.5 24t51.5 95h26v-271h-26q-22 71 -51.5 95.5t-87.5 24.5h-35v-300h94q53 0 89.5 11.5t64.5 41.5t46.5 65t42.5 97l31 -2l-7 -245
h-608zM353 754q-36 0 -57.5 20.5t-21.5 56.5q0 37 22 59.5t57 22.5q36 0 57.5 -21.5t21.5 -56.5q0 -37 -21.5 -59t-57.5 -22z" />
    <glyph glyph-name="edotaccent" unicode="&#x117;" horiz-adv-x="502" 
d="M267 -9q-110 0 -173 62t-63 172q0 112 66 179.5t170 67.5q103 0 156.5 -65t48.5 -167h-301v-11v-1q0 -87 37 -136.5t108 -49.5q76 0 136 82l20 -15q-74 -118 -205 -118zM260 441q-80 0 -88 -172l164 1q8 77 -11.5 124t-64.5 47zM262 533q-36 0 -57.5 20.5t-21.5 56.5
q0 37 22 59.5t57 22.5q36 0 57.5 -21.5t21.5 -56.5q0 -37 -21.5 -59t-57.5 -22z" />
    <glyph glyph-name="Eogonek" unicode="&#x118;" 
d="M32 0v27q58 2 77.5 13t19.5 38v522q0 27 -19.5 38t-77.5 13v27h583l5 -230l-31 -1q-45 113 -85.5 156t-124.5 43h-100v-282h35q58 0 87.5 24t51.5 95h26v-271h-26q-22 71 -51.5 95.5t-87.5 24.5h-35v-300h94q53 0 89.5 11.5t64.5 41.5t46.5 65t42.5 97l31 -2l-7 -245h-72
l-21 -23q-56 -63 -56 -117q0 -59 57 -59q33 0 70 19l11 -23q-55 -41 -123 -41q-48 0 -77 23.5t-29 64.5q0 37 25.5 69t77.5 69l26 18h-497z" />
    <glyph glyph-name="eogonek" unicode="&#x119;" horiz-adv-x="502" 
d="M452 124l20 -15q-20 -32 -49 -61q-7 -6 -38.5 -37t-35.5 -36q-59 -60 -59 -116q0 -28 15.5 -43t42.5 -15q34 0 69 19l12 -23q-57 -41 -124 -41q-47 0 -76 23.5t-29 64.5q0 67 101 136l29 20q-31 -9 -63 -9q-110 0 -173 62t-63 172q0 112 66 179.5t170 67.5
q103 0 156.5 -65t48.5 -167h-301v-11v-1q0 -87 37 -136.5t108 -49.5q76 0 136 82zM260 441q-80 0 -88 -172l164 1q8 77 -11.5 124t-64.5 47z" />
    <glyph glyph-name="Ecaron" unicode="&#x11a;" 
d="M327 748l-123 197h35l114 -96l116 96h35l-131 -197h-46zM32 0v27q58 2 77.5 13t19.5 38v522q0 27 -19.5 38t-77.5 13v27h583l5 -230l-31 -1q-45 113 -85.5 156t-124.5 43h-100v-282h35q58 0 87.5 24t51.5 95h26v-271h-26q-22 71 -51.5 95.5t-87.5 24.5h-35v-300h94
q53 0 89.5 11.5t64.5 41.5t46.5 65t42.5 97l31 -2l-7 -245h-608z" />
    <glyph glyph-name="ecaron" unicode="&#x11b;" horiz-adv-x="502" 
d="M267 -9q-110 0 -173 62t-63 172q0 112 66 179.5t170 67.5q103 0 156.5 -65t48.5 -167h-301v-11v-1q0 -87 37 -136.5t108 -49.5q76 0 136 82l20 -15q-74 -118 -205 -118zM260 441q-80 0 -88 -172l164 1q8 77 -11.5 124t-64.5 47zM238 527l-123 197h35l114 -96l116 96h35
l-131 -197h-46z" />
    <glyph glyph-name="Gbreve" unicode="&#x11e;" horiz-adv-x="739" 
d="M390 -17q-155 0 -252.5 94.5t-97.5 259.5q0 159 103 258t258 99q101 0 175 -38l38 42h29v-234h-31q-42 97 -94.5 147.5t-123.5 50.5q-82 0 -135.5 -81t-53.5 -242t55.5 -242t141.5 -81q71 0 109 31v195q0 26 -23 38.5t-83 14.5v27h321v-27q-42 -2 -56.5 -12.5
t-14.5 -39.5v-192q-119 -68 -265 -68zM387 754q-62 0 -100.5 44.5t-42.5 123.5h32q24 -87 110 -87t109 87h33q-3 -79 -42 -123.5t-99 -44.5z" />
    <glyph glyph-name="gbreve" unicode="&#x11f;" horiz-adv-x="488" 
d="M253 -174q65 0 104.5 25t39.5 67q0 30 -29 44t-105 14h-105q-56 -22 -56 -66q0 -39 38.5 -61.5t112.5 -22.5zM248 187q38 0 53 29.5t15 96.5q0 126 -77 126q-38 0 -52.5 -29t-14.5 -97q0 -66 18.5 -96t57.5 -30zM244 467q51 0 93 -15q42 90 109 90q29 0 45.5 -15.5
t16.5 -39.5q0 -21 -13.5 -35.5t-35.5 -14.5q-19 0 -33.5 14.5t-14.5 39.5q-31 -11 -50 -49q84 -42 84 -127q0 -71 -57 -114t-144 -43q-27 0 -59 5q-57 -19 -57 -45q0 -33 100 -33h73q94 0 139 -30t45 -93q0 -68 -71 -116.5t-187 -48.5q-93 0 -152 28.5t-59 72.5q0 71 115 88
v3q-84 27 -84 91q0 28 25 52.5t73 41.5q-102 38 -102 137q0 71 57 113.5t144 42.5zM249 533q-62 0 -100.5 44.5t-42.5 123.5h32q24 -87 110 -87t109 87h33q-3 -79 -42 -123.5t-99 -44.5z" />
    <glyph glyph-name="Gdotaccent" unicode="&#x120;" horiz-adv-x="739" 
d="M390 -17q-155 0 -252.5 94.5t-97.5 259.5q0 159 103 258t258 99q101 0 175 -38l38 42h29v-234h-31q-42 97 -94.5 147.5t-123.5 50.5q-82 0 -135.5 -81t-53.5 -242t55.5 -242t141.5 -81q71 0 109 31v195q0 26 -23 38.5t-83 14.5v27h321v-27q-42 -2 -56.5 -12.5
t-14.5 -39.5v-192q-119 -68 -265 -68zM387 754q-36 0 -57.5 20.5t-21.5 56.5q0 37 22 59.5t57 22.5q36 0 57.5 -21.5t21.5 -56.5q0 -37 -21.5 -59t-57.5 -22z" />
    <glyph glyph-name="gdotaccent" unicode="&#x121;" horiz-adv-x="488" 
d="M253 -174q65 0 104.5 25t39.5 67q0 30 -29 44t-105 14h-105q-56 -22 -56 -66q0 -39 38.5 -61.5t112.5 -22.5zM248 187q38 0 53 29.5t15 96.5q0 126 -77 126q-38 0 -52.5 -29t-14.5 -97q0 -66 18.5 -96t57.5 -30zM244 467q51 0 93 -15q42 90 109 90q29 0 45.5 -15.5
t16.5 -39.5q0 -21 -13.5 -35.5t-35.5 -14.5q-19 0 -33.5 14.5t-14.5 39.5q-31 -11 -50 -49q84 -42 84 -127q0 -71 -57 -114t-144 -43q-27 0 -59 5q-57 -19 -57 -45q0 -33 100 -33h73q94 0 139 -30t45 -93q0 -68 -71 -116.5t-187 -48.5q-93 0 -152 28.5t-59 72.5q0 71 115 88
v3q-84 27 -84 91q0 28 25 52.5t73 41.5q-102 38 -102 137q0 71 57 113.5t144 42.5zM245 533q-36 0 -57.5 20.5t-21.5 56.5q0 37 22 59.5t57 22.5q36 0 57.5 -21.5t21.5 -56.5q0 -37 -21.5 -59t-57.5 -22z" />
    <glyph glyph-name="Gcommaaccent" unicode="&#x122;" horiz-adv-x="739" 
d="M313 -330l-14 22q89 52 93 110l-4 3q-12 -5 -23 -5q-24 0 -42.5 18t-18.5 47q0 28 20 48.5t49 20.5q36 0 58 -25t22 -67q0 -53 -35.5 -98t-104.5 -74zM390 -17q-155 0 -252.5 94.5t-97.5 259.5q0 159 103 258t258 99q101 0 175 -38l38 42h29v-234h-31q-42 97 -94.5 147.5
t-123.5 50.5q-82 0 -135.5 -81t-53.5 -242t55.5 -242t141.5 -81q71 0 109 31v195q0 26 -23 38.5t-83 14.5v27h321v-27q-42 -2 -56.5 -12.5t-14.5 -39.5v-192q-119 -68 -265 -68z" />
    <glyph glyph-name="gcommaaccent" unicode="&#x123;" horiz-adv-x="488" 
d="M309 800l14 -22q-89 -52 -93 -110l4 -3q12 5 23 5q24 0 42.5 -18t18.5 -47q0 -28 -20 -48.5t-49 -20.5q-36 0 -58 25t-22 67q0 53 35.5 98t104.5 74zM253 -174q65 0 104.5 25t39.5 67q0 30 -29 44t-105 14h-105q-56 -22 -56 -66q0 -39 38.5 -61.5t112.5 -22.5zM248 187
q38 0 53 29.5t15 96.5q0 126 -77 126q-38 0 -52.5 -29t-14.5 -97q0 -66 18.5 -96t57.5 -30zM244 467q51 0 93 -15q42 90 109 90q29 0 45.5 -15.5t16.5 -39.5q0 -21 -13.5 -35.5t-35.5 -14.5q-19 0 -33.5 14.5t-14.5 39.5q-31 -11 -50 -49q84 -42 84 -127q0 -71 -57 -114
t-144 -43q-27 0 -59 5q-57 -19 -57 -45q0 -33 100 -33h73q94 0 139 -30t45 -93q0 -68 -71 -116.5t-187 -48.5q-93 0 -152 28.5t-59 72.5q0 71 115 88v3q-84 27 -84 91q0 28 25 52.5t73 41.5q-102 38 -102 137q0 71 57 113.5t144 42.5z" />
    <glyph glyph-name="Hbar" unicode="&#x126;" horiz-adv-x="823" 
d="M32 0v27q58 2 77.5 13t19.5 37v406h-90v39h90v78q0 27 -19.5 38t-77.5 13v27h337v-27q-51 -2 -70.5 -13t-19.5 -38v-78h264v78q0 27 -19.5 38t-70.5 13v27h338v-27q-59 -2 -78 -13t-19 -38v-78h90v-39h-90v-406q0 -27 19 -37.5t78 -12.5v-27h-338v27q51 2 70.5 12.5
t19.5 37.5v254h-264v-254q0 -27 19.5 -37.5t70.5 -12.5v-27h-337zM279 364h264v119h-264v-119z" />
    <glyph glyph-name="hbar" unicode="&#x127;" horiz-adv-x="592" 
d="M16 0v25q42 1 55.5 8.5t13.5 27.5v495h-66v37h66v30q0 25 -15 36.5t-59 12.5v25l207 10v-114h148v-37h-148v-180q81 91 173 91q124 0 124 -145v-261q0 -20 13.5 -27.5t56.5 -8.5v-25h-257v25q30 1 42 9t12 27v243q0 91 -73 91q-47 0 -91 -47v-287q0 -19 12 -27t42 -9v-25
h-256z" />
    <glyph glyph-name="Imacron" unicode="&#x12a;" horiz-adv-x="428" 
d="M40 0v27q60 2 79.5 13t19.5 38v522q0 27 -20 38t-79 13v27h348v-27q-59 -2 -79 -13t-20 -38v-522q0 -27 19.5 -38t79.5 -13v-27h-348zM68 775v59h293v-59h-293z" />
    <glyph glyph-name="imacron" unicode="&#x12b;" horiz-adv-x="317" 
d="M25 557v59h265v-59h-265zM23 0v25q43 1 57.5 8.5t14.5 27.5v320q0 24 -15.5 36t-56.5 13v25l205 9v-403q0 -20 13 -27.5t55 -8.5v-25h-273z" />
    <glyph glyph-name="Ibreve" unicode="&#x12c;" horiz-adv-x="428" 
d="M40 0v27q60 2 79.5 13t19.5 38v522q0 27 -20 38t-79 13v27h348v-27q-59 -2 -79 -13t-20 -38v-522q0 -27 19.5 -38t79.5 -13v-27h-348zM215 754q-62 0 -100.5 44.5t-42.5 123.5h32q24 -87 110 -87t109 87h33q-3 -79 -42 -123.5t-99 -44.5z" />
    <glyph glyph-name="ibreve" unicode="&#x12d;" horiz-adv-x="317" 
d="M23 0v25q43 1 57.5 8.5t14.5 27.5v320q0 24 -15.5 36t-56.5 13v25l205 9v-403q0 -20 13 -27.5t55 -8.5v-25h-273zM159 533q-62 0 -100.5 44.5t-42.5 123.5h32q24 -87 110 -87t109 87h33q-3 -79 -42 -123.5t-99 -44.5z" />
    <glyph glyph-name="Iogonek" unicode="&#x12e;" horiz-adv-x="428" 
d="M40 0v27q60 2 79.5 13t19.5 38v522q0 27 -20 38t-79 13v27h348v-27q-59 -2 -79 -13t-20 -38v-522q0 -27 19.5 -38t79.5 -13v-27h-134l-21 -23q-56 -63 -56 -117q0 -59 57 -59q33 0 70 19l11 -23q-55 -41 -123 -41q-48 0 -77 23.5t-29 64.5q0 37 25.5 69t77.5 69l26 18
h-175z" />
    <glyph glyph-name="iogonek" unicode="&#x12f;" horiz-adv-x="317" 
d="M25 0v25q42 1 57 8.5t15 27.5v320q0 24 -15.5 36t-56.5 13v25l205 9v-403q0 -20 13.5 -27.5t55.5 -8.5v-25h-91l-21 -23q-56 -63 -56 -117q0 -59 57 -59q33 0 70 19l11 -23q-55 -41 -123 -41q-48 0 -77 23.5t-29 64.5q0 37 25.5 69t77.5 69l26 18h-144zM161 543
q-36 0 -57.5 21t-21.5 57q0 37 22 59t57 22q36 0 57.5 -21t21.5 -57q0 -37 -21.5 -59t-57.5 -22z" />
    <glyph glyph-name="Idotaccent" unicode="&#x130;" horiz-adv-x="428" 
d="M40 0v27q60 2 79.5 13t19.5 38v522q0 27 -20 38t-79 13v27h348v-27q-59 -2 -79 -13t-20 -38v-522q0 -27 19.5 -38t79.5 -13v-27h-348zM213 754q-36 0 -57.5 20.5t-21.5 56.5q0 37 22 59.5t57 22.5q36 0 57.5 -21.5t21.5 -56.5q0 -37 -21.5 -59t-57.5 -22z" />
    <glyph glyph-name="dotlessi" unicode="&#x131;" horiz-adv-x="317" 
d="M23 0v25q43 1 57.5 8.5t14.5 27.5v320q0 24 -15.5 36t-56.5 13v25l205 9v-403q0 -20 13 -27.5t55 -8.5v-25h-273z" />
    <glyph glyph-name="Kcommaaccent" unicode="&#x136;" horiz-adv-x="757" 
d="M317 -330l-14 22q89 52 93 110l-4 3q-12 -5 -23 -5q-24 0 -42.5 18t-18.5 47q0 28 20 48.5t49 20.5q36 0 58 -25t22 -67q0 -53 -35.5 -98t-104.5 -74zM276 316l211 222q96 101 -24 114v26h274v-27q-62 -11 -106 -39.5t-119 -104.5l-82 -82l208 -298q38 -56 61 -75t67 -25
v-27h-323v26q50 4 58.5 21t-18.5 57l-152 221l-55 -56v-192q0 -28 16.5 -38t64.5 -12v-27h-329v27q58 2 77.5 13t19.5 37v523q0 27 -19.5 38t-77.5 13v27h338v-27q-51 -2 -70.5 -13t-19.5 -38v-284z" />
    <glyph glyph-name="kcommaaccent" unicode="&#x137;" horiz-adv-x="566" 
d="M218 180v-120q0 -35 49 -36v-24h-251v25q42 1 55.5 8.5t13.5 27.5v562q0 25 -15 36.5t-59 12.5v25l207 10v-483l131 134q58 61 -35 80v24h230v-24q-44 -7 -74 -25t-72 -59l-51 -48l148 -224q23 -34 37.5 -44t46.5 -13v-25h-254v24q33 2 39.5 13.5t-9.5 37.5l-94 147z
M218 -330l-14 22q89 52 93 110l-4 3q-12 -5 -23 -5q-24 0 -42.5 18t-18.5 47q0 28 20 48.5t49 20.5q36 0 58 -25t22 -67q0 -53 -35.5 -98t-104.5 -74z" />
    <glyph glyph-name="Lacute" unicode="&#x139;" horiz-adv-x="646" 
d="M196 751l44 125q20 61 34.5 82t42.5 21q23 0 39.5 -15.5t16.5 -37.5q0 -19 -11.5 -36.5t-49.5 -58.5l-76 -80h-40zM28 0v27q58 2 77.5 13t19.5 38v522q0 27 -19.5 38t-77.5 13v27h344v-27q-59 -2 -77.5 -13t-18.5 -38v-568h56q71 0 116 24t73.5 68.5t63.5 131.5l32 -2
l-8 -254h-581z" />
    <glyph glyph-name="lacute" unicode="&#x13a;" horiz-adv-x="307" 
d="M108 759l44 125q20 61 34.5 82t42.5 21q23 0 39.5 -15.5t16.5 -37.5q0 -19 -11.5 -36.5t-49.5 -58.5l-76 -80h-40zM20 0v25q42 1 55.5 8.5t13.5 27.5v562q0 25 -15 36.5t-59 12.5v25l207 10v-646q0 -20 13.5 -27.5t55.5 -8.5v-25h-271z" />
    <glyph glyph-name="Lcommaaccent" unicode="&#x13b;" horiz-adv-x="646" 
d="M265 -330l-14 22q89 52 93 110l-4 3q-12 -5 -23 -5q-24 0 -42.5 18t-18.5 47q0 28 20 48.5t49 20.5q36 0 58 -25t22 -67q0 -53 -35.5 -98t-104.5 -74zM28 0v27q58 2 77.5 13t19.5 38v522q0 27 -19.5 38t-77.5 13v27h344v-27q-59 -2 -77.5 -13t-18.5 -38v-568h56
q71 0 116 24t73.5 68.5t63.5 131.5l32 -2l-8 -254h-581z" />
    <glyph glyph-name="lcommaaccent" unicode="&#x13c;" horiz-adv-x="307" 
d="M87 -330l-14 22q89 52 93 110l-4 3q-12 -5 -23 -5q-24 0 -42.5 18t-18.5 47q0 28 20 48.5t49 20.5q36 0 58 -25t22 -67q0 -53 -35.5 -98t-104.5 -74zM20 0v25q42 1 55.5 8.5t13.5 27.5v562q0 25 -15 36.5t-59 12.5v25l207 10v-646q0 -20 13.5 -27.5t55.5 -8.5v-25h-271z
" />
    <glyph glyph-name="Lcaron" unicode="&#x13d;" horiz-adv-x="646" 
d="M456 502l-11 124q-5 60 -5 66q0 33 16.5 48.5t38.5 15.5t37 -13.5t15 -37.5q0 -27 -17 -70l-45 -133h-29zM28 0v27q58 2 77.5 13t19.5 38v522q0 27 -19.5 38t-77.5 13v27h344v-27q-59 -2 -77.5 -13t-18.5 -38v-568h56q71 0 116 24t73.5 68.5t63.5 131.5l32 -2l-8 -254
h-581z" />
    <glyph glyph-name="lcaron" unicode="&#x13e;" horiz-adv-x="308" 
d="M320 538l-11 124q-5 60 -5 66q0 33 16.5 48.5t38.5 15.5t37 -13.5t15 -37.5q0 -27 -17 -70l-45 -133h-29zM20 0v25q42 1 55.5 8.5t13.5 27.5v562q0 25 -15 36.5t-59 12.5v25l207 10v-646q0 -20 13.5 -27.5t55.5 -8.5v-25h-271z" />
    <glyph glyph-name="Ldot" unicode="&#x13f;" horiz-adv-x="646" 
d="M28 0v27q58 2 77.5 13t19.5 38v522q0 27 -19.5 38t-77.5 13v27h344v-27q-59 -2 -77.5 -13t-18.5 -38v-568h56q71 0 116 22.5t73.5 64.5t63.5 124l32 -1l-8 -242h-581zM512 311q-36 0 -57.5 20.5t-21.5 56.5q0 37 22 59.5t57 22.5q36 0 57.5 -21.5t21.5 -56.5
q0 -37 -21.5 -59t-57.5 -22z" />
    <glyph glyph-name="ldot" unicode="&#x140;" horiz-adv-x="414" 
d="M363 261q-36 0 -57 20t-21 56t21.5 58.5t56.5 22.5t56 -21.5t21 -56.5q0 -36 -21 -57.5t-56 -21.5zM20 0v25q42 1 55.5 8.5t13.5 27.5v562q0 25 -15 36.5t-59 12.5v25l207 10v-646q0 -20 13.5 -27.5t55.5 -8.5v-25h-271z" />
    <glyph glyph-name="Lslash" unicode="&#x141;" horiz-adv-x="646" 
d="M28 0v27q58 2 77.5 13t19.5 38v216l-78 -20l-11 41l89 23v262q0 27 -19.5 38t-77.5 13v27h344v-27q-59 -2 -77.5 -13t-18.5 -38v-223l133 34l10 -39l-143 -38v-302h56q71 0 116 24t73.5 68.5t63.5 131.5l32 -2l-8 -254h-581z" />
    <glyph glyph-name="lslash" unicode="&#x142;" horiz-adv-x="345" 
d="M42 0v25q42 1 55.5 8.5t13.5 27.5v253l-81 -20l-9 38l90 23v268q0 25 -15 36.5t-59 12.5v25l207 10v-319l84 22l10 -38l-94 -24v-287q0 -20 13.5 -27.5t55.5 -8.5v-25h-271z" />
    <glyph glyph-name="Nacute" unicode="&#x143;" horiz-adv-x="789" 
d="M384 746l44 125q20 61 34.5 82t42.5 21q23 0 39.5 -15.5t16.5 -37.5q0 -19 -11.5 -36.5t-49.5 -58.5l-76 -80h-40zM607 -10l-420 542h-3v-355q0 -76 24.5 -109t96.5 -41v-27h-272v27q67 9 89.5 41.5t22.5 108.5v372q0 97 -112 102v27h229l368 -479h3v302q0 74 -27.5 108
t-99.5 42v27h273v-27q-66 -9 -86.5 -41t-20.5 -109v-511h-65z" />
    <glyph glyph-name="nacute" unicode="&#x144;" horiz-adv-x="599" 
d="M263 527l44 125q20 61 34.5 82t42.5 21q23 0 39.5 -15.5t16.5 -37.5q0 -19 -11.5 -36.5t-49.5 -58.5l-76 -80h-40zM25 0v25q42 1 55.5 8.5t13.5 27.5v320q0 25 -14.5 36.5t-54.5 12.5v25l200 9v-88q81 91 175 91q122 0 122 -145v-261q0 -20 13.5 -27.5t55.5 -8.5v-25
h-257v25q30 1 42.5 9t12.5 27v243q0 47 -16.5 69t-53.5 22q-47 0 -92 -47v-287q0 -19 12 -27t42 -9v-25h-256z" />
    <glyph glyph-name="Ncommaaccent" unicode="&#x145;" horiz-adv-x="789" 
d="M331 -330l-14 22q89 52 93 110l-4 3q-12 -5 -23 -5q-24 0 -42.5 18t-18.5 47q0 28 20 48.5t49 20.5q36 0 58 -25t22 -67q0 -53 -35.5 -98t-104.5 -74zM607 -10l-420 542h-3v-355q0 -76 24.5 -109t96.5 -41v-27h-272v27q67 9 89.5 41.5t22.5 108.5v372q0 97 -112 102v27
h229l368 -479h3v302q0 74 -27.5 108t-99.5 42v27h273v-27q-66 -9 -86.5 -41t-20.5 -109v-511h-65z" />
    <glyph glyph-name="ncommaaccent" unicode="&#x146;" horiz-adv-x="599" 
d="M235 -330l-14 22q89 52 93 110l-4 3q-12 -5 -23 -5q-24 0 -42.5 18t-18.5 47q0 28 20 48.5t49 20.5q36 0 58 -25t22 -67q0 -53 -35.5 -98t-104.5 -74zM25 0v25q42 1 55.5 8.5t13.5 27.5v320q0 25 -14.5 36.5t-54.5 12.5v25l200 9v-88q81 91 175 91q122 0 122 -145v-261
q0 -20 13.5 -27.5t55.5 -8.5v-25h-257v25q30 1 42.5 9t12.5 27v243q0 47 -16.5 69t-53.5 22q-47 0 -92 -47v-287q0 -19 12 -27t42 -9v-25h-256z" />
    <glyph glyph-name="Ncaron" unicode="&#x147;" horiz-adv-x="789" 
d="M386 743l-123 197h35l114 -96l116 96h35l-131 -197h-46zM607 -10l-420 542h-3v-355q0 -76 24.5 -109t96.5 -41v-27h-272v27q67 9 89.5 41.5t22.5 108.5v372q0 97 -112 102v27h229l368 -479h3v302q0 74 -27.5 108t-99.5 42v27h273v-27q-66 -9 -86.5 -41t-20.5 -109v-511
h-65z" />
    <glyph glyph-name="ncaron" unicode="&#x148;" horiz-adv-x="599" 
d="M280 527l-123 197h35l114 -96l116 96h35l-131 -197h-46zM25 0v25q42 1 55.5 8.5t13.5 27.5v320q0 25 -14.5 36.5t-54.5 12.5v25l200 9v-88q81 91 175 91q122 0 122 -145v-261q0 -20 13.5 -27.5t55.5 -8.5v-25h-257v25q30 1 42.5 9t12.5 27v243q0 47 -16.5 69t-53.5 22
q-47 0 -92 -47v-287q0 -19 12 -27t42 -9v-25h-256z" />
    <glyph glyph-name="Omacron" unicode="&#x14c;" horiz-adv-x="756" 
d="M232 775v59h293v-59h-293zM378 -17q-151 0 -244.5 96t-93.5 258q0 160 95.5 258.5t242.5 98.5q151 0 244.5 -96t93.5 -257t-95 -259.5t-243 -98.5zM382 16q87 0 128 75.5t41 247.5q0 169 -44 246t-133 77q-87 0 -128 -76t-41 -247q0 -170 44 -246.5t133 -76.5z" />
    <glyph glyph-name="omacron" unicode="&#x14d;" horiz-adv-x="544" 
d="M126 554v59h293v-59h-293zM273 -9q-114 0 -178 64t-64 175q0 110 66 176t176 66q112 0 176.5 -64t64.5 -174t-66 -176.5t-175 -66.5zM277 22q51 0 72.5 51t21.5 159q0 209 -103 209q-52 0 -73.5 -50t-21.5 -159q0 -210 104 -210z" />
    <glyph glyph-name="Obreve" unicode="&#x14e;" horiz-adv-x="756" 
d="M378 -17q-151 0 -244.5 96t-93.5 258q0 160 95.5 258.5t242.5 98.5q151 0 244.5 -96t93.5 -257t-95 -259.5t-243 -98.5zM382 16q87 0 128 75.5t41 247.5q0 169 -44 246t-133 77q-87 0 -128 -76t-41 -247q0 -170 44 -246.5t133 -76.5zM379 754q-62 0 -100.5 44.5
t-42.5 123.5h32q24 -87 110 -87t109 87h33q-3 -79 -42 -123.5t-99 -44.5z" />
    <glyph glyph-name="obreve" unicode="&#x14f;" horiz-adv-x="544" 
d="M273 -9q-114 0 -178 64t-64 175q0 110 66 176t176 66q112 0 176.5 -64t64.5 -174t-66 -176.5t-175 -66.5zM277 22q51 0 72.5 51t21.5 159q0 209 -103 209q-52 0 -73.5 -50t-21.5 -159q0 -210 104 -210zM272 533q-62 0 -100.5 44.5t-42.5 123.5h32q24 -87 110 -87t109 87
h33q-3 -79 -42 -123.5t-99 -44.5z" />
    <glyph glyph-name="Ohungarumlaut" unicode="&#x150;" horiz-adv-x="756" 
d="M378 -17q-151 0 -244.5 96t-93.5 258q0 160 95.5 258.5t242.5 98.5q151 0 244.5 -96t93.5 -257t-95 -259.5t-243 -98.5zM382 16q87 0 128 75.5t41 247.5q0 169 -44 246t-133 77q-87 0 -128 -76t-41 -247q0 -170 44 -246.5t133 -76.5zM265 748l48 126q23 62 38 82t43 20
q21 0 36.5 -14.5t15.5 -35.5q0 -19 -12 -37.5t-51 -59.5l-81 -81h-37zM437 748l49 126q22 61 37 81.5t43 20.5q21 0 36.5 -14.5t15.5 -35.5q0 -19 -12 -37.5t-51 -59.5l-81 -81h-37z" />
    <glyph glyph-name="ohungarumlaut" unicode="&#x151;" horiz-adv-x="544" 
d="M273 -9q-114 0 -178 64t-64 175q0 110 66 176t176 66q112 0 176.5 -64t64.5 -174t-66 -176.5t-175 -66.5zM277 22q51 0 72.5 51t21.5 159q0 209 -103 209q-52 0 -73.5 -50t-21.5 -159q0 -210 104 -210zM152 527l48 126q23 62 38 82t43 20q21 0 36.5 -14.5t15.5 -35.5
q0 -19 -12 -37.5t-51 -59.5l-81 -81h-37zM324 527l49 126q22 61 37 81.5t43 20.5q21 0 36.5 -14.5t15.5 -35.5q0 -19 -12 -37.5t-51 -59.5l-81 -81h-37z" />
    <glyph glyph-name="OE" unicode="&#x152;" horiz-adv-x="1053" 
d="M412 0q-183 0 -278 88.5t-95 237.5q0 72 20 133.5t61.5 111.5t112.5 78.5t165 28.5h572l5 -230l-31 -1q-45 113 -85.5 156t-124.5 43h-100v-282h35q58 0 87.5 24t51.5 95h26v-271h-26q-22 71 -51.5 95.5t-87.5 24.5h-35v-300h94q53 0 89.5 11.5t64.5 41.5t46.5 65
t42.5 97l31 -2l-7 -245h-583zM413 32q71 0 71 48v518q0 48 -72 48q-113 0 -162 -67.5t-49 -240.5q0 -170 55.5 -238t156.5 -68z" />
    <glyph glyph-name="oe" unicode="&#x153;" horiz-adv-x="841" 
d="M606 -9q-105 0 -166 67q-64 -67 -168 -67q-112 0 -176.5 64t-64.5 175q0 109 66.5 175.5t175.5 66.5q106 0 169 -70q64 70 163 70q103 0 156.5 -65t48.5 -167h-300v-11v-1q0 -87 36.5 -136.5t107.5 -49.5q76 0 137 82l19 -15q-74 -118 -204 -118zM371 232q0 209 -103 209
q-52 0 -73.5 -50.5t-21.5 -158.5q0 -210 104 -210q51 0 72.5 51t21.5 159zM599 441q-80 0 -88 -172l163 1q9 77 -10.5 124t-64.5 47z" />
    <glyph glyph-name="Racute" unicode="&#x154;" horiz-adv-x="717" 
d="M319 751l44 125q20 61 34.5 82t42.5 21q23 0 39.5 -15.5t16.5 -37.5q0 -19 -11.5 -36.5t-49.5 -58.5l-76 -80h-40zM279 356h60q85 0 114 32.5t29 115.5q0 72 -34 107t-118 35h-51v-290zM279 326v-248q0 -27 20.5 -38t71.5 -13v-27h-339v27q58 2 77.5 13t19.5 38v522
q0 27 -19.5 38t-77.5 13v27h336q143 0 206.5 -46t63.5 -119q0 -66 -46.5 -109t-153.5 -60v-3q99 -3 139 -40t48 -107l9 -78q7 -54 25 -70t75 -18v-27q-50 -6 -93 -6q-50 0 -81.5 6.5t-48.5 23t-24 37t-10 55.5l-7 82q-6 75 -34.5 101t-108.5 26h-48z" />
    <glyph glyph-name="racute" unicode="&#x155;" horiz-adv-x="455" 
d="M180 527l44 125q20 61 34.5 82t42.5 21q23 0 39.5 -15.5t16.5 -37.5q0 -19 -11.5 -36.5t-49.5 -58.5l-76 -80h-40zM25 0v25q42 1 55.5 8.5t13.5 27.5v320q0 25 -14.5 36.5t-54.5 12.5v25l200 9v-89q59 93 137 93q43 0 66 -23.5t23 -59.5q0 -35 -20 -57t-51 -22
q-33 0 -53.5 19t-20.5 48q0 15 5 30q-45 -3 -84 -58v-284q0 -20 18 -27.5t72 -8.5v-25h-292z" />
    <glyph glyph-name="Rcommaaccent" unicode="&#x156;" horiz-adv-x="717" 
d="M300 -330l-14 22q89 52 93 110l-4 3q-12 -5 -23 -5q-24 0 -42.5 18t-18.5 47q0 28 20 48.5t49 20.5q36 0 58 -25t22 -67q0 -53 -35.5 -98t-104.5 -74zM279 356h60q85 0 114 32.5t29 115.5q0 72 -34 107t-118 35h-51v-290zM279 326v-248q0 -27 20.5 -38t71.5 -13v-27h-339
v27q58 2 77.5 13t19.5 38v522q0 27 -19.5 38t-77.5 13v27h336q143 0 206.5 -46t63.5 -119q0 -66 -46.5 -109t-153.5 -60v-3q99 -3 139 -40t48 -107l9 -78q7 -54 25 -70t75 -18v-27q-50 -6 -93 -6q-50 0 -81.5 6.5t-48.5 23t-24 37t-10 55.5l-7 82q-6 75 -34.5 101t-108.5 26
h-48z" />
    <glyph glyph-name="rcommaaccent" unicode="&#x157;" horiz-adv-x="455" 
d="M94 -330l-14 22q89 52 93 110l-4 3q-12 -5 -23 -5q-24 0 -42.5 18t-18.5 47q0 28 20 48.5t49 20.5q36 0 58 -25t22 -67q0 -53 -35.5 -98t-104.5 -74zM25 0v25q42 1 55.5 8.5t13.5 27.5v320q0 25 -14.5 36.5t-54.5 12.5v25l200 9v-89q59 93 137 93q43 0 66 -23.5t23 -59.5
q0 -35 -20 -57t-51 -22q-33 0 -53.5 19t-20.5 48q0 15 5 30q-45 -3 -84 -58v-284q0 -20 18 -27.5t72 -8.5v-25h-292z" />
    <glyph glyph-name="Rcaron" unicode="&#x158;" horiz-adv-x="717" 
d="M333 748l-123 197h35l114 -96l116 96h35l-131 -197h-46zM279 356h60q85 0 114 32.5t29 115.5q0 72 -34 107t-118 35h-51v-290zM279 326v-248q0 -27 20.5 -38t71.5 -13v-27h-339v27q58 2 77.5 13t19.5 38v522q0 27 -19.5 38t-77.5 13v27h336q143 0 206.5 -46t63.5 -119
q0 -66 -46.5 -109t-153.5 -60v-3q99 -3 139 -40t48 -107l9 -78q7 -54 25 -70t75 -18v-27q-50 -6 -93 -6q-50 0 -81.5 6.5t-48.5 23t-24 37t-10 55.5l-7 82q-6 75 -34.5 101t-108.5 26h-48z" />
    <glyph glyph-name="rcaron" unicode="&#x159;" horiz-adv-x="455" 
d="M220 527l-123 197h35l114 -96l116 96h35l-131 -197h-46zM25 0v25q42 1 55.5 8.5t13.5 27.5v320q0 25 -14.5 36.5t-54.5 12.5v25l200 9v-89q59 93 137 93q43 0 66 -23.5t23 -59.5q0 -35 -20 -57t-51 -22q-33 0 -53.5 19t-20.5 48q0 15 5 30q-45 -3 -84 -58v-284
q0 -20 18 -27.5t72 -8.5v-25h-292z" />
    <glyph glyph-name="Sacute" unicode="&#x15a;" horiz-adv-x="573" 
d="M245 751l44 125q20 61 34.5 82t42.5 21q23 0 39.5 -15.5t16.5 -37.5q0 -19 -11.5 -36.5t-49.5 -58.5l-76 -80h-40zM50 -19v243h31q96 -206 225 -206q61 0 94 33.5t33 80.5q0 53 -37.5 83.5t-128.5 60.5q-48 16 -78.5 29t-64 36t-50 57t-16.5 79q0 97 65 156t170 59
q80 0 144 -34l36 39h27v-215h-31q-84 178 -190 178q-47 0 -79 -29t-32 -78q0 -52 38 -80.5t130 -57.5q34 -11 57 -20t51.5 -26t46 -36t29.5 -49t12 -67q0 -97 -60.5 -164.5t-180.5 -67.5q-97 0 -167 39l-47 -43h-27z" />
    <glyph glyph-name="sacute" unicode="&#x15b;" horiz-adv-x="447" 
d="M184 527l44 125q20 61 34.5 82t42.5 21q23 0 39.5 -15.5t16.5 -37.5q0 -19 -11.5 -36.5t-49.5 -58.5l-76 -80h-40zM42 -8v166h28q80 -134 170 -134q37 0 57 17.5t20 46.5q0 33 -27 52t-100 40q-81 23 -114 52.5t-33 83.5q0 70 50.5 112t133.5 42q64 0 113 -31l25 31h26
v-148h-28q-40 61 -72.5 89t-71.5 28q-32 0 -52 -18.5t-20 -48.5q0 -29 26 -45t83 -30q84 -21 123 -54t39 -92q0 -69 -51.5 -114t-135.5 -45q-28 0 -70 10.5t-62 23.5l-30 -34h-27z" />
    <glyph glyph-name="Scedilla" unicode="&#x15e;" horiz-adv-x="573" 
d="M259 -254q-59 0 -106 25l14 25q44 -18 79 -18q56 0 56 47q0 21 -19 34t-52 13q-16 0 -39 -5l-13 22l100 96q-93 4 -155 39l-47 -43h-27v243h31q96 -206 225 -206q61 0 94 33.5t33 80.5q0 53 -37.5 83.5t-128.5 60.5q-48 16 -78.5 29t-64 36t-50 57t-16.5 79q0 97 65 156
t170 59q80 0 144 -34l36 39h27v-215h-31q-84 178 -190 178q-47 0 -79 -29t-32 -78q0 -52 38 -80.5t130 -57.5q34 -11 57 -20t51.5 -26t46 -36t29.5 -49t12 -67q0 -90 -53 -155.5t-157 -74.5l-60 -56l1 -3q59 -1 89.5 -26.5t30.5 -60.5q0 -42 -33.5 -68.5t-90.5 -26.5z" />
    <glyph glyph-name="scedilla" unicode="&#x15f;" horiz-adv-x="447" 
d="M198 -254q-59 0 -106 25l14 25q44 -18 79 -18q56 0 56 47q0 21 -19 34t-52 13q-16 0 -39 -5l-13 22l107 103q-29 2 -68 12t-58 22l-30 -34h-27v166h28q80 -134 170 -134q37 0 57 17.5t20 46.5q0 33 -27 52t-100 40q-81 23 -114 52.5t-33 83.5q0 70 50.5 112t133.5 42
q64 0 113 -31l25 31h26v-148h-28q-40 61 -72.5 89t-71.5 28q-32 0 -52 -18.5t-20 -48.5q0 -29 26 -45t83 -30q84 -21 123 -54t39 -92q0 -60 -40 -103t-108 -53l-69 -64l1 -3q59 -1 89.5 -26.5t30.5 -60.5q0 -42 -33.5 -68.5t-90.5 -26.5z" />
    <glyph glyph-name="Scaron" unicode="&#x160;" horiz-adv-x="573" 
d="M277 751l-123 197h35l114 -96l116 96h35l-131 -197h-46zM50 -19v243h31q96 -206 225 -206q61 0 94 33.5t33 80.5q0 53 -37.5 83.5t-128.5 60.5q-48 16 -78.5 29t-64 36t-50 57t-16.5 79q0 97 65 156t170 59q80 0 144 -34l36 39h27v-215h-31q-84 178 -190 178
q-47 0 -79 -29t-32 -78q0 -52 38 -80.5t130 -57.5q34 -11 57 -20t51.5 -26t46 -36t29.5 -49t12 -67q0 -97 -60.5 -164.5t-180.5 -67.5q-97 0 -167 39l-47 -43h-27z" />
    <glyph glyph-name="scaron" unicode="&#x161;" horiz-adv-x="447" 
d="M211 527l-123 197h35l114 -96l116 96h35l-131 -197h-46zM42 -8v166h28q80 -134 170 -134q37 0 57 17.5t20 46.5q0 33 -27 52t-100 40q-81 23 -114 52.5t-33 83.5q0 70 50.5 112t133.5 42q64 0 113 -31l25 31h26v-148h-28q-40 61 -72.5 89t-71.5 28q-32 0 -52 -18.5
t-20 -48.5q0 -29 26 -45t83 -30q84 -21 123 -54t39 -92q0 -69 -51.5 -114t-135.5 -45q-28 0 -70 10.5t-62 23.5l-30 -34h-27z" />
    <glyph glyph-name="Tcommaaccent" unicode="&#x162;" horiz-adv-x="710" 
d="M289 -330l-14 22q89 52 93 110l-4 3q-12 -5 -23 -5q-24 0 -42.5 18t-18.5 47q0 28 20 48.5t49 20.5q36 0 58 -25t22 -67q0 -53 -35.5 -98t-104.5 -74zM171 0v27q64 2 87 13t23 38v568h-23q-55 0 -96 -47t-89 -151l-31 1l6 229h616l5 -229l-30 -1q-46 103 -87.5 150.5
t-97.5 47.5h-23v-568q0 -27 22.5 -38t86.5 -13v-27h-369z" />
    <glyph glyph-name="tcommaaccent" unicode="&#x163;" horiz-adv-x="386" 
d="M141 -330l-14 22q89 52 93 110l-4 3q-12 -5 -23 -5q-24 0 -42.5 18t-18.5 47q0 28 20 48.5t49 20.5q36 0 58 -25t22 -67q0 -53 -35.5 -98t-104.5 -74zM233 -8q-63 0 -100 33.5t-37 105.5v282h-88v29l90 19v125l131 40v-167h145v-44h-145v-287q0 -78 57 -78q44 0 77 63
l22 -13q-48 -108 -152 -108z" />
    <glyph glyph-name="Tcaron" unicode="&#x164;" horiz-adv-x="710" 
d="M329 751l-123 197h35l114 -96l116 96h35l-131 -197h-46zM171 0v27q64 2 87 13t23 38v568h-23q-55 0 -96 -47t-89 -151l-31 1l6 229h616l5 -229l-30 -1q-46 103 -87.5 150.5t-97.5 47.5h-23v-568q0 -27 22.5 -38t86.5 -13v-27h-369z" />
    <glyph glyph-name="tcaron" unicode="&#x165;" horiz-adv-x="388" 
d="M321 539l-11 124q-5 60 -5 66q0 33 16.5 48.5t38.5 15.5t37 -13.5t15 -37.5q0 -27 -17 -70l-45 -133h-29zM233 -8q-63 0 -100 33.5t-37 105.5v282h-88v29l90 19v125l131 40v-167h145v-44h-145v-287q0 -78 57 -78q44 0 77 63l22 -13q-48 -108 -152 -108z" />
    <glyph glyph-name="Umacron" unicode="&#x16a;" horiz-adv-x="784" 
d="M403 -17q-282 0 -282 235v382q0 27 -19.5 38t-77.5 13v27h337v-27q-50 -2 -69.5 -13t-19.5 -38v-385q0 -181 179 -181q75 0 118 43q52 52 52 156v268q0 74 -27.5 108t-99.5 42v27h275v-27q-66 -9 -87 -41.5t-21 -108.5v-280q0 -111 -64.5 -174.5t-193.5 -63.5zM268 775
v59h293v-59h-293z" />
    <glyph glyph-name="umacron" unicode="&#x16b;" horiz-adv-x="589" 
d="M216 -8q-63 0 -98.5 38t-35.5 109v249q0 24 -14.5 35.5t-55.5 12.5v24l203 5v-306q0 -93 74 -93q45 0 86 44v278q0 24 -15 35t-55 12v25l203 5v-402q0 -21 13.5 -29t55.5 -9v-25h-200v82q-71 -90 -161 -90zM148 554v59h293v-59h-293z" />
    <glyph glyph-name="Ubreve" unicode="&#x16c;" horiz-adv-x="784" 
d="M403 -17q-282 0 -282 235v382q0 27 -19.5 38t-77.5 13v27h337v-27q-50 -2 -69.5 -13t-19.5 -38v-385q0 -181 179 -181q75 0 118 43q52 52 52 156v268q0 74 -27.5 108t-99.5 42v27h275v-27q-66 -9 -87 -41.5t-21 -108.5v-280q0 -111 -64.5 -174.5t-193.5 -63.5zM419 754
q-62 0 -100.5 44.5t-42.5 123.5h32q24 -87 110 -87t109 87h33q-3 -79 -42 -123.5t-99 -44.5z" />
    <glyph glyph-name="ubreve" unicode="&#x16d;" horiz-adv-x="589" 
d="M216 -8q-63 0 -98.5 38t-35.5 109v249q0 24 -14.5 35.5t-55.5 12.5v24l203 5v-306q0 -93 74 -93q45 0 86 44v278q0 24 -15 35t-55 12v25l203 5v-402q0 -21 13.5 -29t55.5 -9v-25h-200v82q-71 -90 -161 -90zM293 533q-62 0 -100.5 44.5t-42.5 123.5h32q24 -87 110 -87
t109 87h33q-3 -79 -42 -123.5t-99 -44.5z" />
    <glyph glyph-name="Uring" unicode="&#x16e;" horiz-adv-x="784" 
d="M419 754q-57 0 -90.5 31t-33.5 82q0 50 34 81t90 31q57 0 91 -30.5t34 -81.5t-34 -82t-91 -31zM420 783q55 0 55 84q0 83 -56 83q-55 0 -55 -83q0 -84 56 -84zM403 -17q-282 0 -282 235v382q0 27 -19.5 38t-77.5 13v27h337v-27q-50 -2 -69.5 -13t-19.5 -38v-385
q0 -181 179 -181q75 0 118 43q52 52 52 156v268q0 74 -27.5 108t-99.5 42v27h275v-27q-66 -9 -87 -41.5t-21 -108.5v-280q0 -111 -64.5 -174.5t-193.5 -63.5z" />
    <glyph glyph-name="uring" unicode="&#x16f;" horiz-adv-x="589" 
d="M292 533q-57 0 -90.5 31t-33.5 82q0 50 34 81t90 31q57 0 91 -30.5t34 -81.5t-34 -82t-91 -31zM293 562q55 0 55 84q0 83 -56 83q-55 0 -55 -83q0 -84 56 -84zM216 -8q-63 0 -98.5 38t-35.5 109v249q0 24 -14.5 35.5t-55.5 12.5v24l203 5v-306q0 -93 74 -93q45 0 86 44
v278q0 24 -15 35t-55 12v25l203 5v-402q0 -21 13.5 -29t55.5 -9v-25h-200v82q-71 -90 -161 -90z" />
    <glyph glyph-name="Uhungarumlaut" unicode="&#x170;" horiz-adv-x="784" 
d="M403 -17q-282 0 -282 235v382q0 27 -19.5 38t-77.5 13v27h337v-27q-50 -2 -69.5 -13t-19.5 -38v-385q0 -181 179 -181q75 0 118 43q52 52 52 156v268q0 74 -27.5 108t-99.5 42v27h275v-27q-66 -9 -87 -41.5t-21 -108.5v-280q0 -111 -64.5 -174.5t-193.5 -63.5zM290 748
l48 126q23 62 38 82t43 20q21 0 36.5 -14.5t15.5 -35.5q0 -19 -12 -37.5t-51 -59.5l-81 -81h-37zM462 748l49 126q22 61 37 81.5t43 20.5q21 0 36.5 -14.5t15.5 -35.5q0 -19 -12 -37.5t-51 -59.5l-81 -81h-37z" />
    <glyph glyph-name="uhungarumlaut" unicode="&#x171;" horiz-adv-x="589" 
d="M216 -8q-63 0 -98.5 38t-35.5 109v249q0 24 -14.5 35.5t-55.5 12.5v24l203 5v-306q0 -93 74 -93q45 0 86 44v278q0 24 -15 35t-55 12v25l203 5v-402q0 -21 13.5 -29t55.5 -9v-25h-200v82q-71 -90 -161 -90zM167 527l48 126q23 62 38 82t43 20q21 0 36.5 -14.5t15.5 -35.5
q0 -19 -12 -37.5t-51 -59.5l-81 -81h-37zM339 527l49 126q22 61 37 81.5t43 20.5q21 0 36.5 -14.5t15.5 -35.5q0 -19 -12 -37.5t-51 -59.5l-81 -81h-37z" />
    <glyph glyph-name="Uogonek" unicode="&#x172;" horiz-adv-x="784" 
d="M399 -244q-48 0 -77 23.5t-29 64.5q0 37 25.5 69t77.5 69l1 1q-276 3 -276 235v382q0 27 -19.5 38t-77.5 13v27h337v-27q-50 -2 -69.5 -13t-19.5 -38v-385q0 -181 179 -181q75 0 118 43q52 52 52 156v268q0 74 -27.5 108t-99.5 42v27h275v-27q-66 -9 -87 -41.5
t-21 -108.5v-280q0 -101 -53.5 -163t-160.5 -72l-7 -9q-56 -63 -56 -117q0 -59 57 -59q33 0 70 19l11 -23q-55 -41 -123 -41z" />
    <glyph glyph-name="uogonek" unicode="&#x173;" horiz-adv-x="589" 
d="M216 -8q-63 0 -98.5 38t-35.5 109v249q0 24 -14.5 35.5t-55.5 12.5v24l203 5v-306q0 -93 74 -93q45 0 86 44v278q0 24 -15 35t-55 12v25l203 5v-402q0 -21 13.5 -29t55.5 -9v-25h-52l-24 -24q-61 -61 -61 -116q0 -59 57 -59q33 0 70 19l11 -23q-55 -41 -123 -41
q-48 0 -77 23.5t-29 64.5q0 38 27 70.5t81 68.5l25 17h-105v82q-71 -90 -161 -90z" />
    <glyph glyph-name="Wcircumflex" unicode="&#x174;" horiz-adv-x="1037" 
d="M398 751l132 197h46l123 -197h-35l-115 95l-115 -95h-36zM511 481l-28 83q-16 48 -33.5 65.5t-61.5 21.5v27h323v-27q-57 -3 -73.5 -19.5t-4.5 -52.5l130 -421h7l111 361q21 67 6 94t-78 38v27h248v-27q-55 -11 -81.5 -40t-51.5 -106l-166 -516h-84l-143 430l-155 -430
h-85l-188 577q-14 44 -33.5 60t-69.5 25v27h320v-27q-51 -3 -63 -19t-2 -53l128 -422h7z" />
    <glyph glyph-name="wcircumflex" unicode="&#x175;" horiz-adv-x="779" 
d="M266 527l132 197h46l123 -197h-35l-115 95l-115 -95h-36zM384 321l-18 53q-13 35 -27 47.5t-44 16.5v24h249v-24q-31 -3 -43.5 -9.5t-12.5 -21.5q0 -4 4 -22l85 -260h5l72 212q11 33 11 52q0 21 -15 32.5t-49 16.5v24h192v-24q-66 -9 -89 -77l-128 -367h-80l-94 273
l-109 -273h-79l-144 380q-13 33 -28.5 46t-49.5 18v24h254v-24q-50 -4 -50 -29q0 -6 6 -24l96 -263h5z" />
    <glyph glyph-name="Ycircumflex" unicode="&#x176;" horiz-adv-x="688" 
d="M399 334l114 198q34 58 25.5 83.5t-70.5 35.5v27h234v-27q-47 -8 -76.5 -34t-69.5 -93l-134 -224v-222q0 -27 19.5 -38t79.5 -13v-27h-348v27q60 2 79.5 13t19.5 38v202l-171 299q-21 35 -42 50t-65 22v27h345v-27q-66 -4 -80.5 -22t8.5 -53zM213 751l132 197h46
l123 -197h-35l-115 95l-115 -95h-36z" />
    <glyph glyph-name="ycircumflex" unicode="&#x177;" horiz-adv-x="515" 
d="M251 -8l-179 382q-16 33 -32 45.5t-51 18.5v24h272v-24q-41 -4 -52 -16t-1 -36l107 -253l85 207q20 47 7.5 69t-63.5 29v24h194v-24q-56 -6 -86 -75l-175 -408q-37 -87 -76.5 -122.5t-86.5 -35.5q-44 0 -69.5 22t-25.5 58q0 27 18.5 48t49.5 21q29 0 47 -19.5t18 -47.5
q0 -25 -14 -39q29 4 53.5 34t55.5 106zM131 527l132 197h46l123 -197h-35l-115 95l-115 -95h-36z" />
    <glyph glyph-name="Ydieresis" unicode="&#x178;" horiz-adv-x="688" 
d="M399 334l114 198q34 58 25.5 83.5t-70.5 35.5v27h234v-27q-47 -8 -76.5 -34t-69.5 -93l-134 -224v-222q0 -27 19.5 -38t79.5 -13v-27h-348v27q60 2 79.5 13t19.5 38v202l-171 299q-21 35 -42 50t-65 22v27h345v-27q-66 -4 -80.5 -22t8.5 -53zM480 754q-32 0 -52 20.5
t-20 51.5t20 52.5t52 21.5t52.5 -21t20.5 -52t-20.5 -52t-52.5 -21zM277 754q-32 0 -52 20.5t-20 51.5t20 52.5t52 21.5t52.5 -21t20.5 -52t-20.5 -52t-52.5 -21z" />
    <glyph glyph-name="Zacute" unicode="&#x179;" horiz-adv-x="655" 
d="M286 751l44 125q20 61 34.5 82t42.5 21q23 0 39.5 -15.5t16.5 -37.5q0 -19 -11.5 -36.5t-49.5 -58.5l-76 -80h-40zM34 0l-1 27l416 617h-161q-59 0 -101 -45t-95 -152l-35 2l13 229h551l1 -27l-416 -617h179q61 0 101.5 46.5t98.5 163.5l35 -2l-12 -242h-574z" />
    <glyph glyph-name="zacute" unicode="&#x17a;" horiz-adv-x="489" 
d="M206 527l44 125q20 61 34.5 82t42.5 21q23 0 39.5 -15.5t16.5 -37.5q0 -19 -11.5 -36.5t-49.5 -58.5l-76 -80h-40zM32 0l-2 26l286 402h-84q-51 0 -82.5 -29.5t-71.5 -109.5l-28 2l10 171h403l2 -25l-286 -402h90q54 0 86 32t74 115l29 -2l-11 -180h-415z" />
    <glyph glyph-name="Zdotaccent" unicode="&#x17b;" horiz-adv-x="655" 
d="M34 0l-1 27l416 617h-161q-59 0 -101 -45t-95 -152l-35 2l13 229h551l1 -27l-416 -617h179q61 0 101.5 46.5t98.5 163.5l35 -2l-12 -242h-574zM336 754q-36 0 -57.5 20.5t-21.5 56.5q0 37 22 59.5t57 22.5q36 0 57.5 -21.5t21.5 -56.5q0 -37 -21.5 -59t-57.5 -22z" />
    <glyph glyph-name="zdotaccent" unicode="&#x17c;" horiz-adv-x="489" 
d="M32 0l-2 26l286 402h-84q-51 0 -82.5 -29.5t-71.5 -109.5l-28 2l10 171h403l2 -25l-286 -402h90q54 0 86 32t74 115l29 -2l-11 -180h-415zM257 533q-36 0 -57.5 20.5t-21.5 56.5q0 37 22 59.5t57 22.5q36 0 57.5 -21.5t21.5 -56.5q0 -37 -21.5 -59t-57.5 -22z" />
    <glyph glyph-name="Zcaron" unicode="&#x17d;" horiz-adv-x="655" 
d="M303 751l-123 197h35l114 -96l116 96h35l-131 -197h-46zM34 0l-1 27l416 617h-161q-59 0 -101 -45t-95 -152l-35 2l13 229h551l1 -27l-416 -617h179q61 0 101.5 46.5t98.5 163.5l35 -2l-12 -242h-574z" />
    <glyph glyph-name="zcaron" unicode="&#x17e;" horiz-adv-x="489" 
d="M223 527l-123 197h35l114 -96l116 96h35l-131 -197h-46zM32 0l-2 26l286 402h-84q-51 0 -82.5 -29.5t-71.5 -109.5l-28 2l10 171h403l2 -25l-286 -402h90q54 0 86 32t74 115l29 -2l-11 -180h-415z" />
    <glyph glyph-name="Aringacute" unicode="&#x1fa;" 
d="M183 252l-34 -90q-27 -72 -14 -98.5t78 -37.5v-26h-235v26q48 12 74.5 43t54.5 103l194 499q-36 10 -56 38t-20 66q0 50 34 81t90 31q57 0 90.5 -30.5t33.5 -80.5q0 -37 -19 -64t-53 -38l208 -569q15 -39 34.5 -54t72.5 -24v-27h-354v27q68 4 87 20t5 54l-52 151h-219z
M391 284l-92 265h-5l-99 -265h196zM303 913l44 125q20 61 34.5 82t42.5 21q23 0 39.5 -15.5t16.5 -37.5q0 -19 -11.5 -36.5t-49.5 -58.5l-76 -80h-40zM350 692q55 0 55 83t-57 83q-54 0 -54 -83t56 -83z" />
    <glyph glyph-name="aringacute" unicode="&#x1fb;" horiz-adv-x="516" 
d="M171 -7q-67 0 -101.5 35t-34.5 83q0 31 16.5 59.5t46.5 45.5q43 23 129 36.5t90 14.5v67q0 55 -18.5 79t-58.5 24q-37 0 -60 -18q20 -25 20 -53q0 -31 -19 -50t-53 -19q-32 0 -51 19t-19 49q0 46 54.5 74t154.5 28q93 0 137.5 -39.5t44.5 -122.5v-209q0 -37 14 -46.5
t57 2.5l8 -20q-59 -38 -109 -38q-45 0 -65.5 16.5t-29.5 55.5h-4q-68 -73 -149 -73zM244 55q43 0 73 43v140q-82 -13 -111.5 -35t-29.5 -71q0 -35 18 -56t50 -21zM222 791l44 125q20 61 34.5 82t42.5 21q23 0 39.5 -15.5t16.5 -37.5q0 -19 -11.5 -36.5t-49.5 -58.5l-76 -80
h-40zM260 533q-57 0 -90.5 31t-33.5 82q0 50 34 81t90 31q57 0 91 -30.5t34 -81.5t-34 -82t-91 -31zM261 562q55 0 55 84q0 83 -56 83q-55 0 -55 -83q0 -84 56 -84z" />
    <glyph glyph-name="AEacute" unicode="&#x1fc;" horiz-adv-x="1045" 
d="M561 751l44 125q20 61 34.5 82t42.5 21q23 0 39.5 -15.5t16.5 -37.5q0 -19 -11.5 -36.5t-49.5 -58.5l-76 -80h-40zM243 267l-70 -113q-36 -57 -36 -83q0 -35 63 -46v-25h-234v25q51 11 88 45t81 103l255 400q14 23 14 36q0 17 -23 27t-78 15v27h659l5 -230l-31 -1
q-45 113 -85.5 156t-124.5 43h-100v-282h35q58 0 87.5 24t51.5 95h26v-271h-26q-22 71 -51.5 95.5t-87.5 24.5h-35v-300h94q53 0 89.5 11.5t64.5 41.5t46.5 65t42.5 97l31 -2l-7 -245h-608v27q58 2 77.5 13t19.5 38v189h-233zM476 299v326h-10l-203 -326h213z" />
    <glyph glyph-name="aeacute" unicode="&#x1fd;" horiz-adv-x="787" 
d="M554 472q101 0 154.5 -65t47.5 -167h-299v-11v-1q0 -87 36.5 -136.5t107.5 -49.5q76 0 136 82l19 -15q-74 -118 -204 -118q-136 0 -192 97h-8q-31 -42 -79.5 -68.5t-102.5 -26.5q-66 0 -100.5 35t-34.5 83q0 31 16.5 59.5t46.5 45.5q43 23 135 36.5t94 14.5v67
q0 103 -87 103q-37 0 -60 -18q20 -25 20 -53q0 -31 -19 -50t-53 -19q-32 0 -51 19t-19 49q0 46 54.5 74t150.5 28q101 0 143 -51q64 56 148 56zM545 441q-79 0 -87 -172l163 1q8 77 -11.5 124t-64.5 47zM244 55q23 0 47 13t36 32v138q-84 -12 -117.5 -35t-33.5 -71
q0 -35 18 -56t50 -21zM370 527l44 125q20 61 34.5 82t42.5 21q23 0 39.5 -15.5t16.5 -37.5q0 -19 -11.5 -36.5t-49.5 -58.5l-76 -80h-40z" />
    <glyph glyph-name="Oslashacute" unicode="&#x1fe;" horiz-adv-x="756" 
d="M378 -17q148 0 243 98.5t95 259.5q0 163 -97 260l93 112h-51l-71 -87q-88 68 -212 68q-147 0 -242.5 -98.5t-95.5 -258.5q0 -164 96 -260l-92 -112h51l70 85q89 -67 213 -67zM374 662q108 0 150 -116l-304 -372q-15 67 -15 165q0 171 41 247t128 76zM382 16
q-110 0 -150 115l304 372q15 -66 15 -164q0 -172 -41 -247.5t-128 -75.5zM339 751l44 125q20 61 34.5 82t42.5 21q23 0 39.5 -15.5t16.5 -37.5q0 -19 -11.5 -36.5t-49.5 -58.5l-76 -80h-40z" />
    <glyph glyph-name="oslashacute" unicode="&#x1ff;" horiz-adv-x="544" 
d="M82 -25h-46l63 76q-68 65 -68 179q0 110 66 176t176 66q85 0 144 -39l45 54h46l-63 -76q69 -64 69 -177q0 -110 -66 -176.5t-175 -66.5q-88 0 -147 38zM173 232q0 -46 5 -88l179 216q-24 81 -89 81q-52 0 -73.5 -50t-21.5 -159zM277 22q51 0 72.5 51t21.5 159q0 50 -6 87
l-178 -217q24 -80 90 -80zM234 527l44 125q20 61 34.5 82t42.5 21q23 0 39.5 -15.5t16.5 -37.5q0 -19 -11.5 -36.5t-49.5 -58.5l-76 -80h-40z" />
    <glyph glyph-name="Scommaaccent" unicode="&#x218;" horiz-adv-x="573" 
d="M221 -330l-14 22q89 52 93 110l-4 3q-12 -5 -23 -5q-24 0 -42.5 18t-18.5 47q0 28 20 48.5t49 20.5q36 0 58 -25t22 -67q0 -53 -35.5 -98t-104.5 -74zM50 -19v243h31q96 -206 225 -206q61 0 94 33.5t33 80.5q0 53 -37.5 83.5t-128.5 60.5q-48 16 -78.5 29t-64 36t-50 57
t-16.5 79q0 97 65 156t170 59q80 0 144 -34l36 39h27v-215h-31q-84 178 -190 178q-47 0 -79 -29t-32 -78q0 -52 38 -80.5t130 -57.5q34 -11 57 -20t51.5 -26t46 -36t29.5 -49t12 -67q0 -97 -60.5 -164.5t-180.5 -67.5q-97 0 -167 39l-47 -43h-27z" />
    <glyph glyph-name="scommaaccent" unicode="&#x219;" horiz-adv-x="447" 
d="M157 -330l-14 22q89 52 93 110l-4 3q-12 -5 -23 -5q-24 0 -42.5 18t-18.5 47q0 28 20 48.5t49 20.5q36 0 58 -25t22 -67q0 -53 -35.5 -98t-104.5 -74zM42 -8v166h28q80 -134 170 -134q37 0 57 17.5t20 46.5q0 33 -27 52t-100 40q-81 23 -114 52.5t-33 83.5q0 70 50.5 112
t133.5 42q64 0 113 -31l25 31h26v-148h-28q-40 61 -72.5 89t-71.5 28q-32 0 -52 -18.5t-20 -48.5q0 -29 26 -45t83 -30q84 -21 123 -54t39 -92q0 -69 -51.5 -114t-135.5 -45q-28 0 -70 10.5t-62 23.5l-30 -34h-27z" />
    <glyph glyph-name="schwa" unicode="&#x259;" horiz-adv-x="502" 
d="M235 471q110 0 173 -62t63 -172q0 -112 -66 -179.5t-170 -67.5q-103 0 -156.5 65t-48.5 167h301v11v1q0 87 -37 136.5t-108 49.5q-76 0 -136 -82l-20 15q74 118 205 118zM242 21q79 0 88 172l-164 -1q-8 -77 11.5 -124t64.5 -47z" />
    <glyph glyph-name="circumflex" unicode="&#x2c6;" horiz-adv-x="327" 
d="M13 527l132 197h46l123 -197h-35l-115 95l-115 -95h-36z" />
    <glyph glyph-name="caron" unicode="&#x2c7;" horiz-adv-x="327" 
d="M137 527l-123 197h35l114 -96l116 96h35l-131 -197h-46z" />
    <glyph glyph-name="breve" unicode="&#x2d8;" horiz-adv-x="350" 
d="M176 533q-62 0 -100.5 44.5t-42.5 123.5h32q24 -87 110 -87t109 87h33q-3 -79 -42 -123.5t-99 -44.5z" />
    <glyph glyph-name="dotaccent" unicode="&#x2d9;" horiz-adv-x="237" 
d="M118 533q-36 0 -57.5 20.5t-21.5 56.5q0 37 22 59.5t57 22.5q36 0 57.5 -21.5t21.5 -56.5q0 -37 -21.5 -59t-57.5 -22z" />
    <glyph glyph-name="ring" unicode="&#x2da;" horiz-adv-x="296" 
d="M148 533q-57 0 -90.5 31t-33.5 82q0 50 34 81t90 31q57 0 91 -30.5t34 -81.5t-34 -82t-91 -31zM149 562q55 0 55 84q0 83 -56 83q-55 0 -55 -83q0 -84 56 -84z" />
    <glyph glyph-name="ogonek" unicode="&#x2db;" horiz-adv-x="267" 
d="M117 -244q-48 0 -77 23.5t-29 64.5q0 37 25.5 69t77.5 69l46 32h32l-34 -37q-56 -63 -56 -117q0 -59 57 -59q33 0 70 19l11 -23q-55 -41 -123 -41z" />
    <glyph glyph-name="tilde" unicode="&#x2dc;" horiz-adv-x="357" 
d="M15 527q8 73 30.5 106.5t69.5 33.5q27 0 80 -24t70 -24q15 0 25.5 11.5t17.5 42.5h34q-7 -72 -30 -106t-70 -34q-26 0 -79 24t-71 24q-15 0 -25 -11.5t-18 -42.5h-34z" />
    <glyph glyph-name="hungarumlaut" unicode="&#x2dd;" horiz-adv-x="368" 
d="M5 527l48 126q23 62 38 82t43 20q21 0 36.5 -14.5t15.5 -35.5q0 -19 -12 -37.5t-51 -59.5l-81 -81h-37zM177 527l49 126q22 61 37 81.5t43 20.5q21 0 36.5 -14.5t15.5 -35.5q0 -19 -12 -37.5t-51 -59.5l-81 -81h-37z" />
    <glyph glyph-name="commaaccent" unicode="&#x326;" horiz-adv-x="260" 
d="M65 -330l-14 22q89 52 93 110l-4 3q-12 -5 -23 -5q-24 0 -42.5 18t-18.5 47q0 28 20 48.5t49 20.5q36 0 58 -25t22 -67q0 -53 -35.5 -98t-104.5 -74z" />
    <glyph glyph-name="Wgrave" unicode="&#x1e80;" horiz-adv-x="1037" 
d="M511 481l-28 83q-16 48 -33.5 65.5t-61.5 21.5v27h323v-27q-57 -3 -73.5 -19.5t-4.5 -52.5l130 -421h7l111 361q21 67 6 94t-78 38v27h248v-27q-55 -11 -81.5 -40t-51.5 -106l-166 -516h-84l-143 430l-155 -430h-85l-188 577q-14 44 -33.5 60t-69.5 25v27h320v-27
q-51 -3 -63 -19t-2 -53l128 -422h7zM534 751l-76 80q-38 41 -50 58.5t-12 36.5q0 21 17 37t39 16q29 0 43 -20.5t35 -82.5l44 -125h-40z" />
    <glyph glyph-name="wgrave" unicode="&#x1e81;" horiz-adv-x="779" 
d="M384 321l-18 53q-13 35 -27 47.5t-44 16.5v24h249v-24q-31 -3 -43.5 -9.5t-12.5 -21.5q0 -4 4 -22l85 -260h5l72 212q11 33 11 52q0 21 -15 32.5t-49 16.5v24h192v-24q-66 -9 -89 -77l-128 -367h-80l-94 273l-109 -273h-79l-144 380q-13 33 -28.5 46t-49.5 18v24h254v-24
q-50 -4 -50 -29q0 -6 6 -24l96 -263h5zM395 527l-76 80q-38 41 -50 58.5t-12 36.5q0 21 17 37t39 16q29 0 43 -20.5t35 -82.5l44 -125h-40z" />
    <glyph glyph-name="Wacute" unicode="&#x1e82;" horiz-adv-x="1037" 
d="M510 751l44 125q20 61 34.5 82t42.5 21q23 0 39.5 -15.5t16.5 -37.5q0 -19 -11.5 -36.5t-49.5 -58.5l-76 -80h-40zM511 481l-28 83q-16 48 -33.5 65.5t-61.5 21.5v27h323v-27q-57 -3 -73.5 -19.5t-4.5 -52.5l130 -421h7l111 361q21 67 6 94t-78 38v27h248v-27
q-55 -11 -81.5 -40t-51.5 -106l-166 -516h-84l-143 430l-155 -430h-85l-188 577q-14 44 -33.5 60t-69.5 25v27h320v-27q-51 -3 -63 -19t-2 -53l128 -422h7z" />
    <glyph glyph-name="wacute" unicode="&#x1e83;" horiz-adv-x="779" 
d="M390 527l44 125q20 61 34.5 82t42.5 21q23 0 39.5 -15.5t16.5 -37.5q0 -19 -11.5 -36.5t-49.5 -58.5l-76 -80h-40zM384 321l-18 53q-13 35 -27 47.5t-44 16.5v24h249v-24q-31 -3 -43.5 -9.5t-12.5 -21.5q0 -4 4 -22l85 -260h5l72 212q11 33 11 52q0 21 -15 32.5t-49 16.5
v24h192v-24q-66 -9 -89 -77l-128 -367h-80l-94 273l-109 -273h-79l-144 380q-13 33 -28.5 46t-49.5 18v24h254v-24q-50 -4 -50 -29q0 -6 6 -24l96 -263h5z" />
    <glyph glyph-name="Wdieresis" unicode="&#x1e84;" horiz-adv-x="1037" 
d="M649 754q-32 0 -52 20.5t-20 51.5t20 52.5t52 21.5t52.5 -21t20.5 -52t-20.5 -52t-52.5 -21zM446 754q-32 0 -52 20.5t-20 51.5t20 52.5t52 21.5t52.5 -21t20.5 -52t-20.5 -52t-52.5 -21zM511 481l-28 83q-16 48 -33.5 65.5t-61.5 21.5v27h323v-27q-57 -3 -73.5 -19.5
t-4.5 -52.5l130 -421h7l111 361q21 67 6 94t-78 38v27h248v-27q-55 -11 -81.5 -40t-51.5 -106l-166 -516h-84l-143 430l-155 -430h-85l-188 577q-14 44 -33.5 60t-69.5 25v27h320v-27q-51 -3 -63 -19t-2 -53l128 -422h7z" />
    <glyph glyph-name="wdieresis" unicode="&#x1e85;" horiz-adv-x="779" 
d="M518 533q-32 0 -52 20.5t-20 51.5t20 52.5t52 21.5t52.5 -21t20.5 -52t-20.5 -52t-52.5 -21zM315 533q-32 0 -52 20.5t-20 51.5t20 52.5t52 21.5t52.5 -21t20.5 -52t-20.5 -52t-52.5 -21zM384 321l-18 53q-13 35 -27 47.5t-44 16.5v24h249v-24q-31 -3 -43.5 -9.5
t-12.5 -21.5q0 -4 4 -22l85 -260h5l72 212q11 33 11 52q0 21 -15 32.5t-49 16.5v24h192v-24q-66 -9 -89 -77l-128 -367h-80l-94 273l-109 -273h-79l-144 380q-13 33 -28.5 46t-49.5 18v24h254v-24q-50 -4 -50 -29q0 -6 6 -24l96 -263h5z" />
    <glyph glyph-name="Ygrave" unicode="&#x1ef2;" horiz-adv-x="688" 
d="M399 334l114 198q34 58 25.5 83.5t-70.5 35.5v27h234v-27q-47 -8 -76.5 -34t-69.5 -93l-134 -224v-222q0 -27 19.5 -38t79.5 -13v-27h-348v27q60 2 79.5 13t19.5 38v202l-171 299q-21 35 -42 50t-65 22v27h345v-27q-66 -4 -80.5 -22t8.5 -53zM354 751l-76 80
q-38 41 -50 58.5t-12 36.5q0 21 17 37t39 16q29 0 43 -20.5t35 -82.5l44 -125h-40z" />
    <glyph glyph-name="ygrave" unicode="&#x1ef3;" horiz-adv-x="515" 
d="M251 -8l-179 382q-16 33 -32 45.5t-51 18.5v24h272v-24q-41 -4 -52 -16t-1 -36l107 -253l85 207q20 47 7.5 69t-63.5 29v24h194v-24q-56 -6 -86 -75l-175 -408q-37 -87 -76.5 -122.5t-86.5 -35.5q-44 0 -69.5 22t-25.5 58q0 27 18.5 48t49.5 21q29 0 47 -19.5t18 -47.5
q0 -25 -14 -39q29 4 53.5 34t55.5 106zM272 527l-76 80q-38 41 -50 58.5t-12 36.5q0 21 17 37t39 16q29 0 43 -20.5t35 -82.5l44 -125h-40z" />
    <glyph glyph-name="enspace" unicode="&#x2002;" horiz-adv-x="500" 
 />
    <glyph glyph-name="emspace" unicode="&#x2003;" horiz-adv-x="1000" 
 />
    <glyph glyph-name="threeperemspace" unicode="&#x2004;" horiz-adv-x="333" 
 />
    <glyph glyph-name="fourperemspace" unicode="&#x2005;" horiz-adv-x="250" 
 />
    <glyph glyph-name="thinspace" unicode="&#x2009;" horiz-adv-x="133" 
 />
    <glyph glyph-name="hairspace" unicode="&#x200a;" horiz-adv-x="75" 
 />
    <glyph glyph-name="endash" unicode="&#x2013;" horiz-adv-x="540" 
d="M52 237v43h436v-43h-436z" />
    <glyph glyph-name="emdash" unicode="&#x2014;" horiz-adv-x="790" 
d="M52 237v43h686v-43h-686z" />
    <glyph glyph-name="quoteleft" unicode="&#x2018;" horiz-adv-x="259" 
d="M135 400q-40 0 -65 27.5t-25 73.5q0 66 43.5 117.5t126.5 80.5l14 -23q-54 -27 -82.5 -62t-32.5 -66l5 -3q12 5 25 5q28 0 48 -20t20 -53q0 -31 -22.5 -54t-54.5 -23z" />
    <glyph glyph-name="quoteright" unicode="&#x2019;" horiz-adv-x="259" 
d="M44 393l-13 24q54 27 82.5 62t31.5 66l-5 3q-10 -6 -24 -6q-28 0 -48.5 20.5t-20.5 52.5t22 55t55 23q39 0 64.5 -28t25.5 -74q0 -66 -43.5 -117.5t-126.5 -80.5z" />
    <glyph glyph-name="quotesinglbase" unicode="&#x201a;" horiz-adv-x="259" 
d="M44 -157l-13 24q54 27 82.5 62t31.5 66l-5 3q-10 -6 -24 -6q-28 0 -48.5 20.5t-20.5 52.5t22 55t55 23q39 0 64.5 -28t25.5 -74q0 -66 -43.5 -117.5t-126.5 -80.5z" />
    <glyph glyph-name="quotedblleft" unicode="&#x201c;" horiz-adv-x="476" 
d="M352 400q-40 0 -65 27.5t-25 73.5q0 66 43.5 117.5t126.5 80.5l14 -23q-54 -27 -82.5 -62t-32.5 -66l5 -3q12 5 25 5q27 0 47.5 -20t20.5 -53q0 -31 -22.5 -54t-54.5 -23zM135 400q-40 0 -65 27.5t-25 73.5q0 66 43.5 117.5t126.5 80.5l14 -23q-54 -27 -82.5 -62
t-32.5 -66l5 -3q12 5 25 5q28 0 48 -20t20 -53q0 -31 -22.5 -54t-54.5 -23z" />
    <glyph glyph-name="quotedblright" unicode="&#x201d;" horiz-adv-x="476" 
d="M261 393l-14 24q54 27 83 62t32 66l-5 3q-11 -6 -25 -6q-27 0 -47.5 20.5t-20.5 52.5t22 55t55 23q39 0 64.5 -28t25.5 -74q0 -66 -43.5 -117.5t-126.5 -80.5zM44 393l-13 24q54 27 82.5 62t31.5 66l-5 3q-10 -6 -24 -6q-28 0 -48.5 20.5t-20.5 52.5t22 55t55 23
q39 0 64.5 -28t25.5 -74q0 -66 -43.5 -117.5t-126.5 -80.5z" />
    <glyph glyph-name="quotedblbase" unicode="&#x201e;" horiz-adv-x="476" 
d="M261 -157l-14 24q54 27 83 62t32 66l-5 3q-11 -6 -25 -6q-27 0 -47.5 20.5t-20.5 52.5t22 55t55 23q39 0 64.5 -28t25.5 -74q0 -66 -43.5 -117.5t-126.5 -80.5zM44 -157l-13 24q54 27 82.5 62t31.5 66l-5 3q-10 -6 -24 -6q-28 0 -48.5 20.5t-20.5 52.5t22 55t55 23
q39 0 64.5 -28t25.5 -74q0 -66 -43.5 -117.5t-126.5 -80.5z" />
    <glyph glyph-name="dagger" unicode="&#x2020;" horiz-adv-x="566" 
d="M271 -106q-5 65 -28 227t-30 182l43 68q11 15 11 34q0 18 -11 28.5t-31 10.5q-28 0 -73.5 -20.5t-65.5 -20.5q-24 0 -41 13.5t-17 37.5q0 27 22.5 43.5t58.5 16.5q50 0 158 -60l4 4l-24 96q-20 78 -20 110q0 30 15 48.5t41 18.5t41 -18.5t15 -48.5q0 -32 -20 -110
l-24 -96l4 -4q108 60 158 60q36 0 58.5 -16.5t22.5 -43.5q0 -24 -17 -37.5t-41 -13.5q-20 0 -65.5 20.5t-73.5 20.5q-20 0 -31 -10.5t-11 -28.5q0 -19 11 -34l43 -68q-7 -20 -30 -182t-28 -227h-24z" />
    <glyph glyph-name="daggerdbl" unicode="&#x2021;" horiz-adv-x="573" 
d="M286 -107q-25 0 -40 18t-15 47q0 28 20 105l23 90l-4 4q-104 -59 -157 -59q-36 0 -59 16.5t-23 42.5q0 24 17.5 37.5t40.5 13.5q20 0 66 -20t73 -20q43 0 43 35q0 19 -12 41l-38 68l38 68q12 22 12 40q0 36 -43 36q-27 0 -73 -20t-66 -20q-23 0 -40.5 13.5t-17.5 36.5
q0 27 23 43.5t59 16.5q53 0 157 -59l4 4l-23 90q-20 77 -20 105q0 29 15 47t41 18q25 0 40 -18t15 -47q0 -28 -20 -105l-23 -90l4 -4q104 59 157 59q36 0 59 -16.5t23 -43.5q0 -23 -17.5 -36.5t-40.5 -13.5q-20 0 -66 20t-73 20q-43 0 -43 -35q0 -19 12 -41l38 -68l-38 -68
q-12 -22 -12 -41q0 -35 43 -35q27 0 73 20t66 20q23 0 40.5 -13.5t17.5 -37.5q0 -26 -23 -42.5t-59 -16.5q-53 0 -157 59l-4 -4l23 -90q20 -77 20 -105q0 -29 -15 -47t-41 -18z" />
    <glyph glyph-name="bullet" unicode="&#x2022;" horiz-adv-x="483" 
d="M242 184q-59 0 -100 41t-41 100q0 58 41 99t100 41t99.5 -41t40.5 -99q0 -59 -40.5 -100t-99.5 -41z" />
    <glyph glyph-name="ellipsis" unicode="&#x2026;" horiz-adv-x="757" 
d="M627 -16q-34 0 -58 23t-24 56t24.5 56t58.5 23t58 -23t24 -56t-24.5 -56t-58.5 -23zM378 -16q-34 0 -58 23t-24 56t24.5 56t58.5 23t58 -23t24 -56t-24.5 -56t-58.5 -23zM129 -16q-34 0 -58 23t-24 56t24.5 56t58.5 23t58 -23t24 -56t-24.5 -56t-58.5 -23z" />
    <glyph glyph-name="guilsinglleft" unicode="&#x2039;" horiz-adv-x="307" 
d="M239 28l-178 158q-27 23 -27 39q0 15 27 38l178 158l23 -16l-116 -180l116 -182z" />
    <glyph glyph-name="guilsinglright" unicode="&#x203a;" horiz-adv-x="307" 
d="M68 28l-23 16l116 180l-116 181l23 16l178 -158q27 -23 27 -39q0 -15 -27 -38z" />
    <glyph glyph-name="fraction" unicode="&#x2044;" horiz-adv-x="575" 
d="M17 -57l249 364l240 356h52l-243 -356l-246 -364h-52z" />
    <glyph glyph-name="Euro" unicode="&#x20ac;" horiz-adv-x="679" 
d="M448 246h-184q15 -91 63 -142t123 -51q98 0 168 103l28 -19q-85 -153 -242 -153q-127 0 -201.5 72t-91.5 190h-83v34h79q-1 12 -1 36t3 48h-81v34h86q24 116 109 189t209 73q86 0 145.5 -40t59.5 -98q0 -36 -22 -60t-55 -24q-37 0 -59 20.5t-22 57.5q0 24 13.5 45
t34.5 31q-34 36 -93 36q-73 0 -118.5 -57t-55.5 -173h188v-34h-190v-33q0 -35 2 -51h188v-34z" />
    <glyph glyph-name="published" unicode="&#x2117;" horiz-adv-x="811" 
d="M405 -33q-159 0 -266 106.5t-107 265.5q0 158 107 265t266 107t266.5 -107t107.5 -265t-107 -265t-267 -107zM405 -4q145 0 242 99t97 244t-97 243.5t-242 98.5t-242 -98.5t-97 -243.5t97 -244t242 -99zM244 153v22q34 1 44 6.5t10 20.5v282q0 14 -10.5 19.5t-43.5 6.5
v23h178q87 0 126.5 -30t39.5 -80q0 -49 -41 -81.5t-125 -32.5h-35v-107q0 -16 9.5 -21.5t46.5 -6.5v-21h-199zM387 334h30q44 0 61.5 20.5t17.5 67.5q0 86 -77 86h-32v-174z" />
    <glyph glyph-name="servicemark" unicode="&#x2120;" horiz-adv-x="727" 
d="M58 509h19q39 -77 95 -77q22 0 34 11.5t12 26.5q0 17 -14.5 28.5t-51.5 21.5q-43 12 -67 30t-24 53q0 36 28 59t72 23q30 0 62 -14l14 16h16v-90h-19q-33 67 -78 67q-19 0 -30.5 -9.5t-11.5 -24.5q0 -16 14.5 -26.5t52.5 -21.5q40 -12 62.5 -30t22.5 -52q0 -37 -26.5 -63
t-77.5 -26q-39 0 -71 16l-16 -18h-17v100zM298 417v19q26 3 34.5 13t8.5 38v141q0 32 -43 33v19h136l59 -177h6l59 177h131v-19q-23 -2 -32.5 -6.5t-9.5 -14.5v-183q0 -19 42 -20v-20h-143v20q33 1 33 21v175h-11l-72 -216h-41l-76 216h-11v-146q0 -29 6.5 -38t31.5 -13v-19
h-108z" />
    <glyph glyph-name="trademark" unicode="&#x2122;" horiz-adv-x="767" 
d="M338 417v19q26 3 34.5 13t8.5 38v141q0 32 -43 33v19h136l59 -177h5l59 177h131v-19q-23 -2 -32 -6.5t-9 -14.5v-183q0 -19 41 -20v-20h-143v20q33 1 33 21v175h-11l-71 -216h-41l-77 216h-10v-146q0 -29 6 -38t31 -13v-19h-107zM92 417v20q46 1 46 20v202h-8
q-38 0 -72 -81h-19l3 102h260l3 -102h-19q-30 81 -72 81h-7v-202q0 -19 45 -20v-20h-160z" />
    <glyph glyph-name="minus" unicode="&#x2212;" horiz-adv-x="534" 
d="M53 295v45h428v-45h-428z" />
    <glyph glyph-name="registered.alt" horiz-adv-x="811" 
d="M405 -33q-159 0 -266 106.5t-107 265.5q0 158 107 265t266 107t266.5 -107t107.5 -265t-107 -265t-267 -107zM405 -4q145 0 242 99t97 244t-97 243.5t-242 98.5t-242 -98.5t-97 -243.5t97 -244t242 -99zM370 355h32q47 0 63 16.5t16 61.5q0 39 -18.5 57t-63.5 18h-29
v-153zM370 331v-130q0 -15 11 -20t40 -6v-23h-193v23q32 1 42.5 6.5t10.5 19.5v283q0 14 -10.5 19.5t-42.5 6.5v23h192q80 0 116.5 -26.5t36.5 -67.5q0 -75 -111 -93v-4q54 -1 76 -20t27 -57l5 -48q3 -25 12 -33.5t40 -9.5v-22q-17 -2 -47 -2q-57 0 -76 15.5t-21 53.5l-4 45
q-3 40 -18.5 53.5t-60.5 13.5h-25z" />
    <glyph glyph-name="percent.alt" horiz-adv-x="850" 
d="M385 487q0 -78 -48 -125.5t-124 -47.5q-80 0 -126.5 46t-46.5 125q0 78 48.5 125.5t124.5 47.5q79 0 125.5 -46t46.5 -125zM149 -10l262 342l239 321h54l-261 -340l-240 -323h-54zM209 630q-70 0 -70 -144t77 -144q70 0 70 144t-77 144zM468 157q0 78 48 125.5t125 47.5
q78 0 125 -46t47 -125q0 -78 -48.5 -126t-124.5 -48q-79 0 -125.5 46.5t-46.5 125.5zM643 13q71 0 71 145q0 144 -77 144q-70 0 -70 -144q0 -145 76 -145z" />
    <glyph glyph-name="NUL" horiz-adv-x="500" 
 />
    <glyph glyph-name="hcoslug" horiz-adv-x="694" 
d="M273 18h-26q0 -12 10 -12q8 0 9 7h7q-3 -14 -18 -14q-21 0 -21 20q0 9 6 15t14 6q21 0 19 -22zM254 35q-7 0 -7 -12h14q0 12 -7 12zM195 78q8 0 8 16q0 15 -8 15t-8 -15q0 -16 8 -16zM210 4q8 0 8 16q0 15 -8 15t-8 -15q0 -16 8 -16zM210 -1q-21 0 -21 21q0 20 21 20
t21 -20q0 -9 -6 -15t-15 -6zM546 4q8 0 8 16q0 15 -8 15t-8 -15q0 -16 8 -16zM546 -1q-21 0 -21 21q0 20 21 20t21 -20q0 -9 -6 -15t-15 -6zM125 74v7h7v41h-7v7h51v-20h-8q-2 13 -11 13h-12v-18h4q5 0 6 8h7v-23h-7q-1 8 -6 8h-4v-16h10v-7h-30zM195 73q-21 0 -21 21
q0 20 21 20t21 -20q0 -9 -6 -15t-15 -6zM644 -100v800h-594v-800h594zM498 -1q-29 0 -29 28q0 13 8 21.5t19 8.5q9 0 16 -7l1 6h8v-22h-8q-5 16 -15 16q-14 0 -14 -22t16 -22q12 0 14 16h8q-2 -23 -24 -23zM372 80q7 0 7 13t-7 13q-8 0 -8 -13t8 -13zM276 0v7h6v25h-7v7h7v1
q0 19 19 19q5 0 9 -2l10 2v-52h6v-7h-23v7h5v25h-14v-25h5v-7h-23zM368 0v7h6v25h-6v7h18v-10q4 11 12 11t8 -8q0 -7 -7 -7q-6 0 -6 6v1q-3 0 -7 -9v-16h8v-7h-26zM352 73v52h-6v7h18v-27q3 9 13 9q15 0 15 -20q0 -21 -16 -21q-9 0 -14 8l-4 -8h-6zM400 75q5 0 6.5 -4
t-1.5 -6q6 0 8 8l-16 33h-5v7h25v-7h-6l9 -20l8 20h-5v7h17v-7h-5l-13 -31q-6 -16 -18 -16q-11 0 -11 9q0 7 7 7zM247 428q0 13 7.5 21t19.5 8q13 0 21 -10.5t8 -27.5q0 -22 -18 -50q-15 14 -21 20.5t-11.5 17t-5.5 21.5zM302 74v14h7q6 -9 12 -9q5 0 5 4q0 3 -12 6.5
t-12 12.5q0 12 14 12q8 0 11 -5l2 5h6v-13h-7q-5 7 -10 7t-5 -4q0 -3 12 -6t12 -12q0 -13 -14 -13q-5 0 -13 5l-1 -4h-7zM261 219q-22 0 -37 15.5t-15 38.5q0 24 16 40q34 -32 74 -82q-15 -12 -38 -12zM274 122l12 2v-11h13v-7h-13v-20q0 -5 4 -5t5 7l5 -2q-3 -13 -14 -13
q-12 0 -12 13v20h-7v7h7v9zM428 306q-26 -16 -46 -42q35 -41 62 -41q26 0 43 29l7 -2q-1 -43 -24 -68.5t-56 -25.5q-41 0 -85 45q-41 -45 -104 -45q-45 0 -77 27t-32 66q0 63 82 91q-31 32 -31 69q0 34 30.5 59.5t78.5 25.5q44 0 69.5 -22.5t25.5 -51.5q0 -19 -9 -34
q46 2 49 -37q25 38 60 38q21 0 35.5 -14.5t14.5 -37.5t-14.5 -38.5t-35.5 -15.5q-28 0 -43 25zM219 74v7h6v25h-6v7h17v-10q5 11 14 11q12 0 12 -14v-19h6v-7h-22v7h4v18q0 7 -6 7q-7 0 -7 -10v-15h4v-7h-22zM446 33h18v-7h-5q-3 -6 -9 -14q3 -5 6 -5t4 5l5 -1
q-3 -12 -13 -12q-7 0 -12 6q-6 -6 -15 -6q-18 0 -18 14q0 11 13 15q-6 6 -6 12q0 14 17 14q14 0 14 -12q0 -7 -11 -12q3 -3 6.5 -7t5.5 -6q4 5 6 9h-6v7zM429 6q3 0 8 3q-10 12 -14 16q-4 -4 -4 -9q0 -10 10 -10zM294 42v-3h14v5q-6 0 -6 6l1 3q-1 1 -3 1q-6 0 -6 -12z
M425 43q0 -4 6 -10q5 3 5 9t-6 6q-5 0 -5 -5zM312 342q30 20 42 34q29 -29 -1 -80q-33 38 -41 46zM366 18h-26q0 -12 10 -12q8 0 9 7h7q-4 -14 -18 -14q-21 0 -21 20q0 9 6 15t14 6q21 0 19 -22zM347 35q-7 0 -7 -12h14q0 12 -7 12zM124 0v7h8v41h-8v7h29v-7h-8v-16h22v16
h-8v7h29v-7h-8v-41h8v-7h-29v7h8v18h-22v-18h8v-7h-29zM576 13q7 0 7 -7t-7 -7t-7 7t7 7z" />
    <glyph glyph-name="i.dot" horiz-adv-x="317" 
d="M161 543q-36 0 -57.5 21t-21.5 57q0 37 22 59t57 22q36 0 57.5 -21t21.5 -57q0 -37 -21.5 -59t-57.5 -22zM25 0v25q42 1 57 8.5t15 27.5v320q0 24 -15.5 36t-56.5 13v25l205 9v-403q0 -20 13.5 -27.5t55.5 -8.5v-25h-274z" />
    <glyph glyph-name="caron.alt" horiz-adv-x="170" 
d="M52 531l-11 124q-5 60 -5 66q0 33 16.5 48.5t38.5 15.5t37 -13.5t15 -37.5q0 -28 -17 -70l-45 -133h-29z" />
    </font>
</defs>
</svg>
