<?xml version="1.0" encoding="utf-8"?>
<!-- Generator: Adobe Illustrator 21.1.0, SVG Export Plug-In . SVG Version: 6.00 Build 0)  -->
<svg version="1.1" id="Layer_1" xmlns="http://www.w3.org/2000/svg" xmlns:xlink="http://www.w3.org/1999/xlink" x="0px" y="0px"
	 viewBox="0 0 200 176.5" style="enable-background:new 0 0 200 176.5;" xml:space="preserve">
<style type="text/css">
	.st0{fill:#FFFFFF;}
	.st1{fill:#E8595B;}
</style>
<g>
	<g>
		<path class="st0" d="M146.3,61.1c14.4,0,27.5,5.4,37.5,14.2V54H7.2v21.8h101C118.3,66.6,131.6,61.1,146.3,61.1z"/>
		<rect x="7.2" y="12.2" class="st0" width="176.7" height="21.8"/>
		<path class="st0" d="M93.2,137.4H7.2v21.8h100.7C101.4,153.3,96.4,145.8,93.2,137.4z"/>
		<path class="st0" d="M94.1,95.7h-87v21.8h82.5C89.7,109.8,91.3,102.4,94.1,95.7z"/>
	</g>
	<g>
		<circle class="st1" cx="146.1" cy="117.5" r="46.7"/>
		<polygon class="st0" points="177,114.8 148.8,114.8 148.8,85.4 143.4,85.4 143.4,114.8 115.2,114.8 115.2,120.2 143.4,120.2 
			143.4,149.7 148.8,149.7 148.8,120.2 177,120.2 		"/>
	</g>
</g>
</svg>
