<svg xmlns="http://www.w3.org/2000/svg" xmlns:xlink="http://www.w3.org/1999/xlink" viewBox="-1725.667 -4119.349 529.333 120.517">
  <defs>
    <style>
      .cls-1 {
        clip-path: url(#clip-path);
      }

      .cls-2 {
        fill: #452d59;
      }

      .cls-3 {
        fill: #71478d;
      }

      .cls-4, .cls-6 {
        fill: #fff;
      }

      .cls-5 {
        fill: #00bc00;
      }

      .cls-6 {
        font-size: 20px;
        font-family: Rubik-Medium, Rubik;
        font-weight: 500;
        letter-spacing: 0.163em;
      }
    </style>
    <clipPath id="clip-path">
      <rect id="Rectangle_1" data-name="Rectangle 1" width="529.333" height="105.867"/>
    </clipPath>
  </defs>
  <g id="Group_855" data-name="Group 855" transform="translate(-1776.667 -4165.401)">
    <g id="Group_830" data-name="Group 830" transform="translate(51 46.053)">
      <g id="Group_1" data-name="Group 1" class="cls-1">
        <path id="Path_1" data-name="Path 1" class="cls-2" d="M0,16.011V53.75c0,40.517,43.621,52.116,43.621,52.116S87.242,94.1,87.242,53.75V16.011S63.389,13.723,43.621,0C23.853,13.723,0,16.011,0,16.011"/>
      </g>
      <g id="Group_2" data-name="Group 2" class="cls-1">
        <path id="Path_2" data-name="Path 2" class="cls-3" d="M100.675,63.388H84.337c-.163-3.1,0-6.535,0-9.8v-23.2c0-3.267.327-6.535.327-9.8l7.189-.817V16.5H68v3.267l6.7.653c.163,3.267.163,6.7.163,9.966v23.2c0,3.267,0,6.7-.163,9.966l-6.7.654v3.758h39.537l.817-15.03h-5.391Z" transform="translate(43.095 10.457)"/>
      </g>
      <g id="Group_3" data-name="Group 3" class="cls-1">
        <path id="Path_3" data-name="Path 3" class="cls-3" d="M125.7,28.548a12.6,12.6,0,0,0-4.9-3.1,15.555,15.555,0,0,0-6.208-1.144,18.465,18.465,0,0,0-7.352,1.47,18.828,18.828,0,0,0-6.045,4.084,20.91,20.91,0,0,0-3.921,6.372A22.018,22.018,0,0,0,95.8,44.4a24.465,24.465,0,0,0,1.307,8.169,19.364,19.364,0,0,0,3.594,6.208,17.8,17.8,0,0,0,5.718,3.921A21.966,21.966,0,0,0,113.935,64a17.6,17.6,0,0,0,9.8-2.614,14.137,14.137,0,0,0,5.881-7.188l-2.287-1.47a18.044,18.044,0,0,1-4.411,4.248,12.322,12.322,0,0,1-14.54-2.124c-2.124-2.451-3.267-5.718-3.431-10.783h24.506a6.949,6.949,0,0,0,.327-1.8c0-.653.163-1.47.163-2.287a16.643,16.643,0,0,0-1.144-6.535,12.6,12.6,0,0,0-3.1-4.9m-5.065,11.109a4.716,4.716,0,0,1-3.758,1.307H105.112a18.51,18.51,0,0,1,1.307-6.045A14.6,14.6,0,0,1,108.707,31a8.328,8.328,0,0,1,2.941-2.124,7.08,7.08,0,0,1,3.1-.653,6.363,6.363,0,0,1,4.9,2.287,9.123,9.123,0,0,1,1.96,5.881,5.184,5.184,0,0,1-.98,3.267" transform="translate(60.713 15.4)"/>
      </g>
      <g id="Group_4" data-name="Group 4" class="cls-1">
        <path id="Path_4" data-name="Path 4" class="cls-3" d="M146.347,27.367a16.767,16.767,0,0,0-10.293-3.1,23.5,23.5,0,0,0-6.045.817,14.772,14.772,0,0,0-4.738,2.614,12.9,12.9,0,0,0-3.1,4.084,13.6,13.6,0,0,0-1.144,5.228,12.149,12.149,0,0,0,1.634,6.535,13.167,13.167,0,0,0,4.574,4.411,17.309,17.309,0,0,0-3.921,3.758,6.712,6.712,0,0,0-1.47,4.248,6.781,6.781,0,0,0,4.248,6.372,19.144,19.144,0,0,0-5.391,3.921,6.615,6.615,0,0,0-1.8,4.411,6.972,6.972,0,0,0,3.758,6.045c2.614,1.47,6.7,2.287,12.253,2.287a31.564,31.564,0,0,0,9.312-1.144,27.043,27.043,0,0,0,6.535-2.941,11.156,11.156,0,0,0,3.921-4.411,11.667,11.667,0,0,0,1.307-5.065,8.225,8.225,0,0,0-3.267-6.862c-2.124-1.634-5.718-2.451-10.619-2.451h-8.332a6.282,6.282,0,0,1-3.921-.98,3.047,3.047,0,0,1-1.144-2.614,6.949,6.949,0,0,1,.327-1.8,7.631,7.631,0,0,1,.817-1.634,13.835,13.835,0,0,0,2.777.654,17.758,17.758,0,0,0,2.941.163,18.043,18.043,0,0,0,6.045-.98,14.77,14.77,0,0,0,4.738-2.614,12.9,12.9,0,0,0,3.1-4.084,14.444,14.444,0,0,0,1.144-5.391,13.245,13.245,0,0,0-1.8-6.7h7.678V24.917l-1.307-.817ZM130.99,63.473c.654,0,1.47.163,2.287.163h8.659a20.392,20.392,0,0,1,3.431.327,13.227,13.227,0,0,1,2.124.98,4.5,4.5,0,0,1,1.144,1.47,5.8,5.8,0,0,1,.327,1.634c0,1.96-1.144,3.594-3.267,4.9s-5.228,2.124-9.476,2.124a13.137,13.137,0,0,1-6.7-1.47,5.746,5.746,0,0,1-2.614-5.228,7.632,7.632,0,0,1,.49-2.777,14.6,14.6,0,0,1,1.47-2.614,5.03,5.03,0,0,0,2.124.49m10.129-19.442a5.768,5.768,0,0,1-5.228,2.614,5.674,5.674,0,0,1-5.065-2.614,11.819,11.819,0,0,1-1.8-6.862,11.819,11.819,0,0,1,1.8-6.862,5.768,5.768,0,0,1,5.228-2.614,5.674,5.674,0,0,1,5.065,2.614,11.819,11.819,0,0,1,1.8,6.862,10.316,10.316,0,0,1-1.8,6.862" transform="translate(75.352 15.273)"/>
      </g>
      <g id="Group_5" data-name="Group 5" class="cls-1">
        <path id="Path_5" data-name="Path 5" class="cls-3" d="M179.262,57.465a3.062,3.062,0,0,1-1.144.98,2.172,2.172,0,0,1-1.307.49c-1.47,0-2.124-1.144-2.124-3.594V39c0-5.391-1.144-9.149-3.268-11.436-2.124-2.124-5.391-3.267-9.8-3.267a20.719,20.719,0,0,0-11.109,2.777,11.33,11.33,0,0,0-5.065,7.352,4.44,4.44,0,0,0,1.307,2.614,3.843,3.843,0,0,0,2.777.98q3.921,0,4.9-4.9l1.144-5.065a6.128,6.128,0,0,1,1.634-.163h1.47c2.614,0,4.411.653,5.555,1.96s1.634,3.758,1.634,7.352V39.33a40.914,40.914,0,0,1-4.248,1.144c-1.307.327-2.614.817-3.594,1.144a47.788,47.788,0,0,0-6.862,2.941,15.049,15.049,0,0,0-4.248,3.1,12.364,12.364,0,0,0-2.124,3.267,12.437,12.437,0,0,0-.49,3.431c0,3.1.98,5.555,3.1,7.188A11.546,11.546,0,0,0,154.919,64a20.113,20.113,0,0,0,3.267-.327,13.906,13.906,0,0,0,2.777-.98,12.484,12.484,0,0,0,2.614-1.8,17.956,17.956,0,0,0,2.614-2.451,6.349,6.349,0,0,0,2.614,3.758,9.878,9.878,0,0,0,9.476.49,9.054,9.054,0,0,0,3.268-3.921l-1.8-1.634Zm-13.4-2.287a18.59,18.59,0,0,1-3.921,2.451,6.63,6.63,0,0,1-3.1.654,6.417,6.417,0,0,1-4.574-1.8,5.868,5.868,0,0,1-1.144-1.634,5.456,5.456,0,0,1-.49-2.451,8.566,8.566,0,0,1,1.307-4.248c.817-1.307,2.777-2.614,5.555-3.758.654-.327,1.634-.49,2.777-.98a28.159,28.159,0,0,0,3.431-1.144V55.178Z" transform="translate(91.449 15.4)"/>
      </g>
      <g id="Group_6" data-name="Group 6" class="cls-1">
        <path id="Path_6" data-name="Path 6" class="cls-3" d="M183.377,59.6V24.963l.163-11.109-.817-.653L169,16.794v2.941l6.208.817v33c0,1.96-.327,4.084-.327,6.045v6.208l-5.391.98v3.267h19.442V66.787l-5.391-.98c.163-2.124-.163-4.084-.163-6.208" transform="translate(107.103 8.365)"/>
      </g>
      <g id="Group_7" data-name="Group 7" class="cls-1">
        <path id="Path_7" data-name="Path 7" class="cls-3" d="M217.148,45.234a20.051,20.051,0,0,0-4.411-3.594,34.071,34.071,0,0,0-6.862-3.1l-3.594-1.307a19.233,19.233,0,0,1-6.372-3.594,7.014,7.014,0,0,1-2.287-5.555,8.317,8.317,0,0,1,.817-3.594,5.613,5.613,0,0,1,2.124-2.614,9.369,9.369,0,0,1,3.1-1.634,14.3,14.3,0,0,1,3.921-.49,16.928,16.928,0,0,1,6.208,1.307L211.43,30.2h5.555l.49-10.456a24.532,24.532,0,0,0-6.208-3.1,28.053,28.053,0,0,0-7.678-1.144,22,22,0,0,0-7.515,1.144,16.076,16.076,0,0,0-5.718,3.1,15.081,15.081,0,0,0-3.758,4.738,14.855,14.855,0,0,0-1.307,6.045,13.839,13.839,0,0,0,3.758,9.8A27.679,27.679,0,0,0,199.34,46.7l3.431,1.307a14.692,14.692,0,0,1,3.921,1.8,20.509,20.509,0,0,1,2.777,1.8,7.363,7.363,0,0,1,1.634,2.287,7.913,7.913,0,0,1,.49,2.941,7.79,7.79,0,0,1-2.941,6.535c-1.96,1.634-4.738,2.287-8.169,2.287a15.979,15.979,0,0,1-4.248-.49,13.869,13.869,0,0,1-3.594-1.47l-1.634-9.476H185.29l-.49,11.273a26.419,26.419,0,0,0,7.188,2.941,30.746,30.746,0,0,0,8.659,1.144,24.963,24.963,0,0,0,8.005-1.144,18.737,18.737,0,0,0,6.208-3.267,13.168,13.168,0,0,0,4.084-4.9,13.374,13.374,0,0,0,1.47-6.208,14.172,14.172,0,0,0-.817-4.574,12.487,12.487,0,0,0-2.451-4.248" transform="translate(117.116 9.823)"/>
      </g>
      <g id="Group_8" data-name="Group 8" class="cls-1">
        <path id="Path_8" data-name="Path 8" class="cls-3" d="M247.083,59.435V45.221c0-4.9-.98-8.5-2.777-10.783s-4.574-3.267-8.169-3.267a13.855,13.855,0,0,0-6.862,1.8A19.9,19.9,0,0,0,223.23,38.2V13.853l-1.144-.653L208.2,16.794v2.941l6.208.817V59.435c0,2.287.163,4.411.163,6.372l-5.065.98v3.267H228.3V66.787l-4.9-.98c0-1.96-.163-4.084-.163-6.208V42.281a28.134,28.134,0,0,1,4.9-3.758,10.112,10.112,0,0,1,4.738-1.144,4.447,4.447,0,0,1,4.248,2.124c.817,1.307,1.144,3.758,1.144,7.025V59.762c0,2.287.163,4.248.163,6.208l-5.065.98v3.267h18.788V66.95l-4.9-.98c-.163-2.124-.163-4.248-.163-6.535" transform="translate(131.945 8.365)"/>
      </g>
      <g id="Group_9" data-name="Group 9" class="cls-1">
        <path id="Path_9" data-name="Path 9" class="cls-3" d="M252.24,52.464V25.017l-.98-.817L237.7,29.1v2.941l5.391.654c0,1.634.163,3.1.163,4.411V52.3c0,2.287.163,4.411.163,6.372l-5.065.98V62.92h18.788V59.652l-4.9-.98V52.464" transform="translate(150.641 15.337)"/>
        <rect id="Rectangle_80" data-name="Rectangle 80" width="529.333" height="105.867" transform="translate(-777.935 3173.072)"/>
      </g>
      <g id="Group_10" data-name="Group 10" class="cls-1">
        <path id="Path_10" data-name="Path 10" class="cls-3" d="M281.3,28.548a12.6,12.6,0,0,0-4.9-3.1,15.556,15.556,0,0,0-6.208-1.144,18.465,18.465,0,0,0-7.352,1.47,18.829,18.829,0,0,0-6.045,4.084,20.911,20.911,0,0,0-3.921,6.372A22.022,22.022,0,0,0,251.4,44.4a24.468,24.468,0,0,0,1.307,8.169,19.365,19.365,0,0,0,3.594,6.208,17.8,17.8,0,0,0,5.718,3.921A21.964,21.964,0,0,0,269.535,64a17.6,17.6,0,0,0,9.8-2.614,14.137,14.137,0,0,0,5.882-7.188l-2.287-1.47a18.043,18.043,0,0,1-4.411,4.248,12.322,12.322,0,0,1-14.54-2.124c-2.124-2.451-3.268-5.718-3.431-10.783h24.506a6.948,6.948,0,0,0,.327-1.8,10.053,10.053,0,0,0,.163-2.287,16.644,16.644,0,0,0-1.144-6.535,14.816,14.816,0,0,0-3.1-4.9m-5.065,11.109a4.716,4.716,0,0,1-3.758,1.307H260.712a18.515,18.515,0,0,1,1.307-6.045A14.6,14.6,0,0,1,264.307,31a8.33,8.33,0,0,1,2.941-2.124,7.08,7.08,0,0,1,3.1-.653,6.363,6.363,0,0,1,4.9,2.287,9.123,9.123,0,0,1,1.96,5.881,5.184,5.184,0,0,1-.98,3.267" transform="translate(159.323 15.4)"/>
      </g>
      <g id="Group_11" data-name="Group 11" class="cls-1">
        <path id="Path_11" data-name="Path 11" class="cls-3" d="M288.677,59.6V24.963L289,13.853l-.98-.653L274.3,16.794v2.941l6.208.817v33c0,1.96-.327,4.084-.327,6.045v6.208l-5.391.98v3.267h19.442V66.787l-5.391-.98c0-2.124-.163-4.084-.163-6.208" transform="translate(173.836 8.365)"/>
      </g>
      <g id="Group_12" data-name="Group 12" class="cls-1">
        <path id="Path_12" data-name="Path 12" class="cls-3" d="M323.816,65.643V24.963l.163-11.109-.817-.653-13.723,3.594v2.941l6.208.817V36.072c-3.1-3.1-6.372-4.738-10.456-4.738a15.981,15.981,0,0,0-6.7,1.47,18.122,18.122,0,0,0-5.391,4.084,23.957,23.957,0,0,0-3.594,6.372,26.22,26.22,0,0,0-1.307,8.332,24.671,24.671,0,0,0,1.144,8.169,18.739,18.739,0,0,0,3.267,6.208,16.237,16.237,0,0,0,4.9,3.921,16.444,16.444,0,0,0,6.372,1.307,14.5,14.5,0,0,0,6.208-1.307,15.739,15.739,0,0,0,4.9-3.921l.817,4.9,13.4-.817V66.787Zm-8.822-3.267a12.231,12.231,0,0,1-7.842,3.267,8.105,8.105,0,0,1-6.862-3.594c-1.8-2.287-2.777-6.045-2.777-10.946a25.48,25.48,0,0,1,.817-6.535,14.873,14.873,0,0,1,2.124-4.574,9.158,9.158,0,0,1,3.1-2.614,7.446,7.446,0,0,1,3.758-.817,12.928,12.928,0,0,1,7.679,3.267Z" transform="translate(182.645 8.365)"/>
      </g>
      <g id="Group_13" data-name="Group 13" class="cls-1">
        <path id="Path_13" data-name="Path 13" class="cls-3" d="M245.438,22.776a4.738,4.738,0,1,0-4.738-4.738,4.741,4.741,0,0,0,4.738,4.738" transform="translate(152.542 8.429)"/>
      </g>
      <g id="Group_14" data-name="Group 14" class="cls-1">
        <path id="Path_14" data-name="Path 14" class="cls-3" d="M41.81,3.2C26.616,12.839,9.952,16.6,2.6,17.74V51.722C2.6,66.916,9.3,79.5,22.368,89.3A71.132,71.132,0,0,0,41.81,99.264" transform="translate(1.648 2.028)"/>
      </g>
      <g id="Group_15" data-name="Group 15" class="cls-1">
        <path id="Path_15" data-name="Path 15" class="cls-4" d="M50.526,52.406,48.4,63.352H33.861v-.327h0V20.874h0l6.372-.653V16.3H15.4v3.921l6.372.653h0V63.025h0l-6.372.654V67.6H56.08L56.9,52.406H50.526ZM26.346,63.025h-1.96V20.711h1.96Zm4.574,0H28.96V20.711h1.96Z" transform="translate(9.76 10.33)"/>
      </g>
      <g id="Group_16" data-name="Group 16" class="cls-1">
        <path id="Path_16" data-name="Path 16" class="cls-3" d="M320.475,14.96h-.654a.16.16,0,0,0-.163-.163,2.253,2.253,0,0,1-.49-.654,1.634,1.634,0,0,0-1.961,0c-.327.163-.327.49-.327.817a.6.6,0,0,0,.163.49.849.849,0,0,0,.653.327A7.413,7.413,0,0,0,319,16.1a5.492,5.492,0,0,1,1.634.653,1.483,1.483,0,0,1,.49,1.144,1.752,1.752,0,0,1-.327.98,1.5,1.5,0,0,1-.98.653,2.778,2.778,0,0,1-2.614,0c-.327-.163-.654-.49-.98-.653-.163-.327-.327-.49-.327-.817V17.9h.654l.163.163c.164.163.327.49.654.653a2.165,2.165,0,0,0,2.287,0,.9.9,0,0,0,.49-.817c0-.163-.163-.327-.327-.49a1.239,1.239,0,0,0-.654-.327c-.327-.163-.817-.163-1.307-.327-.654-.163-1.144-.327-1.307-.653a1.483,1.483,0,0,1-.49-1.144,2.32,2.32,0,0,1,.327-.98,1.63,1.63,0,0,1,.817-.653,2.777,2.777,0,0,1,2.614,0,3.564,3.564,0,0,1,.817.653,2.072,2.072,0,0,0-.163.98h0" transform="translate(200.2 8.239)"/>
      </g>
      <g id="Group_17" data-name="Group 17" class="cls-1">
        <path id="Path_17" data-name="Path 17" class="cls-3" d="M324.348,13.427c.163-.163.327-.327.49-.327h.49v6.7h-.654V14.9l-1.47,2.941a.16.16,0,0,1-.163.163h-.654l-.164-.163-1.47-2.941v4.9H320.1V13.1h.49c.163,0,.327.163.49.327l1.96,3.921Z" transform="translate(202.861 8.302)"/>
      </g>
    </g>
    <rect id="Rectangle_105" data-name="Rectangle 105" class="cls-5" width="110.443" height="31.192" rx="4" transform="translate(455.667 135.377)"/>
    <text id="STORE" class="cls-6" transform="translate(510.667 158.07)"><tspan x="-38.55" y="0">ADMIN</tspan></text>
  </g>
</svg>
